<?xml version="1.0" encoding="UTF-8" standalone="no"?>
<!-- Created with Inkscape (http://www.inkscape.org/) -->

<svg
   xmlns:dc="http://purl.org/dc/elements/1.1/"
   xmlns:cc="http://creativecommons.org/ns#"
   xmlns:rdf="http://www.w3.org/1999/02/22-rdf-syntax-ns#"
   xmlns:svg="http://www.w3.org/2000/svg"
   xmlns="http://www.w3.org/2000/svg"
   xmlns:sodipodi="http://sodipodi.sourceforge.net/DTD/sodipodi-0.dtd"
   xmlns:inkscape="http://www.inkscape.org/namespaces/inkscape"
   id="svg2"
   version="1.1"
   inkscape:version="0.48.4 r9939"
   width="28.7915"
   height="28.789125"
   xml:space="preserve"
   sodipodi:docname="QRIDit_logo.svg"><metadata
     id="metadata8"><rdf:RDF><cc:Work
         rdf:about=""><dc:format>image/svg+xml</dc:format><dc:type
           rdf:resource="http://purl.org/dc/dcmitype/StillImage" /><dc:title></dc:title></cc:Work></rdf:RDF></metadata><defs
     id="defs6" /><sodipodi:namedview
     pagecolor="#ffffff"
     bordercolor="#666666"
     borderopacity="1"
     objecttolerance="10"
     gridtolerance="10"
     guidetolerance="10"
     inkscape:pageopacity="0"
     inkscape:pageshadow="2"
     inkscape:window-width="1375"
     inkscape:window-height="772"
     id="namedview4"
     showgrid="false"
     inkscape:zoom="4.2627817"
     inkscape:cx="46.331249"
     inkscape:cy="14.39375"
     inkscape:window-x="65"
     inkscape:window-y="24"
     inkscape:window-maximized="1"
     inkscape:current-layer="g12"
     fit-margin-top="0"
     fit-margin-left="0"
     fit-margin-right="0"
     fit-margin-bottom="0" /><g
     id="g10"
     inkscape:groupmode="layer"
     inkscape:label="ink_ext_XXXXXX"
     transform="matrix(1.25,0,0,-1.25,0,28.789125)"><g
       id="g12"
       transform="scale(0.1,0.1)"><path
         d="m 202.605,27.7266 -38.652,0 6.211,-20.69535 -50.48,20.69535 -91.9535,0 0,174.8634 174.8745,0 0,-174.8634 z M 0,230.313 0,0 l 230.332,0 0,230.313 -230.332,0"
         style="fill:#231f20;fill-opacity:1;fill-rule:nonzero;stroke:none"
         id="path26"
         inkscape:connector-curvature="0" /><path
         d="m 67.4375,121.699 23.1172,12.344 0,7.492 7.3008,0 0,-3.594 15.2855,8.164 50.379,-24.406 -96.0825,0 z m 82.6175,-37.4881 -69.1527,0 0,31.7771 69.1527,0 0,-31.7771 z m -96.7698,92.8521 0,-122.2466 122.2498,0 0,122.2466 -122.2498,0"
         style="fill:#21b6c1;fill-opacity:1;fill-rule:nonzero;stroke:none"
         id="path28"
         inkscape:connector-curvature="0" /></g></g></svg>