<?xml version="1.0" encoding="UTF-8" standalone="no"?>
<!-- Generator: Adobe Illustrator 17.0.2, SVG Export Plug-In . SVG Version: 6.00 Build 0)  -->

<svg
   xmlns:dc="http://purl.org/dc/elements/1.1/"
   xmlns:cc="http://creativecommons.org/ns#"
   xmlns:rdf="http://www.w3.org/1999/02/22-rdf-syntax-ns#"
   xmlns:svg="http://www.w3.org/2000/svg"
   xmlns="http://www.w3.org/2000/svg"
   xmlns:sodipodi="http://sodipodi.sourceforge.net/DTD/sodipodi-0.dtd"
   xmlns:inkscape="http://www.inkscape.org/namespaces/inkscape"
   version="1.1"
   x="0px"
   y="0px"
   width="87.5px"
   height="30.625px"
   viewBox="0 0 87.5 30.625"
   enable-background="new 0 0 87.5 30.625"
   xml:space="preserve"
   id="svg3075"
   inkscape:version="0.48.4 r9939"
   sodipodi:docname="QRIDit_Homewatch [LOGO].svg"><metadata
   id="metadata3163"><rdf:RDF><cc:Work
       rdf:about=""><dc:format>image/svg+xml</dc:format><dc:type
         rdf:resource="http://purl.org/dc/dcmitype/StillImage" /><dc:title></dc:title></cc:Work></rdf:RDF></metadata><defs
   id="defs3161" /><sodipodi:namedview
   pagecolor="#ffffff"
   bordercolor="#666666"
   borderopacity="1"
   objecttolerance="10"
   gridtolerance="10"
   guidetolerance="10"
   inkscape:pageopacity="0"
   inkscape:pageshadow="2"
   inkscape:window-width="640"
   inkscape:window-height="480"
   id="namedview3159"
   showgrid="false"
   inkscape:zoom="3.4628571"
   inkscape:cx="43.75"
   inkscape:cy="15.3125"
   inkscape:window-x="0"
   inkscape:window-y="0"
   inkscape:window-maximized="0"
   inkscape:current-layer="svg3075" />
<g
   id="Icon">
	<g
   id="g3078">
		<g
   id="g3080">
			<path
   d="M41.583,19.821c-0.974,0.449-2.158,0.673-3.556,0.673c-1.123,0-2.134-0.154-3.031-0.468     c-0.898-0.312-1.654-0.742-2.271-1.29c-0.617-0.549-1.089-1.192-1.419-1.932c-0.329-0.741-0.493-1.537-0.493-2.393     c0-0.877,0.164-1.691,0.493-2.44c0.329-0.752,0.802-1.406,1.419-1.966c0.616-0.559,1.373-0.996,2.271-1.316     c0.897-0.318,1.908-0.476,3.031-0.476c1.138,0,2.151,0.158,3.042,0.476c0.891,0.319,1.644,0.757,2.26,1.316     c0.616,0.56,1.088,1.214,1.418,1.966c0.328,0.75,0.493,1.564,0.493,2.44c0,0.856-0.165,1.65-0.493,2.384     c-0.33,0.734-0.802,1.381-1.418,1.94l1.829,1.332l-1.5,1.249L41.583,19.821z M41.111,17.108c0.274-0.296,0.494-0.662,0.657-1.102     c0.164-0.438,0.247-0.971,0.247-1.595c0-0.516-0.071-1.014-0.216-1.495c-0.144-0.484-0.374-0.912-0.688-1.292     c-0.316-0.378-0.728-0.679-1.232-0.903c-0.508-0.226-1.125-0.338-1.851-0.338c-0.726,0-1.342,0.113-1.849,0.338     c-0.507,0.224-0.918,0.525-1.233,0.903c-0.315,0.38-0.545,0.808-0.688,1.292c-0.144,0.481-0.216,0.979-0.216,1.495     c0,0.494,0.072,0.973,0.216,1.44c0.144,0.465,0.373,0.883,0.688,1.256c0.315,0.374,0.726,0.673,1.233,0.896     c0.507,0.226,1.123,0.337,1.849,0.337c0.232,0,0.479-0.004,0.739-0.015c0.261-0.012,0.446-0.062,0.556-0.149l-1.377-1.003     l1.5-1.282L41.111,17.108z"
   id="path3082" />
			<path
   d="M53.419,8.493c0.658,0,1.253,0.086,1.779,0.255c0.526,0.171,0.978,0.403,1.355,0.699     c0.376,0.296,0.664,0.639,0.864,1.028c0.199,0.389,0.298,0.809,0.298,1.258c0,0.69-0.183,1.288-0.545,1.792     c-0.362,0.504-0.957,0.888-1.779,1.15v0.033c0.398,0.087,0.727,0.222,0.987,0.402c0.26,0.181,0.475,0.395,0.636,0.642     c0.165,0.247,0.287,0.518,0.36,0.815c0.077,0.295,0.127,0.591,0.155,0.888c0.015,0.186,0.026,0.405,0.041,0.658     c0.014,0.252,0.038,0.508,0.071,0.771c0.036,0.264,0.09,0.513,0.164,0.747c0.076,0.236,0.188,0.438,0.342,0.602h-3.229     c-0.176-0.372-0.286-0.816-0.326-1.332c-0.043-0.515-0.104-1.009-0.187-1.479c-0.109-0.613-0.341-1.062-0.699-1.348     c-0.356-0.285-0.938-0.428-1.744-0.428h-3.229v4.588h-3.226V8.493H53.419z M52.269,13.804c0.74,0,1.293-0.131,1.665-0.393     c0.369-0.265,0.554-0.693,0.554-1.283c0-0.57-0.185-0.984-0.554-1.242c-0.372-0.257-0.925-0.386-1.665-0.386h-3.536v3.304H52.269     z"
   id="path3084" />
			<path
   d="M61.558,8.493v11.739h-3.226V8.493H61.558z"
   id="path3086" />
			<path
   d="M68.73,8.493c0.944,0,1.824,0.12,2.641,0.362c0.814,0.241,1.521,0.603,2.117,1.086c0.596,0.482,1.061,1.084,1.396,1.808     c0.337,0.723,0.504,1.574,0.504,2.549c0,0.854-0.136,1.644-0.41,2.368c-0.274,0.722-0.688,1.347-1.244,1.873     c-0.554,0.527-1.248,0.94-2.075,1.242c-0.83,0.303-1.806,0.452-2.929,0.452h-6.331V8.493H68.73z M68.504,18.062     c0.465,0,0.918-0.062,1.357-0.182c0.437-0.12,0.827-0.32,1.171-0.601c0.343-0.278,0.617-0.643,0.822-1.092     c0.205-0.45,0.309-0.998,0.309-1.644c0-0.592-0.072-1.127-0.216-1.604c-0.146-0.477-0.381-0.884-0.71-1.225     c-0.329-0.339-0.763-0.601-1.304-0.781c-0.543-0.181-1.21-0.271-2.004-0.271h-2.304v7.399H68.504z"
   id="path3088" />
			<path
   d="M75.882,10.418V8.493h2.919v1.925H75.882z M78.801,11.733v8.5h-2.919v-8.5H78.801z"
   id="path3090" />
			<path
   d="M85.437,11.733v1.561h-2.137v4.209c0,0.396,0.083,0.658,0.245,0.79c0.165,0.131,0.493,0.196,0.987,0.196     c0.164,0,0.322-0.005,0.475-0.016c0.15-0.011,0.293-0.028,0.43-0.05v1.809c-0.246,0.032-0.52,0.054-0.82,0.065     c-0.303,0.011-0.597,0.017-0.885,0.017c-0.45,0-0.88-0.025-1.285-0.074c-0.403-0.048-0.759-0.146-1.069-0.288     c-0.307-0.142-0.55-0.345-0.729-0.608c-0.177-0.263-0.268-0.608-0.268-1.036v-5.014h-1.767v-1.561h1.767V9.184h2.919v2.549     H85.437z"
   id="path3092" />
			<path
   d="M31.248,25.798h-0.106v-3.032h0.106v1.409h2.655v-1.409h0.106v3.032h-0.106v-1.536h-2.655V25.798z"
   id="path3094" />
			<path
   d="M34.721,24.275c0.053-0.137,0.132-0.259,0.236-0.364c0.105-0.104,0.232-0.188,0.385-0.252     c0.152-0.064,0.329-0.095,0.531-0.095c0.199,0,0.373,0.031,0.526,0.095c0.152,0.064,0.28,0.147,0.385,0.252     c0.104,0.105,0.182,0.228,0.236,0.364c0.052,0.138,0.079,0.282,0.079,0.431c0,0.151-0.027,0.294-0.079,0.431     c-0.054,0.14-0.133,0.26-0.236,0.365c-0.105,0.104-0.232,0.188-0.385,0.249c-0.153,0.062-0.329,0.094-0.531,0.094     c-0.198,0-0.374-0.032-0.526-0.094c-0.152-0.061-0.28-0.145-0.385-0.249c-0.104-0.106-0.183-0.226-0.236-0.365     c-0.053-0.137-0.08-0.279-0.08-0.431C34.642,24.558,34.668,24.413,34.721,24.275z M34.82,25.106     c0.048,0.128,0.119,0.239,0.214,0.338c0.096,0.096,0.214,0.176,0.353,0.232c0.14,0.059,0.302,0.089,0.486,0.089     c0.18,0,0.341-0.03,0.481-0.089c0.14-0.056,0.257-0.136,0.352-0.232c0.097-0.099,0.168-0.21,0.216-0.338     c0.047-0.128,0.071-0.261,0.071-0.4c0-0.135-0.024-0.267-0.071-0.396c-0.048-0.127-0.12-0.239-0.216-0.336     c-0.095-0.099-0.212-0.176-0.352-0.236c-0.14-0.06-0.301-0.09-0.481-0.09c-0.184,0-0.346,0.03-0.486,0.09     c-0.139,0.06-0.257,0.138-0.353,0.236c-0.096,0.097-0.167,0.209-0.214,0.336c-0.048,0.129-0.072,0.261-0.072,0.396     C34.748,24.846,34.771,24.979,34.82,25.106z"
   id="path3096" />
			<path
   d="M37.806,23.615v0.54h0.01c0.025-0.086,0.063-0.163,0.117-0.234c0.054-0.071,0.118-0.134,0.197-0.187     c0.077-0.054,0.163-0.096,0.256-0.126c0.095-0.029,0.194-0.044,0.3-0.044c0.213-0.007,0.39,0.038,0.534,0.129     c0.144,0.092,0.24,0.218,0.285,0.38h0.011c0.052-0.152,0.157-0.274,0.314-0.368c0.155-0.096,0.338-0.141,0.552-0.141     c0.166,0,0.304,0.019,0.413,0.058c0.111,0.04,0.2,0.094,0.267,0.163c0.067,0.07,0.114,0.154,0.143,0.251     c0.029,0.098,0.042,0.207,0.042,0.326v1.435h-0.105v-1.435c0-0.109-0.012-0.206-0.034-0.294     c-0.024-0.087-0.065-0.162-0.123-0.226c-0.058-0.062-0.137-0.109-0.234-0.144c-0.097-0.034-0.219-0.052-0.368-0.052     c-0.131,0-0.25,0.022-0.357,0.062c-0.104,0.042-0.195,0.097-0.271,0.168c-0.074,0.071-0.131,0.152-0.169,0.243     c-0.038,0.094-0.058,0.189-0.058,0.292v1.385h-0.108v-1.4c0-0.103-0.008-0.199-0.029-0.29c-0.018-0.091-0.056-0.17-0.108-0.237     c-0.052-0.068-0.127-0.121-0.223-0.162c-0.097-0.04-0.219-0.06-0.373-0.06c-0.135,0-0.256,0.024-0.365,0.075     c-0.11,0.049-0.203,0.117-0.278,0.198c-0.077,0.084-0.136,0.182-0.176,0.292c-0.041,0.11-0.06,0.226-0.06,0.349v1.235H37.7     v-2.183H37.806z"
   id="path3098" />
			<path
   d="M42.011,25.133c0.041,0.128,0.102,0.237,0.188,0.33c0.084,0.093,0.194,0.167,0.328,0.221     c0.136,0.053,0.301,0.081,0.495,0.081c0.286,0,0.524-0.062,0.714-0.182c0.188-0.12,0.306-0.3,0.353-0.541h0.107     c-0.04,0.255-0.165,0.452-0.377,0.593c-0.213,0.14-0.474,0.21-0.786,0.21c-0.212,0.004-0.395-0.024-0.545-0.08     c-0.15-0.058-0.274-0.138-0.368-0.241c-0.096-0.102-0.166-0.226-0.213-0.364c-0.045-0.141-0.069-0.292-0.069-0.453     c0-0.181,0.035-0.342,0.103-0.484c0.067-0.141,0.155-0.261,0.265-0.359c0.11-0.097,0.236-0.171,0.383-0.223     c0.146-0.05,0.294-0.075,0.446-0.075c0.212,0,0.395,0.032,0.55,0.098c0.154,0.065,0.278,0.152,0.377,0.259     c0.098,0.107,0.168,0.23,0.21,0.37c0.045,0.139,0.064,0.283,0.057,0.433h-2.282C41.948,24.87,41.969,25.008,42.011,25.133z      M44.052,24.258c-0.046-0.119-0.114-0.226-0.205-0.316c-0.089-0.091-0.202-0.161-0.337-0.215     c-0.135-0.052-0.29-0.078-0.466-0.078c-0.149,0-0.288,0.023-0.417,0.068c-0.13,0.044-0.243,0.111-0.34,0.199     c-0.098,0.085-0.175,0.188-0.236,0.31c-0.061,0.123-0.095,0.26-0.106,0.413h2.176C44.12,24.506,44.099,24.38,44.052,24.258z"
   id="path3100" />
			<path
   d="M48.168,23.615l-0.869,2.183H47.16L46.31,23.7h-0.01l-0.854,2.098h-0.149l-0.844-2.183h0.101l0.813,2.099h0.01     l0.845-2.099h0.164l0.84,2.099h0.009l0.829-2.099H48.168z"
   id="path3102" />
			<path
   d="M48.594,24.004c0.045-0.088,0.111-0.168,0.199-0.231c0.087-0.064,0.191-0.117,0.317-0.152     c0.127-0.038,0.274-0.056,0.444-0.056c0.121,0,0.232,0.01,0.343,0.029c0.107,0.021,0.202,0.054,0.284,0.104     c0.08,0.05,0.145,0.114,0.195,0.194c0.05,0.078,0.076,0.178,0.078,0.297v1.388c0,0.044,0.013,0.075,0.033,0.095     c0.022,0.019,0.051,0.032,0.086,0.04c0.033,0.007,0.072,0.009,0.115,0.008c0.037-0.001,0.076-0.002,0.111-0.005v0.084h-0.156     c-0.08,0-0.148-0.014-0.206-0.044c-0.06-0.029-0.088-0.086-0.088-0.169v-0.283h-0.01c-0.029,0.07-0.073,0.139-0.136,0.203     c-0.062,0.065-0.141,0.124-0.233,0.173c-0.096,0.053-0.203,0.093-0.322,0.123c-0.122,0.028-0.25,0.044-0.393,0.044     c-0.274,0-0.496-0.05-0.662-0.146c-0.165-0.099-0.249-0.245-0.249-0.439c0-0.136,0.026-0.245,0.081-0.326     c0.055-0.084,0.127-0.146,0.215-0.194c0.089-0.046,0.191-0.079,0.303-0.098c0.115-0.018,0.226-0.03,0.339-0.036     c0.188-0.009,0.351-0.016,0.484-0.022c0.133-0.007,0.245-0.022,0.331-0.044c0.086-0.021,0.15-0.053,0.191-0.097     c0.04-0.044,0.062-0.107,0.062-0.19c0-0.063-0.007-0.132-0.021-0.203c-0.014-0.07-0.048-0.137-0.103-0.194     c-0.055-0.06-0.136-0.109-0.243-0.146c-0.104-0.039-0.248-0.059-0.429-0.059c-0.286,0-0.509,0.057-0.669,0.168     c-0.158,0.112-0.247,0.269-0.267,0.475h-0.105C48.521,24.188,48.548,24.094,48.594,24.004z M50.341,24.516     c-0.036,0.039-0.091,0.069-0.165,0.092c-0.076,0.02-0.159,0.036-0.257,0.048c-0.093,0.013-0.198,0.018-0.308,0.021     c-0.114,0.004-0.222,0.009-0.329,0.013c-0.104,0.007-0.207,0.018-0.31,0.033c-0.101,0.016-0.191,0.043-0.268,0.084     c-0.078,0.041-0.141,0.099-0.186,0.171c-0.045,0.072-0.069,0.166-0.069,0.282c0,0.062,0.014,0.123,0.041,0.185     c0.026,0.061,0.071,0.113,0.133,0.161c0.064,0.047,0.148,0.084,0.248,0.113c0.101,0.03,0.226,0.046,0.374,0.046     c0.177,0,0.335-0.024,0.473-0.073c0.138-0.048,0.255-0.11,0.348-0.189c0.093-0.077,0.165-0.167,0.212-0.268     c0.048-0.103,0.072-0.208,0.072-0.316v-0.402H50.341z"
   id="path3104" />
			<path
   d="M51.426,25.373c0,0.083,0.013,0.147,0.035,0.192c0.022,0.045,0.054,0.079,0.087,0.102     c0.038,0.023,0.076,0.035,0.116,0.04c0.044,0.004,0.087,0.007,0.129,0.007c0.053,0,0.101-0.001,0.143-0.003     c0.043-0.002,0.071-0.005,0.09-0.011v0.085c-0.032,0.004-0.064,0.006-0.093,0.009c-0.03,0.002-0.086,0.004-0.166,0.004     c-0.125,0-0.231-0.028-0.317-0.087c-0.086-0.059-0.129-0.164-0.129-0.321V23.7h-0.502v-0.085h0.502v-0.688h0.104v0.688h0.617     V23.7h-0.617V25.373z"
   id="path3106" />
			<path
   d="M54.48,25.385c-0.06,0.097-0.138,0.18-0.236,0.247c-0.097,0.068-0.21,0.12-0.338,0.158     c-0.129,0.036-0.272,0.055-0.43,0.055c-0.193,0-0.364-0.028-0.518-0.087c-0.15-0.058-0.276-0.136-0.379-0.235     c-0.103-0.101-0.182-0.214-0.234-0.347c-0.052-0.132-0.078-0.273-0.078-0.422c0-0.159,0.026-0.311,0.076-0.454     c0.053-0.143,0.132-0.269,0.234-0.378c0.104-0.107,0.236-0.195,0.398-0.26c0.162-0.065,0.351-0.098,0.565-0.098     c0.129,0,0.25,0.016,0.367,0.045c0.117,0.032,0.219,0.076,0.312,0.137c0.093,0.06,0.169,0.135,0.231,0.224     c0.062,0.089,0.103,0.191,0.119,0.307h-0.107c-0.019-0.105-0.06-0.199-0.114-0.278c-0.058-0.077-0.126-0.142-0.208-0.194     c-0.081-0.052-0.174-0.091-0.276-0.118c-0.103-0.023-0.21-0.037-0.324-0.037c-0.215,0-0.397,0.033-0.548,0.102     c-0.15,0.065-0.272,0.151-0.36,0.259c-0.09,0.105-0.157,0.224-0.198,0.356c-0.04,0.13-0.062,0.261-0.062,0.389     c0,0.134,0.024,0.26,0.072,0.382c0.05,0.12,0.119,0.229,0.212,0.322c0.091,0.093,0.205,0.168,0.344,0.224     c0.138,0.054,0.298,0.083,0.477,0.083c0.136,0,0.263-0.017,0.377-0.049c0.119-0.033,0.222-0.079,0.313-0.143     c0.091-0.062,0.162-0.136,0.22-0.222c0.056-0.087,0.091-0.186,0.103-0.296h0.104C54.579,25.177,54.54,25.286,54.48,25.385z"
   id="path3108" />
			<path
   d="M55.297,22.766v1.39h0.009c0.026-0.086,0.063-0.163,0.119-0.234c0.055-0.071,0.124-0.134,0.208-0.187     c0.083-0.054,0.179-0.096,0.288-0.126c0.11-0.029,0.231-0.044,0.367-0.044c0.141,0,0.271,0.016,0.392,0.051     c0.116,0.033,0.22,0.084,0.307,0.15c0.086,0.066,0.153,0.15,0.201,0.247c0.05,0.098,0.073,0.209,0.073,0.337v1.448h-0.106v-1.435     c0-0.129-0.024-0.236-0.069-0.326c-0.046-0.088-0.109-0.162-0.19-0.221c-0.08-0.058-0.171-0.101-0.276-0.127     c-0.104-0.026-0.214-0.041-0.331-0.041c-0.162,0-0.306,0.024-0.43,0.075c-0.123,0.049-0.229,0.117-0.312,0.198     c-0.08,0.084-0.144,0.182-0.188,0.292c-0.043,0.11-0.062,0.226-0.062,0.349v1.235h-0.108v-3.032H55.297z"
   id="path3110" />
			<path
   d="M62.171,25.714v0.084h-2.538v-3.032h2.516v0.086h-2.41v1.323h2.268v0.087h-2.268v1.452H62.171z"
   id="path3112" />
			<path
   d="M64.835,22.766v3.032h-0.106v-0.611h-0.01c-0.072,0.195-0.202,0.354-0.391,0.476c-0.188,0.122-0.425,0.183-0.704,0.183     c-0.181,0-0.343-0.027-0.485-0.085c-0.144-0.058-0.266-0.135-0.366-0.236c-0.103-0.101-0.179-0.219-0.23-0.358     c-0.053-0.139-0.082-0.29-0.082-0.454c0-0.152,0.027-0.298,0.08-0.438c0.05-0.139,0.123-0.261,0.221-0.365     c0.099-0.105,0.22-0.189,0.365-0.251c0.142-0.062,0.31-0.093,0.498-0.093c0.288,0,0.529,0.06,0.718,0.182     c0.186,0.123,0.312,0.282,0.377,0.479h0.01v-1.46H64.835z M64.427,23.922c-0.203-0.182-0.468-0.274-0.802-0.274     c-0.183,0-0.343,0.032-0.479,0.096c-0.134,0.063-0.243,0.146-0.329,0.247c-0.084,0.1-0.146,0.214-0.188,0.339     c-0.041,0.127-0.06,0.253-0.06,0.381c0,0.138,0.022,0.272,0.066,0.398c0.043,0.129,0.109,0.242,0.195,0.339     c0.089,0.099,0.195,0.175,0.329,0.23c0.134,0.057,0.286,0.087,0.465,0.087c0.177,0,0.334-0.03,0.471-0.087     c0.136-0.056,0.25-0.131,0.346-0.229c0.093-0.095,0.164-0.208,0.214-0.335c0.05-0.127,0.074-0.262,0.074-0.403     C64.729,24.367,64.629,24.105,64.427,23.922z"
   id="path3114" />
			<path
   d="M65.593,23.195v-0.43H65.7v0.43H65.593z M65.593,25.798v-2.183H65.7v2.183H65.593z"
   id="path3116" />
			<path
   d="M66.745,25.373c0,0.083,0.011,0.147,0.033,0.192c0.023,0.045,0.052,0.079,0.088,0.102     c0.035,0.023,0.074,0.035,0.116,0.04c0.043,0.004,0.086,0.007,0.127,0.007c0.056,0,0.103-0.001,0.143-0.003     c0.046-0.002,0.074-0.005,0.091-0.011v0.085c-0.031,0.004-0.062,0.006-0.091,0.009c-0.031,0.002-0.087,0.004-0.169,0.004     c-0.124,0-0.229-0.028-0.314-0.087c-0.089-0.059-0.132-0.164-0.132-0.321V23.7h-0.498v-0.085h0.498v-0.688h0.108v0.688h0.615     V23.7h-0.615V25.373z"
   id="path3118" />
			<path
   d="M67.853,23.195v-0.43h0.106v0.43H67.853z M67.853,25.798v-2.183h0.106v2.183H67.853z"
   id="path3120" />
			<path
   d="M68.64,24.275c0.054-0.137,0.134-0.259,0.236-0.364c0.105-0.104,0.234-0.188,0.387-0.252     c0.152-0.064,0.329-0.095,0.529-0.095c0.197,0,0.374,0.031,0.526,0.095c0.153,0.064,0.279,0.147,0.385,0.252     c0.104,0.105,0.183,0.228,0.236,0.364c0.052,0.138,0.08,0.282,0.08,0.431c0,0.151-0.028,0.294-0.08,0.431     c-0.054,0.14-0.132,0.26-0.236,0.365c-0.105,0.104-0.231,0.188-0.385,0.249c-0.152,0.062-0.331,0.094-0.531,0.094     c-0.197,0-0.372-0.032-0.524-0.094c-0.152-0.061-0.281-0.145-0.387-0.249c-0.103-0.106-0.183-0.226-0.236-0.365     c-0.052-0.137-0.078-0.279-0.078-0.431C68.561,24.558,68.588,24.413,68.64,24.275z M68.738,25.106     c0.048,0.128,0.119,0.239,0.217,0.338c0.096,0.096,0.212,0.176,0.353,0.232c0.139,0.059,0.301,0.089,0.484,0.089     c0.181,0,0.341-0.03,0.481-0.089c0.139-0.056,0.258-0.136,0.354-0.232c0.095-0.099,0.166-0.21,0.214-0.338     c0.048-0.128,0.072-0.261,0.072-0.4c0-0.135-0.024-0.267-0.072-0.396c-0.048-0.127-0.119-0.239-0.214-0.336     c-0.096-0.099-0.215-0.176-0.354-0.236c-0.141-0.06-0.301-0.09-0.481-0.09c-0.184,0-0.346,0.03-0.484,0.09     c-0.141,0.06-0.257,0.138-0.353,0.236c-0.098,0.097-0.169,0.209-0.217,0.336c-0.045,0.129-0.072,0.261-0.072,0.396     C68.666,24.846,68.693,24.979,68.738,25.106z"
   id="path3122" />
			<path
   d="M71.726,23.615v0.54h0.01c0.024-0.086,0.064-0.163,0.119-0.234c0.056-0.071,0.124-0.134,0.208-0.187     c0.083-0.054,0.179-0.096,0.288-0.126c0.109-0.029,0.234-0.044,0.367-0.044c0.143,0,0.272,0.016,0.392,0.051     c0.119,0.033,0.219,0.084,0.307,0.15c0.086,0.066,0.153,0.15,0.201,0.247c0.05,0.098,0.071,0.209,0.071,0.337v1.448h-0.104     v-1.435c0-0.129-0.024-0.236-0.069-0.326c-0.046-0.088-0.109-0.162-0.189-0.221c-0.078-0.058-0.171-0.101-0.275-0.127     c-0.105-0.026-0.216-0.041-0.332-0.041c-0.162,0-0.306,0.024-0.429,0.075c-0.124,0.049-0.227,0.117-0.311,0.198     c-0.083,0.084-0.148,0.182-0.187,0.292c-0.044,0.11-0.065,0.226-0.065,0.349v1.235h-0.107v-2.183H71.726z"
   id="path3124" />
			<path
   d="M77.656,22.766c0.148,0,0.286,0.016,0.414,0.047c0.132,0.031,0.244,0.077,0.342,0.142     c0.098,0.063,0.175,0.144,0.229,0.236c0.055,0.093,0.082,0.204,0.082,0.331c0,0.091-0.02,0.177-0.06,0.26     c-0.041,0.08-0.099,0.153-0.167,0.216c-0.072,0.062-0.158,0.113-0.253,0.151c-0.099,0.038-0.205,0.06-0.322,0.066v0.008     c0.124,0.003,0.24,0.023,0.354,0.059c0.111,0.034,0.207,0.085,0.29,0.147c0.084,0.063,0.15,0.142,0.201,0.234     c0.05,0.093,0.074,0.195,0.074,0.312c0,0.135-0.031,0.257-0.095,0.358c-0.06,0.104-0.146,0.19-0.257,0.258     c-0.109,0.068-0.241,0.119-0.396,0.155c-0.152,0.034-0.32,0.053-0.501,0.053h-1.566v-3.032H77.656z M77.656,24.175     c0.126,0,0.248-0.013,0.362-0.04c0.117-0.025,0.217-0.066,0.305-0.122c0.091-0.056,0.16-0.125,0.213-0.207     c0.055-0.082,0.081-0.176,0.081-0.284c0-0.115-0.026-0.217-0.076-0.301c-0.047-0.081-0.117-0.152-0.203-0.207     c-0.088-0.056-0.188-0.097-0.305-0.124c-0.117-0.026-0.243-0.038-0.377-0.038h-1.523v1.323H77.656z M77.64,25.714     c0.157,0,0.301-0.016,0.431-0.046c0.134-0.029,0.249-0.075,0.346-0.136c0.099-0.06,0.175-0.136,0.232-0.229     c0.058-0.092,0.086-0.2,0.086-0.324c0-0.133-0.031-0.246-0.094-0.336c-0.062-0.091-0.145-0.165-0.245-0.22     c-0.101-0.058-0.214-0.099-0.344-0.124c-0.128-0.025-0.262-0.037-0.396-0.037h-1.523v1.452H77.64z"
   id="path3126" />
			<path
   d="M79.497,25.133c0.04,0.128,0.104,0.237,0.188,0.33c0.086,0.093,0.193,0.167,0.329,0.221     c0.134,0.053,0.298,0.081,0.493,0.081c0.286,0,0.524-0.062,0.714-0.182c0.19-0.12,0.307-0.3,0.351-0.541h0.108     c-0.041,0.255-0.164,0.452-0.378,0.593c-0.212,0.14-0.474,0.21-0.786,0.21c-0.212,0.004-0.393-0.024-0.543-0.08     c-0.151-0.058-0.275-0.138-0.37-0.241c-0.096-0.102-0.164-0.226-0.212-0.364c-0.045-0.141-0.069-0.292-0.069-0.453     c0-0.181,0.033-0.342,0.101-0.484c0.068-0.141,0.156-0.261,0.267-0.359c0.109-0.097,0.235-0.171,0.381-0.223     c0.146-0.05,0.294-0.075,0.446-0.075c0.212,0,0.396,0.032,0.549,0.098c0.155,0.065,0.281,0.152,0.377,0.259     c0.097,0.107,0.169,0.23,0.214,0.37c0.043,0.139,0.062,0.283,0.056,0.433H79.43C79.433,24.87,79.454,25.008,79.497,25.133z      M81.538,24.258c-0.047-0.119-0.114-0.226-0.205-0.316c-0.091-0.091-0.202-0.161-0.336-0.215     c-0.136-0.052-0.291-0.078-0.467-0.078c-0.148,0-0.29,0.023-0.418,0.068c-0.131,0.044-0.242,0.111-0.341,0.199     c-0.099,0.085-0.175,0.188-0.234,0.31c-0.062,0.123-0.097,0.26-0.107,0.413h2.178C81.607,24.506,81.584,24.38,81.538,24.258z"
   id="path3128" />
			<path
   d="M82.499,25.373c0,0.083,0.01,0.147,0.034,0.192c0.022,0.045,0.052,0.079,0.085,0.102c0.039,0.023,0.076,0.035,0.119,0.04     c0.041,0.004,0.084,0.007,0.127,0.007c0.052,0,0.102-0.001,0.143-0.003c0.043-0.002,0.072-0.005,0.091-0.011v0.085     c-0.031,0.004-0.065,0.006-0.093,0.009c-0.031,0.002-0.086,0.004-0.167,0.004c-0.123,0-0.229-0.028-0.316-0.087     c-0.087-0.059-0.13-0.164-0.13-0.321V23.7h-0.5v-0.085h0.5v-0.688h0.107v0.688h0.615V23.7h-0.615V25.373z"
   id="path3130" />
			<path
   d="M83.682,24.004c0.049-0.088,0.112-0.168,0.201-0.231c0.085-0.064,0.193-0.117,0.319-0.152     c0.123-0.038,0.271-0.056,0.443-0.056c0.119,0,0.233,0.01,0.341,0.029c0.107,0.021,0.203,0.054,0.283,0.104     c0.082,0.05,0.149,0.114,0.199,0.194c0.047,0.078,0.074,0.178,0.078,0.297v1.388c0,0.044,0.012,0.075,0.031,0.095     c0.021,0.019,0.05,0.032,0.086,0.04c0.035,0.007,0.074,0.009,0.113,0.008c0.041-0.001,0.08-0.002,0.115-0.005v0.084h-0.16     c-0.078,0-0.145-0.014-0.204-0.044c-0.058-0.029-0.086-0.086-0.086-0.169v-0.283H85.43c-0.028,0.07-0.074,0.139-0.136,0.203     c-0.062,0.065-0.138,0.124-0.234,0.173c-0.093,0.053-0.199,0.093-0.318,0.123c-0.122,0.028-0.253,0.044-0.393,0.044     c-0.277,0-0.499-0.05-0.666-0.146c-0.167-0.099-0.247-0.245-0.247-0.439c0-0.136,0.028-0.245,0.08-0.326     c0.056-0.084,0.13-0.146,0.218-0.194c0.089-0.046,0.188-0.079,0.303-0.098c0.111-0.018,0.226-0.03,0.339-0.036     c0.187-0.009,0.348-0.016,0.483-0.022c0.134-0.007,0.243-0.022,0.332-0.044c0.086-0.021,0.149-0.053,0.19-0.097     c0.04-0.044,0.062-0.107,0.062-0.19c0-0.063-0.008-0.132-0.024-0.203c-0.012-0.07-0.048-0.137-0.103-0.194     c-0.055-0.06-0.133-0.109-0.241-0.146c-0.107-0.039-0.25-0.059-0.429-0.059c-0.289,0-0.51,0.057-0.67,0.168     c-0.16,0.112-0.249,0.269-0.265,0.475h-0.107C83.611,24.188,83.637,24.094,83.682,24.004z M85.43,24.516     c-0.035,0.039-0.091,0.069-0.164,0.092c-0.074,0.02-0.16,0.036-0.256,0.048c-0.095,0.013-0.197,0.018-0.31,0.021     c-0.112,0.004-0.219,0.009-0.326,0.013c-0.105,0.007-0.211,0.018-0.311,0.033c-0.103,0.016-0.19,0.043-0.27,0.084     c-0.076,0.041-0.138,0.099-0.187,0.171c-0.045,0.072-0.068,0.166-0.068,0.282c0,0.062,0.015,0.123,0.04,0.185     c0.026,0.061,0.071,0.113,0.137,0.161c0.064,0.047,0.145,0.084,0.245,0.113c0.103,0.03,0.227,0.046,0.377,0.046     c0.177,0,0.333-0.024,0.471-0.073c0.14-0.048,0.255-0.11,0.348-0.189c0.093-0.077,0.164-0.167,0.214-0.268     c0.045-0.103,0.072-0.208,0.072-0.316v-0.402H85.43z"
   id="path3132" />
		</g>
		<g
   id="g3134">
			<path
   d="M1.607,2.353v26.043h26.046V2.353H1.607z M24.519,25.262h-4.371l0.703,2.34l-5.709-2.34H4.743V5.488h19.775V25.262z"
   id="path3136" />
			<path
   fill="#00B2C0"
   d="M7.633,8.375v13.823H20.06h1.397v-1.686V8.375H7.633z M18.576,18.875h-7.82v-3.594h7.82V18.875z      M9.233,14.635l2.614-1.396v-0.847h0.826v0.407l1.728-0.923l5.697,2.76H9.233z"
   id="path3138" />
		</g>
	</g>
</g>
<g
   id="Grid"
   display="none">
	<g
   display="inline"
   opacity="0.3"
   id="g3141">
		
			<rect
   x="1.51"
   y="-26.859"
   fill="none"
   stroke="#00AEEF"
   stroke-width="0.15"
   stroke-miterlimit="10"
   width="84.48"
   height="84.48"
   id="rect3143" />
		
			<rect
   x="30.703"
   y="2.333"
   fill="none"
   stroke="#00AEEF"
   stroke-width="0.15"
   stroke-miterlimit="10"
   width="26.094"
   height="26.095"
   id="rect3145" />
		
			<rect
   x="13.883"
   y="-14.486"
   fill="none"
   stroke="#00AEEF"
   stroke-width="0.15"
   stroke-miterlimit="10"
   width="59.733"
   height="59.733"
   id="rect3147" />
		<circle
   fill="none"
   stroke="#00AEEF"
   stroke-width="0.15"
   stroke-miterlimit="10"
   cx="43.75"
   cy="15.381"
   r="42.256"
   id="circle3149" />
		<line
   fill="none"
   stroke="#00AEEF"
   stroke-width="0.15"
   stroke-miterlimit="10"
   x1="1.51"
   y1="-26.859"
   x2="85.821"
   y2="57.399"
   id="line3151" />
		
			<line
   fill="none"
   stroke="#00AEEF"
   stroke-width="0.15"
   stroke-miterlimit="10"
   x1="85.795"
   y1="-26.887"
   x2="1.538"
   y2="57.426"
   id="line3153" />
		<line
   fill="none"
   stroke="#00AEEF"
   stroke-width="0.15"
   stroke-miterlimit="10"
   x1="43.75"
   y1="-26.859"
   x2="43.75"
   y2="57.621"
   id="line3155" />
		<line
   fill="none"
   stroke="#00AEEF"
   stroke-width="0.15"
   stroke-miterlimit="10"
   x1="85.99"
   y1="15.381"
   x2="1.51"
   y2="15.381"
   id="line3157" />
	</g>
</g>
</svg>