<?xml version="1.0" encoding="UTF-8" standalone="no"?>
<!-- Created with Inkscape (http://www.inkscape.org/) -->

<svg
   xmlns:dc="http://purl.org/dc/elements/1.1/"
   xmlns:cc="http://creativecommons.org/ns#"
   xmlns:rdf="http://www.w3.org/1999/02/22-rdf-syntax-ns#"
   xmlns:svg="http://www.w3.org/2000/svg"
   xmlns="http://www.w3.org/2000/svg"
   xmlns:inkscape="http://www.inkscape.org/namespaces/inkscape"
   version="1.1"
   width="88.625"
   height="82.987503"
   id="svg2"
   xml:space="preserve"><metadata
     id="metadata8"><rdf:RDF><cc:Work
         rdf:about=""><dc:format>image/svg+xml</dc:format><dc:type
           rdf:resource="http://purl.org/dc/dcmitype/StillImage" /></cc:Work></rdf:RDF></metadata><defs
     id="defs6"><clipPath
       id="clipPath18"><path
         d="M 0,663.883 0,0 l 709,0 0,663.883 -709,0 z"
         inkscape:connector-curvature="0"
         id="path20" /></clipPath></defs><g
     transform="matrix(1.25,0,0,-1.25,0,82.9875)"
     id="g10"><g
       transform="scale(0.1,0.1)"
       id="g12"><g
         id="g14"><g
           clip-path="url(#clipPath18)"
           id="g16"><path
             d="m 129.957,485.488 86.074,0 244.453,65.813 -105.996,58.832 -224.531,-124.645"
             inkscape:connector-curvature="0"
             id="path22"
             style="fill:#43b0ba;fill-opacity:1;fill-rule:nonzero;stroke:none" /><path
             d="m 178.57,226.328 -21.562,5.078 -3.625,2.891 -27.481,0 -25.293,41.973 -12.1949,9.707 -17.6563,39.859 -20.0898,33.336 0,-265.5392 127.902,132.6952"
             inkscape:connector-curvature="0"
             id="path24"
             style="fill:#43b0ba;fill-opacity:1;fill-rule:nonzero;stroke:none" /><path
             d="M 465.023,221.133 239.898,216.914 79.6523,50.6836 l 549.6797,0 -164.309,170.4494"
             inkscape:connector-curvature="0"
             id="path26"
             style="fill:#43b0ba;fill-opacity:1;fill-rule:nonzero;stroke:none" /><path
             d="m 580.562,234.297 -26.582,0 -14.199,-11.77 -5.617,-0.105 124.152,-128.7892 0,264.2152 -77.754,-123.551"
             inkscape:connector-curvature="0"
             id="path28"
             style="fill:#43b0ba;fill-opacity:1;fill-rule:nonzero;stroke:none" /><path
             d="m 216.031,485.488 -86.074,0 224.531,124.645 105.996,-58.832 -244.453,-65.813 z m 424.063,-51.172 -62.199,-106.152 -449.383,0 L 81.5,406.211 609,548.223 640.094,434.316 z m -105.93,-211.894 5.617,0.105 14.199,11.77 26.582,0 77.754,123.551 0,-264.2152 -124.152,128.7892 z m -294.266,-5.508 225.125,4.219 164.309,-170.4494 -549.6797,0 160.2457,166.2304 z m -169.1402,108.922 17.6563,-39.859 12.1949,-9.707 25.293,-41.973 27.481,0 3.625,-2.891 21.562,-5.078 -127.902,-132.6952 0,265.5392 20.0898,-33.336 z m 612.8592,159.652 -0.195,0 -16.746,9.297 -28.496,104.352 -107.395,-28.91 -156.433,86.835 c -5.051,3.282 -12.395,6.821 -20.579,6.821 -8.984,0 -16.121,-4.141 -20.468,-7.555 l -307.7425,-170.84 -0.1953,0 c -14.0156,0 -25.37110625,-12.66 -25.37110625,-28.277 l 0,-428.9298 C -0.00390625,12.6562 11.3516,0 25.3672,0 L 683.617,0 c 14.016,0 25.371,12.6562 25.371,28.2812 l 0,428.9298 c 0,15.617 -11.355,28.277 -25.371,28.277"
             inkscape:connector-curvature="0"
             id="path30"
             style="fill:#1f515b;fill-opacity:1;fill-rule:nonzero;stroke:none" /><path
             d="M 609,548.223 81.5,406.211 l 47.012,-78.047 449.383,0 62.199,106.152 L 609,548.223"
             inkscape:connector-curvature="0"
             id="path32"
             style="fill:#43b0ba;fill-opacity:1;fill-rule:nonzero;stroke:none" /></g></g></g></g></svg>