<?xml version="1.0" encoding="UTF-8" standalone="no"?>
<!-- Created with Inkscape (http://www.inkscape.org/) -->

<svg
   xmlns:dc="http://purl.org/dc/elements/1.1/"
   xmlns:cc="http://creativecommons.org/ns#"
   xmlns:rdf="http://www.w3.org/1999/02/22-rdf-syntax-ns#"
   xmlns:svg="http://www.w3.org/2000/svg"
   xmlns="http://www.w3.org/2000/svg"
   xmlns:inkscape="http://www.inkscape.org/namespaces/inkscape"
   version="1.1"
   width="81.199997"
   height="84.862503"
   id="svg2"
   xml:space="preserve"><metadata
     id="metadata8"><rdf:RDF><cc:Work
         rdf:about=""><dc:format>image/svg+xml</dc:format><dc:type
           rdf:resource="http://purl.org/dc/dcmitype/StillImage" /></cc:Work></rdf:RDF></metadata><defs
     id="defs6"><clipPath
       id="clipPath18"><path
         d="M 0,678.879 0,0 l 649.648,0 0,678.879 -649.648,0 z"
         inkscape:connector-curvature="0"
         id="path20" /></clipPath></defs><g
     transform="matrix(1.25,0,0,-1.25,0,84.8625)"
     id="g10"><g
       transform="scale(0.1,0.1)"
       id="g12"><g
         id="g14"><g
           clip-path="url(#clipPath18)"
           id="g16"><path
             d="m 110.121,578.574 0,-375.742 24.621,-14.766 c 36.465,-21.855 75.274,-32.48 118.641,-32.48 49.601,0 96.09,13.926 141.031,27.422 39.707,11.894 77.207,23.144 111.934,23.144 24.863,0 45.996,-5.742 66.562,-18.086 l 76.738,-46.015 0,375.765 -24.628,14.758 c -36.465,21.867 -75.274,32.5 -118.633,32.5 l -0.02,0 c -49.59,-0.008 -96.074,-13.941 -141.035,-27.418 -39.703,-11.902 -77.203,-23.144 -111.937,-23.144 -24.844,0 -45.989,5.738 -66.543,18.066 l -76.731,45.996 0,0 z m 396.246,-64.176 c 30.879,0 61.738,-6.769 92.598,-25.281 0,-85.859 0,-171.734 0,-257.594 -30.86,18.516 -61.738,25.293 -92.598,25.293 -84.336,0.008 -168.648,-50.566 -252.984,-50.566 -30.86,0 -61.727,6.777 -92.586,25.273 0,85.86 0,171.735 0,257.594 30.859,-18.508 61.726,-25.277 92.598,-25.277 84.324,0 168.656,50.555 252.972,50.558"
             inkscape:connector-curvature="0"
             id="path22"
             style="fill:#f0531d;fill-opacity:1;fill-rule:nonzero;stroke:none" /><path
             d="M 62.4766,590.406 62.4766,0"
             inkscape:connector-curvature="0"
             id="path24"
             style="fill:#f0531d;fill-opacity:1;fill-rule:nonzero;stroke:none" /><path
             d="M 62.4766,590.406 62.4766,0"
             inkscape:connector-curvature="0"
             id="path26"
             style="fill:none;stroke:#f0531d;stroke-width:50.67229843;stroke-linecap:butt;stroke-linejoin:miter;stroke-miterlimit:10;stroke-opacity:1;stroke-dasharray:none" /><path
             d="m 99.6133,616.41 c 0,-20.508 -16.6289,-37.129 -37.1367,-37.129 -20.5196,0 -37.1407,16.621 -37.1407,37.129 0,20.508 16.6211,37.129 37.1407,37.129 20.5078,0 37.1367,-16.621 37.1367,-37.129"
             inkscape:connector-curvature="0"
             id="path28"
             style="fill:#f57b26;fill-opacity:1;fill-rule:nonzero;stroke:none" /><path
             d="m 99.6133,616.41 c 0,-20.508 -16.6289,-37.129 -37.1367,-37.129 -20.5196,0 -37.1407,16.621 -37.1407,37.129 0,20.508 16.6211,37.129 37.1407,37.129 20.5078,0 37.1367,-16.621 37.1367,-37.129 z"
             inkscape:connector-curvature="0"
             id="path30"
             style="fill:none;stroke:#f0531d;stroke-width:50.67229843;stroke-linecap:butt;stroke-linejoin:miter;stroke-miterlimit:10;stroke-opacity:1;stroke-dasharray:none" /></g></g></g></g></svg>