<?xml version="1.0" encoding="UTF-8" standalone="no"?>
<!-- Created with Inkscape (http://www.inkscape.org/) -->

<svg
   xmlns:dc="http://purl.org/dc/elements/1.1/"
   xmlns:cc="http://creativecommons.org/ns#"
   xmlns:rdf="http://www.w3.org/1999/02/22-rdf-syntax-ns#"
   xmlns:svg="http://www.w3.org/2000/svg"
   xmlns="http://www.w3.org/2000/svg"
   xmlns:sodipodi="http://sodipodi.sourceforge.net/DTD/sodipodi-0.dtd"
   xmlns:inkscape="http://www.inkscape.org/namespaces/inkscape"
   id="svg2"
   version="1.1"
   inkscape:version="0.48.4 r9939"
   width="100.75"
   height="82.9875"
   xml:space="preserve"
   sodipodi:docname="report icon-sent-cs2.eps"><metadata
     id="metadata8"><rdf:RDF><cc:Work
         rdf:about=""><dc:format>image/svg+xml</dc:format><dc:type
           rdf:resource="http://purl.org/dc/dcmitype/StillImage" /><dc:title></dc:title></cc:Work></rdf:RDF></metadata><defs
     id="defs6" /><sodipodi:namedview
     pagecolor="#ffffff"
     bordercolor="#666666"
     borderopacity="1"
     objecttolerance="10"
     gridtolerance="10"
     guidetolerance="10"
     inkscape:pageopacity="0"
     inkscape:pageshadow="2"
     inkscape:window-width="640"
     inkscape:window-height="480"
     id="namedview4"
     showgrid="false"
     inkscape:zoom="2.8438017"
     inkscape:cx="50.375"
     inkscape:cy="41.493752"
     inkscape:window-x="65"
     inkscape:window-y="24"
     inkscape:window-maximized="0"
     inkscape:current-layer="g10" /><g
     id="g10"
     inkscape:groupmode="layer"
     inkscape:label="ink_ext_XXXXXX"
     transform="matrix(1.25,0,0,-1.25,0,82.9875)"><g
       id="g12"
       transform="scale(0.1,0.1)"><path
         d="m 216.047,485.492 -86.086,0 224.543,124.645 105.992,-58.832 -244.449,-65.813 z m 424.051,-51.172 -62.2,-106.152 -449.382,0 L 81.5039,406.215 609.004,548.227 640.098,434.32 z M 534.18,222.422 l 5.617,0.117 14.187,11.758 26.575,0 77.761,123.555 0,-264.2192 -124.14,128.7892 z m -294.278,-5.508 225.125,4.219 164.309,-170.4494 -549.668,0 160.234,166.2304 z M 70.7617,325.84 l 17.6485,-39.863 12.2148,-9.707 25.281,-41.973 27.485,0 3.629,-2.891 21.554,-5.078 -127.8904,-132.6952 0,265.5432 20.0781,-33.336 z m 612.8713,159.652 -0.195,0 -16.758,9.297 -28.489,104.352 -107.39,-28.911 -156.438,86.836 c -5.047,3.282 -12.39,6.821 -20.574,6.821 -8.992,0 -16.133,-4.141 -20.469,-7.555 l -307.7536,-170.84 -0.1953,0 C 11.3672,485.492 0,472.832 0,457.219 L 0,28.2813 C 0,12.6563 11.3672,0 25.3711,0 L 683.633,0 c 14.004,0 25.371,12.6563 25.371,28.2813 l 0,428.9377 c 0,15.613 -11.367,28.273 -25.371,28.273"
         style="fill:#43b0ba;fill-opacity:1;fill-rule:nonzero;stroke:none"
         id="path14" /><path
         d="m 806.047,369.063 c 0,-77.95 -63.176,-141.133 -141.137,-141.133 -77.937,0 -141.133,63.183 -141.133,141.133 0,77.945 63.196,141.132 141.133,141.132 77.961,0 141.137,-63.187 141.137,-141.132"
         style="fill:#318591;fill-opacity:1;fill-rule:nonzero;stroke:none"
         id="path16" /><path
         d="m 639.602,275.195 c 4.793,0 9.597,1.836 13.281,5.508 l 88.355,88.36 -88.379,88.363 c -7.324,7.336 -19.214,7.336 -26.543,0 -7.332,-7.332 -7.332,-19.211 0,-26.543 l 61.821,-61.82 -61.821,-61.821 c -7.332,-7.332 -7.332,-19.215 0,-26.539 3.672,-3.672 8.481,-5.508 13.286,-5.508"
         style="fill:#ffffff;fill-opacity:1;fill-rule:nonzero;stroke:none"
         id="path18" /></g></g></svg>