<?xml version="1.0" encoding="UTF-8" standalone="no"?>
<!-- Created with Inkscape (http://www.inkscape.org/) -->

<svg
   xmlns:dc="http://purl.org/dc/elements/1.1/"
   xmlns:cc="http://creativecommons.org/ns#"
   xmlns:rdf="http://www.w3.org/1999/02/22-rdf-syntax-ns#"
   xmlns:svg="http://www.w3.org/2000/svg"
   xmlns="http://www.w3.org/2000/svg"
   xmlns:sodipodi="http://sodipodi.sourceforge.net/DTD/sodipodi-0.dtd"
   xmlns:inkscape="http://www.inkscape.org/namespaces/inkscape"
   id="svg2"
   version="1.1"
   inkscape:version="0.48.4 r9939"
   width="92.6625"
   height="28.7875"
   xml:space="preserve"
   sodipodi:docname="QRIDit_Homewatch [LOGO].eps"><metadata
     id="metadata8"><rdf:RDF><cc:Work
         rdf:about=""><dc:format>image/svg+xml</dc:format><dc:type
           rdf:resource="http://purl.org/dc/dcmitype/StillImage" /><dc:title></dc:title></cc:Work></rdf:RDF></metadata><defs
     id="defs6" /><sodipodi:namedview
     pagecolor="#ffffff"
     bordercolor="#666666"
     borderopacity="1"
     objecttolerance="10"
     gridtolerance="10"
     guidetolerance="10"
     inkscape:pageopacity="0"
     inkscape:pageshadow="2"
     inkscape:window-width="640"
     inkscape:window-height="480"
     id="namedview4"
     showgrid="false"
     inkscape:zoom="4.2627817"
     inkscape:cx="46.331249"
     inkscape:cy="14.39375"
     inkscape:window-x="65"
     inkscape:window-y="24"
     inkscape:window-maximized="0"
     inkscape:current-layer="g10" /><g
     id="g10"
     inkscape:groupmode="layer"
     inkscape:label="ink_ext_XXXXXX"
     transform="matrix(1.25,0,0,-1.25,0,28.7875)"><g
       id="g12"
       transform="scale(0.1,0.1)"><path
         d="m 349.336,99.8242 c 2.426,2.6168 4.363,5.8598 5.809,9.7458 1.449,3.879 2.183,8.586 2.183,14.102 0,4.562 -0.629,8.965 -1.906,13.223 -1.277,4.277 -3.305,8.066 -6.086,11.425 -2.793,3.34 -6.43,6.008 -10.898,7.989 -4.493,1.992 -9.946,2.988 -16.368,2.988 -6.422,0 -11.871,-0.996 -16.351,-2.988 -4.489,-1.981 -8.125,-4.649 -10.91,-7.989 -2.789,-3.359 -4.821,-7.148 -6.086,-11.425 -1.274,-4.258 -1.91,-8.661 -1.91,-13.223 0,-4.363 0.636,-8.602 1.91,-12.734 1.265,-4.11 3.297,-7.813 6.086,-11.1138 2.785,-3.3008 6.421,-5.9453 10.91,-7.9179 4.48,-1.9922 9.929,-2.9805 16.351,-2.9805 2.055,0 4.239,0.039 6.539,0.1367 2.309,0.0977 3.946,0.5391 4.911,1.3203 l -12.176,8.8672 13.265,11.336 14.727,-10.7618 z m 4.176,-23.9844 c -8.614,-3.9726 -19.082,-5.957 -31.442,-5.957 -9.929,0 -18.871,1.3672 -26.804,4.1406 -7.938,2.7657 -14.629,6.5625 -20.078,11.4063 -5.458,4.8555 -9.637,10.5469 -12.547,17.0823 -2.907,6.551 -4.36,13.593 -4.36,21.16 0,7.754 1.453,14.953 4.36,21.582 2.91,6.652 7.089,12.434 12.547,17.383 5.449,4.941 12.14,8.808 20.078,11.633 7.933,2.812 16.875,4.207 26.804,4.207 10.059,0 19.024,-1.395 26.899,-4.207 7.879,-2.825 14.539,-6.692 19.992,-11.633 5.449,-4.949 9.625,-10.731 12.543,-17.383 2.898,-6.629 4.355,-13.828 4.355,-21.582 0,-7.567 -1.457,-14.59 -4.355,-21.082 -2.918,-6.4962 -7.094,-12.2072 -12.543,-17.1603 L 385.133,73.6523 371.859,62.6094 353.512,75.8398"
         style="fill:#231f20;fill-opacity:1;fill-rule:nonzero;stroke:none"
         id="path14" /><path
         d="m 448.02,129.055 c 6.543,0 11.433,1.16 14.722,3.476 3.266,2.344 4.895,6.121 4.895,11.348 0,5.039 -1.629,8.699 -4.895,10.976 -3.289,2.274 -8.179,3.418 -14.722,3.418 l -31.274,0 0,-29.218 31.274,0 z m 10.164,46.961 c 5.82,0 11.074,-0.762 15.734,-2.254 4.656,-1.516 8.641,-3.567 11.98,-6.184 3.332,-2.617 5.879,-5.652 7.649,-9.09 1.758,-3.437 2.637,-7.148 2.637,-11.125 0,-6.101 -1.621,-11.386 -4.829,-15.84 -3.203,-4.46 -8.457,-7.851 -15.73,-10.175 l 0,-0.293 c 3.523,-0.77 6.426,-1.961 8.73,-3.555 2.293,-1.602 4.2,-3.496 5.625,-5.672 1.458,-2.187 2.54,-4.582 3.184,-7.207 0.684,-2.609 1.121,-5.2265 1.379,-7.8515 0.125,-1.6406 0.23,-3.5859 0.359,-5.8203 0.118,-2.2265 0.332,-4.4922 0.625,-6.8164 0.325,-2.3359 0.801,-4.543 1.453,-6.6133 0.676,-2.0898 1.672,-3.8672 3.02,-5.3203 l -28.555,0 c -1.55,3.2891 -2.527,7.2266 -2.882,11.7852 -0.379,4.5508 -0.926,8.9179 -1.649,13.0781 -0.969,5.4295 -3.019,9.3945 -6.184,11.9215 -3.152,2.52 -8.296,3.789 -15.425,3.789 l -28.559,0 0,-40.5738 -28.523,0 0,103.8168 69.961,0"
         style="fill:#231f20;fill-opacity:1;fill-rule:nonzero;stroke:none"
         id="path16" /><path
         d="m 501.621,72.1992 28.5352,0 0,103.816 -28.5352,0 0,-103.816 z"
         style="fill:#231f20;fill-opacity:1;fill-rule:nonzero;stroke:none"
         id="path18" /><path
         d="m 591.582,91.3867 c 4.109,0 8.113,0.5469 12.004,1.6133 3.855,1.0625 7.312,2.832 10.352,5.3125 3.035,2.4605 5.457,5.6835 7.273,9.6565 1.816,3.976 2.727,8.82 2.727,14.543 0,5.234 -0.637,9.961 -1.907,14.179 -1.289,4.219 -3.371,7.821 -6.277,10.829 -2.91,3 -6.75,5.312 -11.535,6.906 -4.793,1.601 -10.696,2.402 -17.715,2.402 l -20.371,0 0,-65.4413 25.449,0 z m 2.004,84.6293 c 8.348,0 16.133,-1.063 23.348,-3.203 7.207,-2.129 13.449,-5.333 18.718,-9.598 5.278,-4.27 9.387,-9.59 12.356,-15.988 2.976,-6.395 4.453,-13.914 4.453,-22.539 0,-7.559 -1.199,-14.54 -3.621,-20.938 -2.434,-6.3867 -6.098,-11.9141 -11.008,-16.5625 -4.894,-4.668 -11.035,-8.3203 -18.352,-10.9844 -7.339,-2.6758 -15.964,-4.0039 -25.894,-4.0039 l -55.988,0 0,103.8168 55.988,0"
         style="fill:#231f20;fill-opacity:1;fill-rule:nonzero;stroke:none"
         id="path20" /><path
         d="m 682.637,147.363 0,-75.1638 -25.813,0 0,75.1638 25.813,0 z m -25.813,11.633 0,17.02 25.813,0 0,-17.02 -25.813,0"
         style="fill:#231f20;fill-opacity:1;fill-rule:nonzero;stroke:none"
         id="path22" /><path
         d="m 741.328,147.363 0,-13.797 -18.894,0 0,-37.2262 c 0,-3.496 0.73,-5.8203 2.168,-6.9843 1.453,-1.1602 4.363,-1.7383 8.726,-1.7383 1.457,0 2.856,0.0391 4.199,0.1367 1.328,0.0977 2.59,0.2539 3.801,0.4414 l 0,-15.9961 c -2.18,-0.2851 -4.598,-0.4687 -7.258,-0.5781 -2.675,-0.0977 -5.269,-0.1445 -7.82,-0.1445 -3.984,0 -7.781,0.2226 -11.367,0.6523 -3.567,0.4297 -6.707,1.2891 -9.453,2.5508 -2.715,1.2578 -4.864,3.0469 -6.446,5.3789 -1.562,2.3242 -2.363,5.3711 -2.363,9.1602 l 0,44.3472 -15.625,0 0,13.797 15.625,0 0,22.539 25.813,0 0,-22.539 18.894,0"
         style="fill:#231f20;fill-opacity:1;fill-rule:nonzero;stroke:none"
         id="path24" /><path
         d="m 202.605,27.7266 -38.652,0 6.211,-20.69535 -50.48,20.69535 -91.9535,0 0,174.8634 174.8745,0 0,-174.8634 z M 0,230.313 0,0 l 230.332,0 0,230.313 -230.332,0"
         style="fill:#231f20;fill-opacity:1;fill-rule:nonzero;stroke:none"
         id="path26" /><path
         d="m 67.4375,121.699 23.1172,12.344 0,7.492 7.3008,0 0,-3.594 15.2855,8.164 50.379,-24.406 -96.0825,0 z m 82.6175,-37.4881 -69.1527,0 0,31.7771 69.1527,0 0,-31.7771 z m -96.7698,92.8521 0,-122.2466 122.2498,0 0,122.2466 -122.2498,0"
         style="fill:#21b6c1;fill-opacity:1;fill-rule:nonzero;stroke:none"
         id="path28" /><path
         d="m 330.863,16.3594 0,28.7969 2.723,0 0,-12.3516 17.039,0 0,12.3516 2.719,0 0,-28.7969 -2.719,0 0,14.1211 -17.039,0 0,-14.1211 -2.723,0"
         style="fill:#231f20;fill-opacity:1;fill-rule:nonzero;stroke:none"
         id="path30" /><path
         d="m 374.703,26.7188 c 0,1.2226 -0.133,2.375 -0.402,3.4375 -0.262,1.0664 -0.68,1.9921 -1.238,2.7851 -0.559,0.7813 -1.282,1.4063 -2.161,1.8555 -0.879,0.4492 -1.957,0.6836 -3.242,0.6836 -1.25,0 -2.324,-0.2539 -3.219,-0.7422 -0.89,-0.4883 -1.621,-1.1524 -2.179,-1.9531 -0.559,-0.8204 -0.973,-1.7579 -1.239,-2.8125 -0.265,-1.0469 -0.398,-2.1289 -0.398,-3.2539 0,-1.2774 0.152,-2.461 0.461,-3.543 0.305,-1.0742 0.75,-2.0039 1.336,-2.7735 0.586,-0.7812 1.324,-1.3789 2.203,-1.7968 0.879,-0.4297 1.891,-0.6446 3.035,-0.6446 1.258,0 2.328,0.2422 3.223,0.7422 0.894,0.4883 1.621,1.1524 2.18,1.9727 0.558,0.8281 0.976,1.7578 1.238,2.8008 0.269,1.0468 0.402,2.1211 0.402,3.2422 z M 367.66,15.793 c -1.332,0.039 -2.578,0.2734 -3.738,0.7226 -1.156,0.4571 -2.176,1.1328 -3.039,2.0508 -0.867,0.8984 -1.551,2.0313 -2.059,3.3984 -0.508,1.3477 -0.761,2.9375 -0.761,4.754 0,1.5156 0.199,2.9414 0.597,4.2578 0.403,1.3203 1.004,2.4726 1.805,3.4687 0.801,0.9766 1.797,1.7578 2.996,2.332 1.203,0.5782 2.602,0.8594 4.199,0.8594 1.625,0 3.043,-0.2812 4.242,-0.8594 1.2,-0.5742 2.2,-1.3476 3,-2.3125 0.801,-0.9765 1.391,-2.1289 1.782,-3.4687 0.386,-1.3359 0.578,-2.7617 0.578,-4.2773 0,-1.6485 -0.227,-3.1524 -0.68,-4.4805 -0.453,-1.3281 -1.098,-2.4805 -1.937,-3.4375 -0.84,-0.957 -1.856,-1.6992 -3.043,-2.2266 -1.188,-0.5078 -2.5,-0.7812 -3.942,-0.7812"
         style="fill:#231f20;fill-opacity:1;fill-rule:nonzero;stroke:none"
         id="path32" /><path
         d="m 383.746,16.3594 -2.402,0 0,20.7226 2.402,0 0,-3.125 0.078,0 c 0.614,1.1993 1.496,2.1094 2.641,2.7422 1.152,0.625 2.402,0.9375 3.762,0.9375 0.964,0 1.777,-0.1054 2.441,-0.3203 0.66,-0.2148 1.227,-0.5 1.695,-0.8594 0.473,-0.3515 0.864,-0.7812 1.164,-1.2617 0.301,-0.4765 0.567,-0.9961 0.782,-1.5508 0.695,1.3477 1.621,2.3633 2.773,3.0078 1.16,0.6641 2.488,0.9844 3.984,0.9844 1.414,0 2.539,-0.2344 3.379,-0.6914 0.84,-0.4687 1.485,-1.0859 1.946,-1.8476 0.449,-0.7618 0.75,-1.6289 0.894,-2.625 0.149,-0.9766 0.219,-1.9922 0.219,-3.0274 l 0,-13.0859 -2.395,0 0,14.3164 c 0,1.5039 -0.312,2.6758 -0.949,3.5234 -0.625,0.8516 -1.785,1.2813 -3.492,1.2813 -0.883,0 -1.73,-0.1953 -2.539,-0.586 -0.813,-0.3828 -1.524,-0.9765 -2.141,-1.7773 -0.261,-0.3516 -0.488,-0.7539 -0.664,-1.2109 -0.176,-0.4688 -0.312,-0.9571 -0.422,-1.4649 -0.105,-0.5078 -0.172,-1.0156 -0.214,-1.5234 -0.04,-0.5078 -0.055,-0.9766 -0.055,-1.3985 l 0,-11.1601 -2.403,0 0,14.3164 c 0,1.5039 -0.312,2.6758 -0.937,3.5234 -0.637,0.8516 -1.801,1.2813 -3.508,1.2813 -0.879,0 -1.726,-0.1953 -2.539,-0.586 -0.808,-0.3828 -1.523,-0.9765 -2.144,-1.7773 -0.262,-0.3516 -0.485,-0.7539 -0.661,-1.2109 -0.168,-0.4688 -0.308,-0.9571 -0.418,-1.4649 -0.105,-0.5078 -0.179,-1.0156 -0.218,-1.5234 -0.039,-0.5078 -0.059,-0.9766 -0.059,-1.3985 l 0,-11.1601"
         style="fill:#231f20;fill-opacity:1;fill-rule:nonzero;stroke:none"
         id="path34" /><path
         d="m 429.988,28.1563 c 0,1.0156 -0.144,1.9726 -0.418,2.8593 -0.285,0.8907 -0.691,1.6719 -1.242,2.3242 -0.547,0.6563 -1.238,1.1719 -2.058,1.5547 -0.832,0.3907 -1.778,0.586 -2.84,0.586 -1.067,0 -2.012,-0.1953 -2.825,-0.6055 -0.808,-0.3906 -1.503,-0.9297 -2.082,-1.6016 -0.574,-0.664 -1.035,-1.4375 -1.375,-2.3164 -0.351,-0.8789 -0.578,-1.8047 -0.683,-2.8007 l 13.523,0 z m -13.523,-1.9922 c 0,-1.125 0.144,-2.1875 0.437,-3.1836 0.293,-0.9961 0.735,-1.875 1.301,-2.5977 0.574,-0.7422 1.309,-1.3281 2.188,-1.7578 0.879,-0.4492 1.882,-0.6641 3.039,-0.6641 1.57,0 2.918,0.4102 4.043,1.2383 1.113,0.8321 1.863,2.0039 2.234,3.5274 l 2.676,0 c -0.293,-0.9961 -0.672,-1.9141 -1.153,-2.7539 -0.488,-0.8399 -1.085,-1.5625 -1.804,-2.1875 -0.715,-0.6368 -1.574,-1.1133 -2.563,-1.4649 -0.984,-0.3515 -2.129,-0.5273 -3.433,-0.5273 -1.653,0 -3.078,0.2929 -4.282,0.8398 -1.199,0.5664 -2.183,1.3281 -2.957,2.3047 -0.781,0.9766 -1.347,2.1289 -1.726,3.4375 -0.371,1.3281 -0.559,2.7422 -0.559,4.2578 0,1.5235 0.227,2.9492 0.664,4.2852 0.442,1.3398 1.067,2.5 1.875,3.5078 0.813,0.9961 1.809,1.7773 2.981,2.3515 1.172,0.5782 2.508,0.8594 4.004,0.8594 2.847,0 5.086,-0.9844 6.715,-2.9375 1.632,-1.9531 2.421,-4.8047 2.406,-8.5351 l -16.086,0"
         style="fill:#231f20;fill-opacity:1;fill-rule:nonzero;stroke:none"
         id="path36" /><path
         d="m 471.309,20.1953 0.078,0 6.281,24.961 2.801,0 -7.559,-28.7969 -3.008,0 -6.679,25.4375 -0.078,0 -6.68,-25.4375 -2.996,0 -7.446,28.7969 2.727,0 6.199,-24.961 0.078,0 6.684,24.961 3.035,0 6.563,-24.961"
         style="fill:#231f20;fill-opacity:1;fill-rule:nonzero;stroke:none"
         id="path38" /><path
         d="m 497.473,27.2383 c -1.02,-0.4297 -2.043,-0.7031 -3.086,-0.8399 -1.035,-0.1367 -2.082,-0.2343 -3.117,-0.3125 -1.844,-0.1367 -3.274,-0.5468 -4.297,-1.25 -1.035,-0.6836 -1.543,-1.7382 -1.543,-3.1562 0,-0.6445 0.129,-1.1992 0.383,-1.6602 0.25,-0.4687 0.582,-0.8476 0.996,-1.1601 0.41,-0.3125 0.894,-0.5274 1.445,-0.6836 0.547,-0.1367 1.094,-0.2149 1.656,-0.2149 0.957,0 1.887,0.1172 2.793,0.3516 0.91,0.2539 1.723,0.6133 2.426,1.1133 0.699,0.4883 1.266,1.1133 1.695,1.875 0.434,0.7617 0.649,1.6601 0.649,2.6953 l 0,3.2422 z m -4.043,1.1992 c 0.449,0.0508 0.996,0.1289 1.621,0.2461 0.625,0.0977 1.14,0.2539 1.543,0.4297 0.398,0.1953 0.64,0.5078 0.73,0.9453 0.098,0.4414 0.149,0.8516 0.149,1.2227 0,1.2304 -0.403,2.2265 -1.184,3.0156 -0.793,0.7929 -2.117,1.1836 -3.984,1.1836 -0.821,0 -1.582,-0.0782 -2.278,-0.2149 -0.691,-0.1562 -1.297,-0.4101 -1.824,-0.7617 -0.515,-0.3711 -0.937,-0.8398 -1.277,-1.4453 -0.332,-0.6055 -0.547,-1.3477 -0.656,-2.2656 l -2.442,0 c 0.078,1.2304 0.36,2.2851 0.84,3.1445 0.477,0.8672 1.102,1.582 1.855,2.1289 0.762,0.5352 1.641,0.9375 2.649,1.1914 0.996,0.2539 2.058,0.3789 3.172,0.3789 1.047,0 2.019,-0.1054 2.937,-0.3398 0.93,-0.2266 1.731,-0.586 2.407,-1.0742 0.679,-0.5 1.207,-1.1524 1.597,-1.9844 0.395,-0.8281 0.578,-1.8438 0.578,-3.0352 l 0,-11.289 c 0,-0.9297 0.164,-1.5235 0.508,-1.7774 0.332,-0.2539 1.008,-0.1953 2.024,0.1758 l 0,-1.875 c -0.2,-0.0586 -0.469,-0.1367 -0.825,-0.2344 -0.359,-0.1172 -0.718,-0.1679 -1.062,-0.1679 -0.371,0 -0.735,0.0507 -1.082,0.1289 -0.403,0.0468 -0.715,0.1757 -0.957,0.3711 -0.239,0.2031 -0.434,0.4492 -0.578,0.7226 -0.149,0.2813 -0.254,0.586 -0.301,0.918 -0.063,0.332 -0.078,0.6836 -0.078,1.0625 -1.02,-1.1211 -2.18,-1.9727 -3.489,-2.5586 -1.296,-0.5938 -2.714,-0.8867 -4.238,-0.8867 -0.906,0 -1.777,0.125 -2.617,0.3711 -0.84,0.2343 -1.582,0.6054 -2.219,1.1132 -0.64,0.5079 -1.148,1.1329 -1.519,1.8555 -0.371,0.7422 -0.559,1.6094 -0.559,2.625 0,3.5274 2.41,5.5977 7.234,6.2422 l 3.325,0.4375"
         style="fill:#231f20;fill-opacity:1;fill-rule:nonzero;stroke:none"
         id="path40" /><path
         d="m 513.43,16.2813 c -0.293,-0.0586 -0.676,-0.1485 -1.164,-0.2852 -0.481,-0.125 -1.004,-0.2031 -1.59,-0.2031 -1.203,0 -2.121,0.3125 -2.746,0.9062 -0.625,0.5977 -0.938,1.6719 -0.938,3.2149 l 0,15.164 -2.922,0 0,2.0039 2.922,0 0,5.7618 2.395,0 0,-5.7618 3.883,0 0,-2.0039 -3.883,0 0,-14.1992 c 0,-0.5078 0.015,-0.9453 0.047,-1.3164 0.019,-0.3711 0.097,-0.6836 0.234,-0.918 0.137,-0.2461 0.344,-0.4218 0.625,-0.5273 0.273,-0.0977 0.676,-0.1563 1.172,-0.1563 0.32,0 0.652,0.0196 0.984,0.0782 0.332,0.0586 0.656,0.1172 0.981,0.1953 l 0,-1.9531"
         style="fill:#231f20;fill-opacity:1;fill-rule:nonzero;stroke:none"
         id="path42" /><path
         d="m 531.941,30.5586 c -0.418,1.543 -1.148,2.7539 -2.195,3.6211 -1.035,0.8711 -2.363,1.3008 -3.953,1.3008 -1.23,0 -2.285,-0.2539 -3.164,-0.7617 -0.883,-0.5079 -1.606,-1.1836 -2.16,-2.0235 -0.567,-0.8398 -0.977,-1.7851 -1.239,-2.8398 -0.265,-1.0547 -0.402,-2.1094 -0.402,-3.1758 0,-1.0938 0.125,-2.1563 0.383,-3.2031 0.254,-1.043 0.652,-1.9727 1.219,-2.8008 0.554,-0.8203 1.281,-1.4844 2.16,-1.9727 0.879,-0.5 1.941,-0.7422 3.203,-0.7422 1.785,0 3.211,0.4883 4.297,1.4844 1.082,0.9766 1.765,2.3438 2.058,4.0703 l 2.559,0 c -0.215,-1.1406 -0.559,-2.1953 -1.016,-3.1328 -0.468,-0.957 -1.074,-1.7578 -1.804,-2.4414 -0.735,-0.6836 -1.606,-1.2109 -2.617,-1.582 -1.016,-0.3711 -2.18,-0.5664 -3.477,-0.5664 -1.66,0 -3.09,0.2929 -4.289,0.8398 -1.199,0.5664 -2.188,1.3281 -2.957,2.3047 -0.774,0.9766 -1.352,2.1289 -1.723,3.457 -0.371,1.336 -0.554,2.7618 -0.554,4.2852 0,1.4375 0.207,2.8242 0.617,4.1328 0.418,1.3281 1.023,2.5 1.824,3.5039 0.801,1.0156 1.785,1.8281 2.977,2.4219 1.183,0.5976 2.55,0.8984 4.105,0.8984 2.391,0 4.336,-0.5742 5.816,-1.7187 1.477,-1.1407 2.407,-2.9375 2.778,-5.3594 l -2.446,0"
         style="fill:#231f20;fill-opacity:1;fill-rule:nonzero;stroke:none"
         id="path44" /><path
         d="m 539.512,16.3594 0,28.7969 2.39,0 0,-10.9571 c 0.969,1.0078 1.953,1.836 2.993,2.4805 1.023,0.6367 2.253,0.957 3.691,0.957 1.285,0 2.469,-0.2226 3.562,-0.6523 1.094,-0.4492 2.012,-1.211 2.762,-2.3047 0.5,-0.7422 0.805,-1.5156 0.903,-2.3047 0.085,-0.7812 0.132,-1.6016 0.132,-2.4609 l 0,-13.5547 -2.398,0 0,13.5156 c 0,1.875 -0.41,3.2695 -1.242,4.1992 -0.821,0.9375 -2.2,1.4063 -4.121,1.4063 -0.743,0 -1.426,-0.1172 -2.032,-0.3438 -0.617,-0.2226 -1.172,-0.5273 -1.66,-0.8984 -0.5,-0.3789 -0.918,-0.8008 -1.262,-1.2774 -0.347,-0.4882 -0.613,-0.9882 -0.796,-1.5234 -0.246,-0.6641 -0.391,-1.3086 -0.442,-1.9141 -0.058,-0.625 -0.09,-1.289 -0.09,-2.0039 l 0,-11.1601 -2.39,0"
         style="fill:#231f20;fill-opacity:1;fill-rule:nonzero;stroke:none"
         id="path46" /><path
         d="m 573.23,16.3594 0,28.7969 19.165,0 0,-2.3125 -16.45,0 0,-10.4102 14.848,0 0,-2.3164 -14.848,0 0,-11.4336 16.836,0 0,-2.3242 -19.551,0"
         style="fill:#231f20;fill-opacity:1;fill-rule:nonzero;stroke:none"
         id="path48" /><path
         d="m 613.301,26.7969 c 0,1.1719 -0.156,2.2851 -0.481,3.3398 -0.32,1.0547 -0.777,1.9727 -1.375,2.7656 -0.605,0.7813 -1.34,1.4063 -2.199,1.875 -0.867,0.4688 -1.851,0.7032 -2.937,0.7032 -1.258,0 -2.332,-0.2539 -3.25,-0.7422 -0.903,-0.4883 -1.641,-1.1719 -2.231,-2.0117 -0.586,-0.8594 -1.015,-1.8555 -1.285,-2.9883 -0.266,-1.1328 -0.371,-2.3555 -0.313,-3.6524 0,-1.3086 0.172,-2.4609 0.536,-3.4687 0.363,-1.0039 0.859,-1.8438 1.496,-2.5391 0.64,-0.6914 1.383,-1.2187 2.246,-1.582 0.847,-0.3594 1.785,-0.5352 2.801,-0.5352 1.113,0 2.121,0.2227 3,0.6836 0.879,0.4493 1.609,1.0743 2.195,1.8555 0.586,0.7813 1.035,1.7188 1.34,2.793 0.308,1.082 0.457,2.2461 0.457,3.5039 z m 0,18.3594 2.402,0 0,-28.7969 -2.402,0 0,3.6328 -0.078,0 c -0.34,-0.6836 -0.789,-1.2891 -1.336,-1.8164 -0.547,-0.5195 -1.157,-0.957 -1.797,-1.3008 -0.656,-0.3398 -1.328,-0.6133 -2.024,-0.7891 -0.695,-0.1953 -1.378,-0.2929 -2.043,-0.2929 -1.675,0 -3.101,0.2929 -4.277,0.8398 -1.172,0.5664 -2.144,1.3281 -2.906,2.3047 -0.754,0.9766 -1.313,2.1289 -1.652,3.457 -0.352,1.336 -0.516,2.7618 -0.516,4.2852 0,1.4375 0.183,2.8242 0.555,4.1601 0.371,1.3399 0.937,2.5 1.699,3.4961 0.754,1.0079 1.719,1.8086 2.883,2.4024 1.152,0.5976 2.515,0.8984 4.097,0.8984 1.465,0 2.871,-0.3203 4.223,-0.9844 1.348,-0.6445 2.398,-1.6132 3.172,-2.8906 l 0,11.3946"
         style="fill:#231f20;fill-opacity:1;fill-rule:nonzero;stroke:none"
         id="path50" /><path
         d="m 622.109,16.3594 0,20.7226 2.403,0 0,-20.7226 -2.403,0 z m -0.129,25.2344 0,3.5625 2.649,0 0,-3.5625 -2.649,0"
         style="fill:#231f20;fill-opacity:1;fill-rule:nonzero;stroke:none"
         id="path52" /><path
         d="m 637.898,16.2813 c -0.293,-0.0586 -0.671,-0.1485 -1.152,-0.2852 -0.484,-0.125 -1.016,-0.2031 -1.601,-0.2031 -1.2,0 -2.118,0.3125 -2.743,0.9062 -0.625,0.5977 -0.937,1.6719 -0.937,3.2149 l 0,15.164 -2.918,0 0,2.0039 2.918,0 0,5.7618 2.402,0 0,-5.7618 3.875,0 0,-2.0039 -3.875,0 0,-14.1992 c 0,-0.5078 0.012,-0.9453 0.039,-1.3164 0.02,-0.3711 0.11,-0.6836 0.235,-0.918 0.136,-0.2461 0.339,-0.4218 0.625,-0.5273 0.285,-0.0977 0.672,-0.1563 1.179,-0.1563 0.317,0 0.649,0.0196 0.981,0.0782 0.332,0.0586 0.664,0.1172 0.972,0.1953 l 0,-1.9531"
         style="fill:#231f20;fill-opacity:1;fill-rule:nonzero;stroke:none"
         id="path54" /><path
         d="m 642.109,16.3594 0,20.7226 2.403,0 0,-20.7226 -2.403,0 z m -0.129,25.2344 0,3.5625 2.649,0 0,-3.5625 -2.649,0"
         style="fill:#231f20;fill-opacity:1;fill-rule:nonzero;stroke:none"
         id="path56" /><path
         d="m 665.906,26.7188 c 0,1.2226 -0.136,2.375 -0.398,3.4375 -0.274,1.0664 -0.684,1.9921 -1.238,2.7851 -0.571,0.7813 -1.282,1.4063 -2.168,1.8555 -0.879,0.4492 -1.957,0.6836 -3.235,0.6836 -1.262,0 -2.336,-0.2539 -3.222,-0.7422 -0.899,-0.4883 -1.622,-1.1524 -2.176,-1.9531 -0.571,-0.8204 -0.981,-1.7579 -1.242,-2.8125 -0.274,-1.0469 -0.403,-2.1289 -0.403,-3.2539 0,-1.2774 0.149,-2.461 0.461,-3.543 0.305,-1.0742 0.75,-2.0039 1.336,-2.7735 0.59,-0.7812 1.32,-1.3789 2.199,-1.7968 0.891,-0.4297 1.895,-0.6446 3.047,-0.6446 1.25,0 2.324,0.2422 3.211,0.7422 0.902,0.4883 1.621,1.1524 2.192,1.9727 0.554,0.8281 0.964,1.7578 1.238,2.8008 0.262,1.0468 0.398,2.1211 0.398,3.2422 z M 658.867,15.793 c -1.34,0.039 -2.59,0.2734 -3.738,0.7226 -1.164,0.4571 -2.18,1.1328 -3.051,2.0508 -0.855,0.8984 -1.551,2.0313 -2.058,3.3984 -0.5,1.3477 -0.75,2.9375 -0.75,4.754 0,1.5156 0.195,2.9414 0.593,4.2578 0.403,1.3203 0.996,2.4726 1.797,3.4687 0.801,0.9766 1.809,1.7578 3.008,2.332 1.191,0.5782 2.598,0.8594 4.199,0.8594 1.621,0 3.035,-0.2812 4.238,-0.8594 1.204,-0.5742 2.2,-1.3476 3,-2.3125 0.797,-0.9765 1.395,-2.1289 1.778,-3.4687 0.387,-1.3359 0.586,-2.7617 0.586,-4.2773 0,-1.6485 -0.239,-3.1524 -0.688,-4.4805 -0.445,-1.3281 -1.101,-2.4805 -1.941,-3.4375 -0.84,-0.957 -1.848,-1.6992 -3.035,-2.2266 -1.184,-0.5078 -2.5,-0.7812 -3.938,-0.7812"
         style="fill:#231f20;fill-opacity:1;fill-rule:nonzero;stroke:none"
         id="path58" /><path
         d="m 675.266,16.3594 -2.407,0 0,20.7226 2.407,0 0,-2.8828 c 0.957,1.0078 1.953,1.836 2.976,2.4805 1.028,0.6367 2.254,0.957 3.699,0.957 1.282,0 2.461,-0.2226 3.555,-0.6523 1.098,-0.4492 2.016,-1.211 2.766,-2.3047 0.508,-0.7422 0.801,-1.5156 0.898,-2.3047 0.098,-0.7812 0.137,-1.6016 0.137,-2.4609 l 0,-13.5547 -2.395,0 0,13.5156 c 0,1.875 -0.418,3.2695 -1.238,4.1992 -0.828,0.9375 -2.207,1.4063 -4.121,1.4063 -0.75,0 -1.426,-0.1172 -2.039,-0.3438 -0.617,-0.2226 -1.176,-0.5273 -1.66,-0.8984 -0.5,-0.3789 -0.918,-0.8008 -1.262,-1.2774 -0.352,-0.4882 -0.613,-0.9882 -0.801,-1.5234 -0.246,-0.6641 -0.39,-1.3086 -0.437,-1.9141 -0.063,-0.625 -0.078,-1.289 -0.078,-2.0039 l 0,-11.1601"
         style="fill:#231f20;fill-opacity:1;fill-rule:nonzero;stroke:none"
         id="path60" /><path
         d="m 692.246,17.2773 0,1.1602 8.32,0 0,-1.1602 -3.464,0 0,-9.23824 -1.387,0 0,9.23824 -3.469,0"
         style="fill:#231f20;fill-opacity:1;fill-rule:nonzero;stroke:none"
         id="path62" /><path
         d="m 703.645,18.4375 3.281,-8.73828 3.301,8.73828 1.89,0 0,-10.39844 -1.316,0 0,8.65234 -0.031,0 -3.25,-8.65234 -1.172,0 -3.25,8.65234 -0.032,0 0,-8.65234 -1.32,0 0,10.39844 1.899,0"
         style="fill:#231f20;fill-opacity:1;fill-rule:nonzero;stroke:none"
         id="path64" /></g></g></svg>