<?xml version="1.0" encoding="UTF-8" standalone="no"?>
<!-- Created with Inkscape (http://www.inkscape.org/) -->

<svg
   xmlns:dc="http://purl.org/dc/elements/1.1/"
   xmlns:cc="http://creativecommons.org/ns#"
   xmlns:rdf="http://www.w3.org/1999/02/22-rdf-syntax-ns#"
   xmlns:svg="http://www.w3.org/2000/svg"
   xmlns="http://www.w3.org/2000/svg"
   xmlns:inkscape="http://www.inkscape.org/namespaces/inkscape"
   version="1.1"
   width="88.625"
   height="82.987503"
   id="svg2"
   xml:space="preserve"><metadata
     id="metadata8"><rdf:RDF><cc:Work
         rdf:about=""><dc:format>image/svg+xml</dc:format><dc:type
           rdf:resource="http://purl.org/dc/dcmitype/StillImage" /></cc:Work></rdf:RDF></metadata><defs
     id="defs6"><clipPath
       id="clipPath18"><path
         d="m 0,0 709,0 0,663.883 -709,0 L 0,0 z"
         inkscape:connector-curvature="0"
         id="path20" /></clipPath></defs><g
     transform="matrix(1.25,0,0,-1.25,0,82.9875)"
     id="g10"><g
       transform="scale(0.1,0.1)"
       id="g12"><g
         id="g14"><g
           clip-path="url(#clipPath18)"
           id="g16"><path
             d="m 216.047,485.488 -86.086,0 224.543,124.645 105.992,-58.832 -244.449,-65.813 z m 424.051,-51.172 -62.2,-106.152 -449.382,0 -47.0121,78.047 527.5001,142.012 31.094,-113.907 z M 534.18,222.422 l 5.617,0.105 14.187,11.77 26.575,0 77.761,123.551 0,-264.2152 -124.14,128.7892 z m -294.278,-5.508 225.125,4.219 164.309,-170.4494 -549.668,0 160.234,166.2304 z m -169.1403,108.922 17.6485,-39.859 12.2148,-9.707 25.281,-41.973 27.485,0 3.629,-2.891 21.554,-5.078 -127.8904,-132.6952 0,265.5392 20.0781,-33.336 z m 612.8713,159.652 -0.195,0 -16.758,9.297 -28.489,104.352 -107.39,-28.91 -156.438,86.835 c -5.047,3.282 -12.39,6.821 -20.574,6.821 -8.992,0 -16.133,-4.141 -20.469,-7.555 l -307.7536,-170.84 -0.1953,0 C 11.3672,485.488 0,472.828 0,457.211 L 0,28.2812 C 0,12.6562 11.3672,0 25.3711,0 L 683.633,0 c 14.004,0 25.371,12.6562 25.371,28.2812 l 0,428.9298 c 0,15.617 -11.367,28.277 -25.371,28.277"
             inkscape:connector-curvature="0"
             id="path22"
             style="fill:#43b0ba;fill-opacity:1;fill-rule:nonzero;stroke:none" /></g></g></g></g></svg>