<?xml version="1.0" encoding="UTF-8" standalone="no"?>
<!-- Created with Inkscape (http://www.inkscape.org/) -->

<svg
   xmlns:dc="http://purl.org/dc/elements/1.1/"
   xmlns:cc="http://creativecommons.org/ns#"
   xmlns:rdf="http://www.w3.org/1999/02/22-rdf-syntax-ns#"
   xmlns:svg="http://www.w3.org/2000/svg"
   xmlns="http://www.w3.org/2000/svg"
   xmlns:sodipodi="http://sodipodi.sourceforge.net/DTD/sodipodi-0.dtd"
   xmlns:inkscape="http://www.inkscape.org/namespaces/inkscape"
   id="svg2"
   version="1.1"
   inkscape:version="0.48.4 r9939"
   width="375"
   height="50"
   xml:space="preserve"
   sodipodi:docname="Details Button 2.eps"><metadata
     id="metadata8"><rdf:RDF><cc:Work
         rdf:about=""><dc:format>image/svg+xml</dc:format><dc:type
           rdf:resource="http://purl.org/dc/dcmitype/StillImage" /><dc:title></dc:title></cc:Work></rdf:RDF></metadata><defs
     id="defs6" /><sodipodi:namedview
     pagecolor="#ffffff"
     bordercolor="#666666"
     borderopacity="1"
     objecttolerance="10"
     gridtolerance="10"
     guidetolerance="10"
     inkscape:pageopacity="0"
     inkscape:pageshadow="2"
     inkscape:window-width="640"
     inkscape:window-height="480"
     id="namedview4"
     showgrid="false"
     inkscape:zoom="1.0533333"
     inkscape:cx="187.5"
     inkscape:cy="25"
     inkscape:window-x="65"
     inkscape:window-y="24"
     inkscape:window-maximized="0"
     inkscape:current-layer="g10" /><g
     id="g10"
     inkscape:groupmode="layer"
     inkscape:label="ink_ext_XXXXXX"
     transform="matrix(1.25,0,0,-1.25,0,50)"><g
       id="g12"
       transform="scale(0.1,0.1)"><path
         d="m 0,0 3000,0 0,400 L 0,400 0,0 z"
         style="fill:#47b7c0;fill-opacity:1;fill-rule:nonzero;stroke:none"
         id="path14" /><g
         id="g16"
         transform="scale(10,10)"><text
           transform="matrix(1,0,0,-1,29.832,11.6934)"
           id="text18"><tspan
             style="fill:#ffffff;fill-opacity:1;fill-rule:nonzero;stroke:none;font-family:Verdana;font-variant:normal;font-weight:normal;font-size:20;writing-mode:lr;-inkscape-font-specification:Verdana"
             x="0 13.68 19.16 29.58 35.06 42.94 49.98 63.66 76.32 88.78 101.24 113.38 121.92 129.8 136.84 148.389062 160.529062 169.069062 176.949062 188.969062"
             y="0"
             sodipodi:role="line"
             id="tspan20">Visit Support Portal</tspan></text>
</g><path
         d="m 2848.41,0.0117188 -463.27,0 0.53,11.9296812 20.84,39.5508 50.01,15.9414 78.98,1.6406 18.12,7.5274 3.68,4.4062 c 0,0 -0.51,5.6406 0,8.7774 0.53,3.1367 3.67,10.6758 3.67,10.6758 l 4.69,0 0.08,0.352 c 0.52,2.46 3.66,18.535 -0.66,19.121 -4.68,0.621 -23.52,28.125 -29.12,36.296 -5.62,8.153 -5.23,17.532 -7.52,48.305 0,0 0,0 -1.53,0 -1.53,0 -2.53,0 -2.51,3.129 0.03,3.141 -3.42,11.934 -6.38,18.234 -2.96,6.297 -0.59,35.774 0.44,38.282 0.18,0.441 0.54,0.613 1.01,0.613 0.78,0 1.84,-0.465 2.83,-0.926 0.99,-0.461 1.92,-0.926 2.44,-0.926 0.42,0 0.56,0.325 0.21,1.239 -1.47,3.769 -1.84,15.23 0.25,25.277 0,0 2.44,31.832 20.51,43.949 18.6,12.559 29.76,27.028 65.74,27.028 35.98,0 50.39,-8.727 69.34,-21.274 18.41,-12.125 31.14,-47.105 31.14,-47.105 2.44,-10.047 0.9,-20.879 -0.44,-24.649 -1.34,-3.769 -5.3,-0.711 -4.21,-3.226 1.1,-2.508 4.34,-31.985 1.58,-38.282 -2.79,-6.3 -5.97,-15.093 -5.85,-18.234 0.12,-3.129 -0.89,-3.129 -2.41,-3.129 -1.54,0 -1.54,0 -1.54,0 -1.38,-30.773 -0.72,-40.152 -6.08,-48.305 -5.36,-8.171 -23.4,-35.675 -28.06,-36.296 -4.3,-0.586 -0.69,-16.582 -0.12,-19.106 l 0.1,-0.367 4.7,0 c 0,0 3.36,-7.5391 3.98,-10.6758 0.62,-3.1368 0.27,-8.7774 0.27,-8.7774 l 3.81,-4.4062 22.87,-7.5274 74.51,-1.6406 50.47,-15.9414 22.01,-39.5508 0.89,-11.9296812"
         style="fill:#3996a8;fill-opacity:1;fill-rule:nonzero;stroke:none"
         id="path22" /><path
         d="m 2695.35,204.398 c 2.06,10.68 4.59,20.731 7.14,28.29 2.89,8.488 5.27,12.601 8.19,13.859 2.2,12.207 4.19,24.641 5,33.605 1.06,11.84 -5.32,27.278 -16.76,41.25 l 7.85,6.414 c -22.78,27.856 -57.26,43.836 -94.54,43.836 l -5.87,0 c -37.3,0 -71.77,-15.98 -94.54,-43.836 l 8.06,-6.601 c -11.35,-13.918 -17.66,-29.274 -16.61,-41.063 2.21,-24.308 7.62,-48.047 7.85,-49.047 l 1.77,-7.699 5.46,2.805 0,-20.738 12.28,0 0,40.89 -9.17,-4.73 c -1.79,8.93 -4.57,24.32 -5.95,39.621 -0.64,7.113 3.52,19.469 13.88,32.184 l 7.77,3.648 c 7.84,9.559 30.23,31.801 69.2,31.801 l 5.87,0 c 38.94,0 61.34,-22.242 69.17,-31.801 l 8,-3.469 c 10.47,-12.777 14.68,-25.215 14.04,-32.363 -1.05,-11.59 -4.26,-29.731 -7.25,-45.215 -4.84,-0.902 -8.86,-4.695 -9.72,-9.844 l -8.58,-51.488 c -1.09,-6.57 3.34,-12.805 9.92,-13.894 l 1.2,-0.208 c 0.27,10.965 2.81,25.293 3.9,30.961 l 2.44,12.832"
         style="fill:#ffffff;fill-opacity:1;fill-rule:nonzero;stroke:none"
         id="path24" /><path
         d="m 2736.61,207.617 c -0.37,-6.519 -1.11,-12.426 -1.8,-15.922 -1.51,-7.965 -4.7,-18.09 -8.33,-26.453 -0.93,-2.176 -1.83,-4.051 -2.69,-5.722 3.01,0.492 5.93,1.789 8.59,3.832 1.03,-12.192 -2.26,-22.422 -10.07,-30.454 -15.24,-15.742 -44.07,-20.945 -70.91,-20.015 l -0.54,-2.192 c -0.75,-2.144 -1.87,-4.097 -3.21,-5.855 3.25,-0.188 6.53,-0.305 9.85,-0.305 26.63,0 54.57,6.016 70.69,22.664 7.99,8.243 15.74,22.325 11.33,44.414 1.78,3.039 3.19,6.426 4.02,10.176 2.34,10.793 -0.67,20.875 -6.93,25.832"
         style="fill:#ffffff;fill-opacity:1;fill-rule:nonzero;stroke:none"
         id="path26" /><path
         d="m 2730.63,192.5 c 2.95,15.313 2.96,40.641 -2.36,43.762 -5.34,3.129 -12.24,6.047 -15.38,6.492 l -0.12,0.012 c -3.15,0 -9.07,-17.457 -13.23,-39.157 l -2.47,-12.843 c -4.21,-21.989 -5.09,-40.344 -1.97,-40.817 l 2.19,-0.113 c 3.75,0 9.74,0.75 14.78,1.934 6.2,1.453 15.64,25.418 18.56,40.73"
         style="fill:#ffffff;fill-opacity:1;fill-rule:nonzero;stroke:none"
         id="path28" /><path
         d="m 2633.54,131.77 -27.43,7.539 c -1.69,0.464 -3.4,0.691 -5.07,0.691 -7.31,0 -14.04,-4.16 -16.33,-10.637 -2.8,-7.976 2.23,-16.441 11.25,-18.925 l 27.42,-7.555 c 1.69,-0.461 3.39,-0.688 5.08,-0.688 7.27,0 14.04,4.16 16.32,10.625 2.8,7.993 -2.24,16.457 -11.24,18.95"
         style="fill:#ffffff;fill-opacity:1;fill-rule:nonzero;stroke:none"
         id="path30" /></g></g></svg>