<?xml version="1.0" standalone="no"?>
<!DOCTYPE svg PUBLIC "-//W3C//DTD SVG 1.1//EN" "http://www.w3.org/Graphics/SVG/1.1/DTD/svg11.dtd" >
<svg xmlns="http://www.w3.org/2000/svg">
<metadata></metadata>
<defs>
<font id="timesbold_italic" horiz-adv-x="1024" >
<font-face units-per-em="2048" ascent="1638" descent="-410" />
<missing-glyph horiz-adv-x="512" />
<glyph horiz-adv-x="2048" />
<glyph horiz-adv-x="2048" />
<glyph unicode="&#xd;" horiz-adv-x="512" />
<glyph unicode=" "  horiz-adv-x="512" />
<glyph unicode="&#x09;" horiz-adv-x="512" />
<glyph unicode="&#xa0;" horiz-adv-x="512" />
<glyph unicode="!" horiz-adv-x="796" d="M137 117q0 70 45.5 110.5t102.5 40.5q66 0 110.5 -45t44.5 -106q0 -57 -43 -100.5t-110 -43.5q-68 0 -109 41t-41 103zM342 434q51 266 70 375q41 248 41 395q0 76 36 129q45 68 129 68q47 0 82 -25q57 -41 58 -127q0 -35 -7.5 -60.5t-21.5 -53.5q-86 -160 -175.5 -356.5 t-152.5 -360.5z" />
<glyph unicode="&#x22;" horiz-adv-x="1136" d="M279 815l32 438q0 59 49.5 104.5t110.5 45.5q43 0 68.5 -31t25.5 -67q0 -25 -10 -54q-16 -37 -25 -55l-168 -381h-83zM811 815l33 438q0 59 49 104.5t111 45.5q43 0 68.5 -31t25.5 -67q0 -25 -11 -54q-16 -37 -24 -55l-168 -381h-84z" />
<glyph unicode="#" d="M-68 430l41 150h217l111 274h-197l41 150h215l179 430h157l-176 -430h232l178 430h157l-176 -430h181l-41 -150h-199l-111 -274h179l-41 -150h-199l-174 -430h-160l174 430h-231l-174 -430h-160l174 430h-197zM350 580h232l110 274h-231z" />
<glyph unicode="$" d="M-41 176l86 291l45 -12q0 -154 38 -236t153 -133l151 535q-160 117 -215 197.5t-55 178.5q0 152 104 258q115 117 307 117l68 -4l37 133h102l-41 -147q57 -8 144 -47q70 -31 98 -54l37 -28l-86 -273l-43 11v38q0 100 -25 158q-39 90 -145 121l-121 -440 q156 -135 205 -199q82 -109 82 -231q0 -168 -139.5 -289t-333.5 -121l-47 2l-58 -207h-106l59 219q-84 20 -131 43q-84 39 -170 119zM365 1110q0 -57 30.5 -107.5t112.5 -109.5l113 407q-12 4 -41 5q-102 0 -158.5 -56.5t-56.5 -138.5zM381 66q133 0 207 69.5t74 190.5 q0 80 -46 141q-26 37 -98 94z" />
<glyph unicode="%" horiz-adv-x="1705" d="M80 879q0 215 160 372q141 139 284 140q68 0 107 -17q16 -6 65 -41q37 -27 82 -42t131 -15q104 0 209 55q63 33 121 86h80l-807 -1433h-115l711 1261l-4 4q-113 -51 -234 -51q-25 0 -48 4t-42 6q0 -197 -96 -374q-125 -231 -346 -232q-102 0 -180 76t-78 201zM315 797 q0 -53 37 -80q29 -20 66 -21q109 0 205 166q88 154 88 297q0 55 -7.5 66.5t-52.5 27.5q-14 6 -31.5 22.5t-31.5 16.5q-88 0 -185 -198q-88 -182 -88 -297zM922 252q0 195 141 356.5t311 161.5q127 0 188.5 -68.5t61.5 -181.5q0 -168 -104 -336q-129 -205 -328 -204 q-125 0 -197.5 79.5t-72.5 192.5zM1161 195q0 -63 31 -92t82 -29q94 0 187 154.5t93 291.5q0 55 -26.5 100.5t-79.5 45.5q-111 0 -207 -213q-80 -176 -80 -258z" />
<glyph unicode="&#x26;" horiz-adv-x="1593" d="M10 319q0 66 35 138q27 55 66 98q61 70 161 125q61 35 230 106q-8 45 -15.5 96.5t-7.5 92.5q0 178 96 295q104 127 281 127q135 0 215 -74q70 -66 70 -158q0 -102 -91.5 -191t-281.5 -163q16 -119 74 -260q49 -125 102 -205q74 92 100 133q51 80 52 127q0 43 -30 58.5 t-85 23.5v51h434v-51q-63 -12 -92 -29q-43 -25 -99.5 -90t-88.5 -108q-72 -98 -140 -189q45 -59 82 -90q70 -57 144 -57q51 0 96 29q23 14 61 53l54 -43q-76 -90 -132 -131q-96 -70 -215 -70q-98 0 -180 45q-55 31 -106 82q-100 -74 -226 -106q-88 -23 -180 -23 q-176 0 -284 102q-99 94 -99 256zM283 383q0 -100 59 -178q74 -98 201 -99q55 0 114 21q33 12 84 37q-76 119 -112 198q-68 147 -111 340q-113 -53 -164 -110q-71 -80 -71 -209zM727 1079q0 -29 6.5 -76.5t16.5 -113.5q127 68 184 158q43 68 43 141q0 61 -21 96 q-27 45 -86 45q-80 0 -111.5 -69.5t-31.5 -180.5z" />
<glyph unicode="'" horiz-adv-x="569" d="M262 815l33 438q0 59 49 104.5t111 45.5q43 0 68.5 -31t25.5 -67q0 -25 -10 -54q-16 -37 -25 -55l-168 -381h-84z" />
<glyph unicode="(" horiz-adv-x="681" d="M57 412q0 256 99 452q143 289 512 539l37 -41q-121 -109 -187 -195q-119 -156 -184 -366q-84 -268 -84 -623q0 -174 51 -319q27 -78 94 -195l-47 -31q-113 152 -176 287q-115 244 -115 492z" />
<glyph unicode=")" horiz-adv-x="681" d="M-90 -326q129 119 190 201q102 135 166 330q45 147 70.5 302t25.5 296q0 211 -37.5 336t-109.5 233l47 31q137 -174 211 -363q82 -209 82 -434q0 -297 -168 -551q-151 -229 -442 -422z" />
<glyph unicode="*" d="M133 1126q0 45 25.5 73t70.5 28q29 0 58.5 -13.5t58.5 -54.5q63 -90 85 -113.5t71 -46.5l14 11q0 90 -59 196q-29 51 -29 94q0 41 27 72t80 31q41 0 69.5 -31t28.5 -78q0 -43 -40 -120.5t-40 -165.5l18 -11q72 47 146 158q53 78 114 78q47 0 78 -37q25 -31 25 -61 q0 -35 -26.5 -66t-49 -39t-107.5 -12t-163 -51v-21q45 -27 63 -33q39 -14 99 -14l53 -4q57 -6 82 -18q49 -27 49 -93q0 -45 -30 -72.5t-73 -27.5q-33 0 -61.5 20.5t-50.5 55.5l-27 43q-29 47 -48 66.5t-75 48.5l-18 -13q0 -94 43 -176t43 -113q0 -43 -29.5 -74.5 t-77.5 -31.5q-41 0 -68.5 31.5t-27.5 81.5q0 41 25 86q57 106 57 172v28l-18 9q-82 -53 -152 -158q-51 -78 -108 -78q-41 0 -72 26.5t-31 71.5q0 33 10.5 52.5t39 39t104.5 24.5t84 7q51 8 80 25q25 20 28 22v19q-70 35 -209 51t-139 106z" />
<glyph unicode="+" horiz-adv-x="1167" d="M68 428v180h426v428h180v-428h426v-180h-426v-428h-180v428h-426z" />
<glyph unicode="," horiz-adv-x="512" d="M-123 -324q111 59 176.5 122t65.5 118q0 37 -45 68q-98 70 -99 139q0 66 39 108.5t105 42.5q61 0 108 -36q68 -51 68 -160q0 -135 -115 -260q-141 -156 -276 -191z" />
<glyph unicode="-" horiz-adv-x="681" d="M4 340l49 238h502l-47 -238h-504z" />
<glyph unicode="." horiz-adv-x="512" d="M-18 125q0 61 42.5 106t108.5 45q63 0 107.5 -44t44.5 -107q0 -66 -43 -109t-109 -43q-68 0 -109.5 44t-41.5 108z" />
<glyph unicode="/" horiz-adv-x="569" d="M-131 -37l653 1440h178l-653 -1440h-178z" />
<glyph unicode="0" d="M35 424q0 342 178 645q195 330 455 330q137 0 223 -130t86 -331q0 -371 -178 -664q-184 -303 -432 -303q-174 0 -263 156q-70 123 -69 297zM246 170q0 -70 29.5 -104.5t74.5 -34.5q102 0 180 194q23 55 66 201q53 182 106 410q64 268 64 348q0 76 -25.5 115.5t-81.5 39.5 q-59 0 -115.5 -92t-131.5 -338q-59 -190 -119 -450q-47 -207 -47 -289z" />
<glyph unicode="1" d="M10 0v47q94 0 142 21q74 33 102 131l262 940q8 29 8 45q0 37 -21.5 54t-64.5 17q-70 0 -137 -10l4 47q152 23 277 46.5t276 60.5l-315 -1147q-12 -47 -18.5 -73.5t-6.5 -37.5q0 -61 45 -77.5t154 -16.5v-47h-707z" />
<glyph unicode="2" d="M-55 0v49q295 295 340 342q57 61 135 154q109 133 153 213q66 117 66 223q0 80 -23 131q-45 102 -167 102q-100 0 -185 -71q-43 -37 -88 -105l-45 25q61 129 150 213q129 123 299 123q154 0 247 -111q86 -100 86 -233t-94 -271q-72 -104 -201 -215l-401 -342h305 q123 0 176.5 32t108.5 132h51l-162 -391h-751z" />
<glyph unicode="3" d="M-31 129q0 72 45 102q31 20 72 21q66 0 109 -51q16 -20 75 -109q25 -37 90 -37q90 0 157 96.5t67 237.5q0 154 -84 238t-238 84l8 45q195 39 287 114q100 82 100 203q0 70 -39 119q-49 61 -135 61t-149 -49q-37 -29 -92 -104l-43 26q74 119 161 185q117 88 263 88 q113 0 198 -68q100 -80 101 -211q0 -82 -39 -145q-53 -86 -181 -150l-24 -12q78 -57 113 -115q45 -76 45 -192q0 -219 -175.5 -376t-414.5 -157q-129 0 -203 44t-74 112z" />
<glyph unicode="4" d="M-31 307l58 215l874 877h129l-244 -891h142l-56 -201h-139l-86 -307h-262l84 307h-500zM109 508h415l160 567h-4z" />
<glyph unicode="5" d="M-23 129q0 61 36 92t85 31q76 0 162 -133q41 -63 92 -64q115 0 196 103.5t81 224.5q0 164 -123 268q-131 111 -356 111l268 608h579l-73 -223h-521l-69 -156q156 -33 203 -49q84 -29 155.5 -87t111.5 -148.5t40 -188.5q0 -246 -187 -401q-172 -143 -415 -144 q-133 0 -205 54q-59 45 -60 102z" />
<glyph unicode="6" d="M47 412q0 317 238 592q276 319 745 387l12 -50q-211 -76 -360 -217q-131 -123 -209 -286q41 14 65.5 20t63.5 6q113 0 191 -61q115 -90 114 -291q0 -231 -153 -391q-145 -152 -342 -152q-213 0 -303 162q-61 111 -62 281zM276 195q0 -66 15 -99q27 -61 102 -61 q96 0 152 145q45 127 76.5 254t31.5 203q0 59 -14 88q-29 57 -115 57q-76 0 -104 -51q-14 -25 -52 -129t-65 -214.5t-27 -192.5z" />
<glyph unicode="7" d="M106 0l680 1139h-272q-164 0 -226.5 -30t-117.5 -128h-53l178 389h780l-780 -1370h-189z" />
<glyph unicode="8" d="M6 307q0 133 87 228.5t282 160.5v11q-72 76 -101 124q-51 86 -51 191q0 166 111.5 271.5t283.5 105.5q119 0 220 -60q137 -80 137 -229q0 -123 -86 -207q-70 -68 -207 -123v-10q72 -78 109 -139q68 -115 67 -234q0 -188 -130 -306t-314 -118t-291 88q-117 96 -117 246z M205 281q0 -90 39 -156q53 -90 166 -90q98 0 157.5 80t59.5 182q0 104 -66 197q-27 39 -133 163q-104 -70 -156 -145q-67 -98 -67 -231zM451 1133q0 -68 33.5 -132.5t150.5 -175.5q78 82 102 121q47 74 47 164q0 104 -46 162.5t-120 58.5q-84 0 -125.5 -60t-41.5 -138z" />
<glyph unicode="9" d="M-25 31q178 49 331 183t237 316q-25 -10 -51.5 -19t-73.5 -9q-139 0 -224 93t-85 249q0 207 122 366q143 188 390 189q166 0 259 -120t93 -325q0 -178 -90 -364q-109 -225 -312 -379q-241 -182 -583 -231zM362 733q0 -72 34 -107.5t100 -35.5t88 26.5t71.5 153.5 t73.5 283q6 49 14 125q0 70 -12 100q-23 55 -92 55q-139 0 -221 -299q-27 -98 -56 -301z" />
<glyph unicode=":" horiz-adv-x="681" d="M47 125q0 61 43 106t109 45q63 0 107 -44t44 -107q0 -66 -43 -109t-108 -43q-68 0 -110 44t-42 108zM238 788q0 61 42.5 106.5t108.5 45.5q63 0 107.5 -44t44.5 -108q0 -66 -43 -108.5t-109 -42.5q-68 0 -109.5 44t-41.5 107z" />
<glyph unicode=";" horiz-adv-x="681" d="M-51 -326q111 59 176 122t65 118q0 37 -45 68q-98 70 -98 139q0 66 39 108.5t104 42.5q61 0 109 -36q68 -51 68 -160q0 -135 -115 -260q-142 -156 -277 -191zM238 788q0 61 42.5 106.5t108.5 45.5q63 0 107.5 -44t44.5 -108q0 -66 -43 -108.5t-109 -42.5q-68 0 -109.5 44 t-41.5 107z" />
<glyph unicode="&#x3c;" horiz-adv-x="1167" d="M63 440v156l1041 457v-181l-807 -354l807 -354v-180z" />
<glyph unicode="=" horiz-adv-x="1167" d="M68 219v180h1032v-180h-1032zM68 637v180h1032v-180h-1032z" />
<glyph unicode="&#x3e;" horiz-adv-x="1167" d="M63 -16v180l807 354l-807 354v181l1041 -457v-156z" />
<glyph unicode="?" d="M162 125q0 61 42.5 106t108.5 45q63 0 107.5 -44t44.5 -107q0 -66 -43 -109t-109 -43q-68 0 -109.5 44t-41.5 108zM244 1135q0 111 92 184q100 82 262 82q203 0 297 -111q68 -80 68 -184q0 -109 -78 -201q-59 -70 -180 -149l-136 -88q-61 -39 -98 -97q-27 -41 -70 -145 l-59 14q6 76 27 129q33 90 118 197l84 104q61 76 93 140q39 80 38 159q0 92 -47 136q-37 33 -96 32q-45 0 -85 -23.5t-40 -53.5q0 -14 30 -56.5t30 -83.5q0 -51 -37 -86t-88 -35q-55 0 -90 39t-35 97z" />
<glyph unicode="@" horiz-adv-x="1703" d="M129 651q0 330 225 545q217 207 537 207q291 0 488.5 -175t197.5 -440q0 -178 -100 -327q-115 -170 -287 -170q-90 0 -146 63q-41 47 -40 86q-37 -49 -86 -86q-80 -61 -160 -61q-74 0 -123 41q-78 66 -78 215q0 154 100 311q123 195 312 195q66 0 100 -33q12 -13 47 -74 l23 78h145l-133 -526q-4 -20 -4 -43q0 -37 17.5 -63.5t58.5 -26.5q111 0 188 143q72 131 72 276q0 195 -156 357q-174 180 -436 180q-244 0 -402 -172q-174 -188 -174 -522q0 -229 169 -400.5t427 -171.5q125 0 232 29q78 20 182 70l27 -72q-119 -57 -207 -84 q-119 -37 -232 -37q-375 0 -596 238q-188 201 -188 450zM713 561q0 -86 34.5 -129t90.5 -43q76 0 143 107q80 124 100 327q0 133 -90 133q-88 0 -176 -104q-102 -123 -102 -291z" />
<glyph unicode="A" horiz-adv-x="1366" d="M-137 0v51q55 14 78 31q39 29 92 113l762 1204h51l196 -1172q18 -119 48 -145q22 -21 124 -31v-51h-622v51q86 8 115 23q47 25 47 92q0 43 -2 61q-14 90 -29 199h-440l-121 -209q-8 -14 -19.5 -44t-11.5 -50q0 -35 32 -53.5t101 -18.5v-51h-401zM330 508h379l-76 498z " />
<glyph unicode="B" horiz-adv-x="1366" d="M-49 0v51q84 12 114.5 45t49.5 103l250 919q4 16 13 58.5t9 50.5q0 55 -36.5 73.5t-112.5 18.5v51h557q178 0 286 -39q197 -70 197 -256q0 -162 -139 -254q-80 -53 -242 -92q125 -43 176 -86q98 -80 98 -217q0 -223 -188 -334q-158 -92 -416 -92h-616zM406 129 q0 -37 36.5 -50t87.5 -13q178 0 267 163q61 113 61 232q0 147 -98 198q-64 33 -209 33l-135 -499q-10 -31 -10 -64zM567 754q178 0 267 49q143 80 143 301q0 94 -37 141q-45 59 -147 60q-53 0 -76 -29q-15 -17 -25 -62z" />
<glyph unicode="C" horiz-adv-x="1366" d="M66 492q0 358 231 626q246 285 606 285q84 0 172 -19q84 -20 168 -41q31 0 46.5 13.5t35.5 46.5h61l-104 -479l-65 12l6 70q0 152 -71 238.5t-202 86.5q-231 0 -407 -309q-162 -285 -162 -584q0 -182 83 -274t212 -92t225 49q109 55 217 192l62 -45q-88 -131 -217 -211 q-154 -94 -340 -94q-223 0 -379 125q-178 143 -178 404z" />
<glyph unicode="D" horiz-adv-x="1478" d="M-94 0v51q68 10 94 29q47 31 70 119q178 659 186 692q86 315 86 338q0 49 -23.5 62.5t-125.5 27.5v51h593q291 0 454 -146.5t163 -422.5q0 -301 -211 -529q-254 -272 -700 -272h-586zM362 141q0 -47 34 -59t87 -12q240 0 396 176q121 137 180 366q43 166 43 316 q0 143 -41 225q-78 154 -291 154q-45 0 -61 -7q-44 -16 -58 -71l-262 -971q-12 -39 -16 -57q-10 -39 -11 -60z" />
<glyph unicode="E" horiz-adv-x="1366" d="M-55 0v51q74 12 98 31q41 31 66 117l251 919l7 35q14 68 14 80q0 47 -24.5 60.5t-125.5 25.5v51h1106l-88 -389l-55 10q0 156 -47 213q-82 100 -340 101q-47 0 -73.5 -14.5t-45.5 -76.5l-125 -456q213 0 289 45q57 35 131 172l57 -8l-151 -559l-58 10l9 82 q0 113 -60.5 152.5t-234.5 39.5l-115 -428q-8 -35 -19.5 -76t-11.5 -49q0 -37 26 -55t107 -18q201 0 349 73q168 84 268 269l51 -11l-121 -397h-1134z" />
<glyph unicode="F" horiz-adv-x="1366" d="M-27 0v51q74 12 99 31q41 31 65 117l252 919q4 20 6 35q14 68 15 80q0 47 -25 60.5t-125 25.5v51h1092l-88 -389l-56 10q0 150 -45 209q-78 104 -325 105q-57 0 -82 -19.5t-39 -71.5l-125 -456q207 0 278 43q53 33 127 174l58 -8l-152 -559l-57 10l8 82q0 109 -53 147 q-61 45 -228 45l-110 -411q-12 -39 -19 -64q-12 -47 -12 -74q0 -49 33 -70.5t113 -21.5v-51h-605z" />
<glyph unicode="G" horiz-adv-x="1478" d="M43 518q0 334 229 596q252 289 633 289q111 0 187 -19q76 -23 153 -43q37 0 60 23q14 14 26 39h64l-105 -453l-59 8q0 174 -60 263q-71 108 -230 108h-3q-236 0 -410 -297q-166 -283 -166 -620q0 -174 88.5 -272.5t241.5 -98.5q74 0 130.5 19.5t76.5 54.5 q8 14 59.5 195.5t51.5 226.5q0 49 -29 63t-123 23v53h588v-53q-78 0 -105.5 -31t-56.5 -137l-98 -371l-58 -27q-80 -37 -218 -65.5t-251 -28.5q-264 0 -434 141q-182 152 -182 414z" />
<glyph unicode="H" horiz-adv-x="1593" d="M-49 0v51q70 10 96 31q45 31 68 117l250 919q6 23 8 37q14 59 14 74q0 49 -23.5 62.5t-125.5 27.5v51h649v-51q-92 0 -137 -29.5t-70 -118.5l-111 -407h490l96 354q8 31 10 47q10 51 11 68q0 47 -25 59.5t-125 26.5v51h610v-51q-74 -10 -100 -31q-41 -31 -66 -117 l-223 -813q-16 -57 -30 -112q-20 -80 -21 -109q0 -51 45 -71q33 -15 105 -15v-51h-650v51q106 0 152 39q33 29 55 109l131 475h-489l-103 -371q-12 -41 -23 -85t-11 -79q0 -53 32.5 -70.5t116.5 -17.5v-51h-606z" />
<glyph unicode="I" horiz-adv-x="796" d="M-66 0v51q74 10 103 33q37 29 61 115l252 919q8 31 10 47q10 51 11 68q0 47 -24.5 59.5t-125.5 26.5v51h610v-51q-88 -12 -118.5 -45t-48.5 -103l-234 -860q-6 -20 -21.5 -86.5t-15.5 -85.5q0 -51 33 -69.5t115 -18.5v-51h-607z" />
<glyph unicode="J" d="M-94 2q0 63 37 104t92 41t93 -35.5t38 -91.5q0 -37 -31 -73q-16 -20 -16 -43q0 -18 16.5 -25.5t36.5 -7.5q53 0 82 49q41 70 104 313l234 885q10 37 16 72t6 39q0 49 -23.5 62.5t-125.5 27.5v51h608v-51q-76 -10 -105.5 -36t-60.5 -112l-262 -981q-49 -182 -135 -274 q-109 -119 -295 -119q-129 0 -219 56.5t-90 148.5z" />
<glyph unicode="K" horiz-adv-x="1366" d="M-43 0v51q86 12 115.5 44t48.5 104l250 919q6 23 8 37q14 59 14 74q0 49 -23.5 62.5t-125.5 27.5v51h635v-51q-82 0 -125 -29.5t-68 -118.5l-123 -452l10 -2q160 135 189 162q72 63 184.5 169.5t151.5 159.5q23 31 22 54q0 37 -29.5 44t-84.5 13v51h432v-51 q-61 -8 -95 -23.5t-98 -74.5l-442 -406l321 -692q18 -39 56 -55q25 -10 73 -17v-51h-573v51q88 10 94 12q39 10 39 52l-27 80l-221 471l-16 4l-131 -490q-2 -25 -2 -30t-2 -13q0 -49 36.5 -67.5t98.5 -18.5v-51h-592z" />
<glyph unicode="L" horiz-adv-x="1251" d="M-45 0v51q74 10 102 33q37 29 62 115l252 919q8 31 10 47q10 51 10 68q0 47 -24.5 59.5t-124.5 26.5v51h649v-51q-92 0 -137 -29.5t-70 -118.5l-264 -978q-10 -39 -10 -66q0 -33 31.5 -47t101.5 -14q201 0 348 73q166 84 268 269l49 -11l-121 -397h-1132z" />
<glyph unicode="M" horiz-adv-x="1820" d="M-59 0v51q82 20 110 60q37 51 96 254l224 763q12 41 17 77t5 42q0 45 -30.5 58.5t-116.5 13.5v51h452l111 -977l635 977h434v-51q-74 -10 -100 -31q-41 -31 -66 -117l-252 -919q-4 -20 -12 -57t-8 -56q0 -51 32.5 -69.5t114.5 -18.5v-51h-639v51q92 0 136 29t69 119 l252 931l-4 5l-760 -1160h-57l-135 1135l-209 -745q-20 -72 -29.5 -119t-9.5 -66q0 -74 45 -100q29 -18 119 -29v-51h-424z" />
<glyph unicode="N" horiz-adv-x="1478" d="M-55 0v51q84 20 110 58q37 51 97 256l245 841q-29 68 -57.5 86.5t-112.5 26.5v51h400l440 -952l164 588q12 43 24.5 101t12.5 87q0 74 -45 99.5t-119 25.5v51h428v-51q-88 -20 -115 -59q-37 -51 -94 -254l-293 -1037h-57l-527 1125l-202 -729q-12 -43 -24.5 -101.5 t-12.5 -87.5q0 -74 51 -102q39 -23 113 -23v-51h-426z" />
<glyph unicode="O" horiz-adv-x="1478" d="M55 424q0 377 264.5 678t600.5 301q195 0 331 -113q164 -135 164 -381q0 -326 -244 -620q-268 -326 -628 -326q-233 0 -371 156q-117 133 -117 305zM350 307q0 -143 62 -213q55 -61 151 -61q166 0 305 217q115 178 189 450q63 233 63 377q0 121 -53 188.5t-162 67.5 q-170 0 -311 -223q-106 -170 -182 -453q-61 -231 -62 -350z" />
<glyph unicode="P" horiz-adv-x="1251" d="M-55 0v51q74 12 98 31q41 31 66 117l251 919l7 35q14 68 14 80q0 47 -25 60.5t-125 25.5v51h588q190 0 299 -63q137 -80 137 -258q0 -186 -163 -297q-152 -102 -371 -103h-29h-22q-68 0 -140 10l-110 -407q-2 -8 -11.5 -57.5t-9.5 -55.5q0 -51 33 -69.5t115 -18.5v-51 h-602zM551 725l78 -4q104 0 164 29q39 18 73 63q45 55 67.5 146.5t22.5 148.5q0 74 -20 115q-41 82 -154 82q-53 0 -72.5 -25t-27.5 -66z" />
<glyph unicode="Q" horiz-adv-x="1478" d="M55 424q0 377 264.5 678t600.5 301q195 0 331 -113q164 -135 164 -381q0 -336 -262 -630q-279 -313 -637 -314q-31 -29 -57 -55q-37 -37 -37 -43t59 -12q170 -16 244 -39l86 -27q37 -12 82 -21.5t88 -9.5q102 0 184 47q57 33 133 113l43 -39q-96 -133 -186 -198 q-145 -106 -336 -107q-121 0 -325 64q-101 32 -175 32h-4q-39 0 -92 -11t-137 -46l-29 49l320 266q23 18 29 24.5t10 14.5q-8 10 -29 19q-162 45 -252 178q-80 119 -80 260zM350 307q0 -145 62 -213q53 -59 151 -59q166 0 305 217q115 176 189 448q63 233 63 377 q0 121 -53 188.5t-162 67.5q-170 0 -311 -223q-106 -170 -182 -453q-61 -231 -62 -350z" />
<glyph unicode="R" horiz-adv-x="1366" d="M-59 0v51q74 10 102 33q37 29 61 115l252 919q8 31 11 47q10 51 10 68q0 47 -25 59.5t-125 26.5v51h566q244 0 363.5 -73.5t119.5 -223.5q0 -129 -94 -227q-106 -113 -299 -144l170 -503q31 -92 69 -119q29 -20 111 -29v-51h-414l-219 678h-59l-113 -395 q-29 -100 -29 -142q0 -51 32 -70.5t116 -19.5v-51h-606zM559 743q74 0 118 6.5t85 18.5q104 33 160 143q45 88 45 199q0 94 -48.5 144.5t-144.5 50.5q-37 0 -58.5 -17t-33.5 -74z" />
<glyph unicode="S" horiz-adv-x="1138" d="M4 -37l74 459l59 -4q0 -180 76 -277q85 -108 239 -108h3q115 0 180 69q76 80 76 189t-129 227q-121 104 -242 209q-131 133 -131 272q0 166 106 279q117 125 314 125q66 0 170 -31t127 -31q29 0 53.5 13.5t36.5 40.5h61l-82 -412l-55 8q-14 141 -53 213q-68 127 -219 127 q-104 0 -157.5 -61.5t-53.5 -157.5q0 -106 135 -211q127 -98 184 -153q82 -80 125 -154q57 -98 57 -197q0 -205 -122.5 -319.5t-358.5 -114.5q-80 0 -162 22.5t-168 49.5q-33 0 -49 -16.5t-32 -55.5h-62z" />
<glyph unicode="T" horiz-adv-x="1251" d="M102 0v51q86 0 127 21q61 31 88 127l304 1099q-150 0 -258.5 -69.5t-186.5 -222.5l-51 14l78 350h1128l-74 -393l-55 4q0 199 -100 272q-61 45 -182 45l-287 -1036q-6 -23 -14.5 -62.5t-8.5 -60.5q0 -55 37 -71.5t133 -16.5v-51h-678z" />
<glyph unicode="U" horiz-adv-x="1478" d="M137 315q0 74 56 295q6 25 102 381q55 205 55 242q0 47 -24.5 60.5t-124.5 25.5v51h637v-51q-86 0 -127 -27.5t-66 -120.5l-168 -614q-35 -125 -46 -176t-11 -102q0 -82 55 -136q67 -65 193 -65h4q193 0 303 168q66 100 129 332l119 428q2 6 16 67q23 94 23 129 q0 68 -60 96q-43 20 -104 21v51h426v-51q-84 -18 -113 -57q-37 -51 -96 -256l-135 -467q-55 -193 -95 -275q-68 -143 -172 -215q-127 -86 -327 -86q-182 0 -307 84q-141 96 -142 268z" />
<glyph unicode="V" horiz-adv-x="1366" d="M133 1319v51h610v-51q-90 0 -122.5 -16.5t-32.5 -73.5q0 -23 2 -35l104 -815l389 612q39 59 74 127q47 90 47 127q0 53 -32.5 60.5t-100.5 13.5v51h393v-51q-53 -16 -84 -41q-20 -16 -37 -41l-804 -1274h-66l-156 1043q-35 225 -61.5 269t-122.5 44z" />
<glyph unicode="W" horiz-adv-x="1820" d="M133 1321v49h567v-51q-66 -8 -88 -23q-37 -25 -37 -86q0 -20 3 -32l79 -709l308 631q0 139 -33 178q-25 29 -113 43v49h551v-51q-78 -6 -103.5 -26.5t-25.5 -92.5l12 -133l68 -598l319 664q23 45 27 62t4 42q0 51 -28.5 66.5t-100.5 15.5v51h383v-49q-59 -10 -86 -29 q-43 -31 -86 -121l-586 -1208h-59l-121 995l-477 -995h-59l-160 1186q-14 111 -36 132.5t-122 39.5z" />
<glyph unicode="X" horiz-adv-x="1366" d="M-49 0v51q47 14 67.5 25.5t55.5 40.5q84 74 250 254q119 131 239 262l-172 557q-23 72 -61.5 96.5t-124.5 32.5v51h624v-51q-88 -8 -100 -12q-51 -14 -51 -74q0 -23 41 -160q31 -106 63 -211l193 203q57 61 92 104q51 63 51 91q0 41 -28.5 47t-83.5 12v51h415v-51 q-63 -10 -103 -37t-99 -88l-408 -420l152 -485q43 -139 79 -178q45 -50 158 -60v-51h-631v51q68 0 97 12q43 18 43 68q0 57 -50 207q-35 100 -67 203l-275 -303q-18 -18 -36 -45q-25 -35 -25 -56q0 -45 49 -67q33 -14 84 -19v-51h-438z" />
<glyph unicode="Y" horiz-adv-x="1251" d="M150 0v51q102 8 133 27q47 29 73 121l123 442l-180 549q-27 80 -50.5 99.5t-98.5 29.5v51h579v-51q-86 0 -114.5 -17.5t-28.5 -56.5q0 -47 47 -190q55 -168 110 -334l265 381q37 53 45 74.5t8 58.5q0 43 -28.5 63.5t-108.5 20.5v51h426v-51q-49 -8 -88 -33.5t-99 -107.5 l-389 -547l-106 -391q-16 -51 -17 -99q0 -57 38 -73.5t120 -16.5v-51h-659z" />
<glyph unicode="Z" horiz-adv-x="1251" d="M-23 0v59l889 1239h-159q-197 0 -332 -98q-82 -59 -185 -203l-57 9l117 364h958v-59l-889 -1239h144q113 0 176 10q121 20 217 82q61 43 135 125q59 68 88 119l56 -11l-121 -397h-1037z" />
<glyph unicode="[" horiz-adv-x="681" d="M-76 -326l408 1706h409l-14 -71h-141q-55 0 -69.5 -18.5t-37.5 -110.5l-323 -1385q0 -25 15 -37t56 -12h160l-14 -72h-449z" />
<glyph unicode="\" horiz-adv-x="569" d="M-2 1403h174l399 -1440h-172z" />
<glyph unicode="]" horiz-adv-x="681" d="M-115 -322l15 72h139q55 0 69.5 17.5t36.5 107.5l324 1387q0 20 -18.5 33.5t-53.5 13.5h-159l14 71h450l-409 -1702h-408z" />
<glyph unicode="^" horiz-adv-x="1167" d="M137 623l365 747h164l364 -747h-182l-264 557l-265 -557h-182z" />
<glyph unicode="_" d="M0 -154h1024v-102h-1024v102z" />
<glyph unicode="`" horiz-adv-x="681" d="M174 1335q0 35 26.5 63.5t65.5 28.5q37 0 70 -24q18 -14 45 -45l227 -301h-92l-272 182q-35 25 -52.5 50.5t-17.5 45.5z" />
<glyph unicode="a" d="M-43 240q0 229 184.5 467.5t370.5 238.5q80 0 119 -49q27 -33 35 -90l39 113l227 14l-146 -483q-29 -98 -45 -160q-24 -92 -24 -140q0 -35 26 -34q29 0 86 67q31 37 60 76l43 -31q-66 -102 -133 -168q-94 -90 -176 -90q-43 0 -82 27q-55 39 -56 108q0 27 11 68 q4 18 16 62q-72 -115 -123 -166q-96 -96 -209 -97q-131 0 -186 107q-37 70 -37 160zM209 236q0 -63 33 -95q24 -22 57 -22q119 0 227 262q94 227 95 379q0 45 -20.5 72.5t-55.5 27.5q-115 0 -232 -262q-104 -233 -104 -362z" />
<glyph unicode="b" d="M-29 96q0 29 78 299.5t157 546t79 305.5q0 47 -30.5 57.5t-98.5 10.5v55q211 23 240.5 28t185.5 34l-181 -658l5 -4q61 82 116 123q74 53 162 53q98 0 161.5 -69.5t63.5 -188.5q0 -264 -200.5 -489.5t-452.5 -225.5q-119 0 -202 43t-83 80zM223 104q0 -41 29 -55 q16 -8 37 -8q154 0 268 248q96 207 96 379q0 55 -10 82q-23 57 -84 57q-94 0 -182 -182q-61 -131 -115 -338q-20 -92 -39 -183z" />
<glyph unicode="c" horiz-adv-x="909" d="M-10 289q0 238 183 447.5t394 209.5q115 0 175.5 -53t60.5 -127q0 -70 -35 -109t-94 -39q-45 0 -81 28t-36 79q0 33 21.5 72t21.5 47q0 16 -15.5 25.5t-31.5 9.5q-119 0 -217 -234q-84 -199 -84 -342q0 -111 51 -160q39 -39 98 -39q68 0 126 45.5t124 139.5l58 -37 q-94 -135 -160 -189q-109 -90 -254 -90q-119 0 -203 72q-102 86 -102 244z" />
<glyph unicode="d" d="M-43 233q0 236 185.5 474.5t365.5 238.5q57 0 98 -22q23 -12 56 -45q47 172 65 239q31 115 31 137q0 35 -22.5 48.5t-61.5 13.5h-43v55q168 0 284 23q109 29 144 37l-228 -830q-29 -104 -65 -242q-51 -193 -51 -210q0 -29 24 -29q29 0 80 65q32 43 55 82l46 -32 q-61 -100 -117 -158q-96 -100 -189 -101q-23 0 -43 7q-79 25 -79 116q0 45 20 136q-74 -117 -125 -168q-96 -94 -213 -95q-113 0 -172 97q-45 74 -45 163zM211 242q0 -51 21.5 -86t64.5 -35q125 0 240 293q94 240 94 340q0 45 -20.5 75.5t-57.5 30.5q-119 0 -238 -254 q-104 -225 -104 -364z" />
<glyph unicode="e" horiz-adv-x="909" d="M10 289q0 223 172 432q186 225 422 225q74 0 131 -37q80 -51 80 -147q0 -106 -115 -213q-147 -135 -411 -176q-12 -55 -13 -101q0 -82 33 -125t105 -43q74 0 139 64q39 37 96 123l60 -35q-76 -125 -136 -180q-111 -102 -256 -103q-117 0 -202 72q-104 88 -105 244z M303 438q178 47 262 172q61 90 62 199q0 37 -14.5 53.5t-45.5 16.5q-86 0 -168 -164q-63 -125 -96 -277z" />
<glyph unicode="f" horiz-adv-x="681" d="M-346 -248q0 43 36 72t68 29q29 0 66 -26t37 -75q0 -25 -10.5 -44t-22.5 -40q0 -25 33 -24q102 0 188 387q47 215 96.5 438t83.5 365h-149l18 86h150q57 229 162 358q123 152 303 152q117 0 168 -66q32 -42 32 -95q0 -58 -31.5 -85t-74.5 -27q-41 0 -69.5 28.5 t-28.5 74.5q0 23 16 51t16 30q0 29 -34 29q-68 0 -125 -121q-33 -72 -62 -184l-37 -145h189l-19 -86h-184q-106 -506 -158 -691q-82 -295 -178 -419q-109 -143 -280 -144q-88 0 -140 39q-59 45 -59 133z" />
<glyph unicode="g" d="M-23 -51q51 33 183 63q-55 27 -72 39q-49 39 -49 96q0 92 197 201q-164 61 -164 232q0 133 114 241q133 125 344 125q72 0 126.5 -17.5t95.5 -49.5h227v-115h-137q12 -43 12 -88q0 -162 -141 -266q-131 -96 -310 -97q-18 0 -51 8.5t-47 8.5q-18 0 -36.5 -27t-18.5 -43 q0 -25 24.5 -45t79.5 -37l109 -31q188 -53 250 -116q55 -57 55 -144q0 -121 -117 -204q-137 -98 -381 -99q-145 0 -250 47q-126 57 -126 162q0 102 83 156zM129 -298q57 -48 166 -48q131 0 190.5 39t59.5 104q0 37 -19.5 65.5t-56.5 46t-182 60.5q-20 6 -56 19 q-23 0 -84 -47q-75 -58 -75 -123q0 -68 57 -116zM309 508q0 -53 10 -78q20 -53 80 -53q96 0 162 151q53 123 53 228q0 49 -18 82q-25 45 -76 45q-98 0 -162 -162q-49 -125 -49 -213z" />
<glyph unicode="h" horiz-adv-x="1138" d="M-27 0l316 1161q4 16 10 44t6 42q0 43 -26.5 55.5t-77.5 12.5h-25v55q217 20 426 62l-217 -840q143 207 252 289q87 65 173 65h3q63 0 96 -20q63 -39 64 -146q0 -43 -58 -227q-66 -199 -129 -397q0 -35 35 -35q23 0 78 67q33 44 76 103l45 -31q-90 -139 -139 -188 q-92 -90 -205 -90q-63 0 -98 34.5t-35 89.5q0 80 58 266.5t122 379.5q0 16 -10.5 31.5t-36.5 15.5q-66 0 -166 -131q-31 -41 -83 -121t-114 -252q-43 -121 -92 -295h-248z" />
<glyph unicode="i" horiz-adv-x="569" d="M4 119q0 45 52.5 242.5t107.5 406.5q0 45 -30 55.5t-91 10.5v55q63 0 188 17.5t226 39.5q-66 -240 -131 -479q-74 -272 -74 -311q0 -31 31 -31q37 0 102 84q30 39 57 80l45 -29q-92 -141 -153 -199q-85 -79 -186 -79h-3q-78 0 -114 49q-27 37 -27 88zM262 1266 q0 45 36 90t99 45q59 0 100.5 -41t41.5 -98q0 -55 -42 -95.5t-100 -40.5q-63 0 -99 46.5t-36 93.5z" />
<glyph unicode="j" horiz-adv-x="569" d="M-387 -266q0 47 30.5 77.5t69.5 30.5q29 0 58 -18q43 -29 43 -82q0 -27 -15.5 -50.5t-15.5 -27.5q0 -6 12 -15t33 -9q80 0 149 268l189 727q10 43 17 75.5t7 59.5q0 39 -25.5 51.5t-101.5 12.5v55q102 8 194.5 17t231.5 40l-233 -897q-66 -250 -178 -366 q-102 -106 -248 -107q-117 0 -174 57q-43 43 -43 101zM295 1266q0 45 36 90t99 45q59 0 100 -41t41 -98q0 -55 -42 -95.5t-99 -40.5q-63 0 -99 46.5t-36 93.5z" />
<glyph unicode="k" d="M-47 0l319 1161q4 10 10.5 37t6.5 49q0 43 -26.5 55.5t-78.5 12.5h-24v55q211 20 426 62l-250 -932l4 -4q131 104 137 108q193 160 193 213q0 33 -27 42t-78 9v52h424v-52q-70 -10 -106 -28q-61 -31 -170 -127l-129 -113q92 -471 161 -471q35 0 74 49q16 20 51 82l45 -22 q-61 -113 -102 -160q-82 -94 -174 -94q-109 0 -170 133q-43 92 -84 323l-80 -55l-102 -385h-250z" />
<glyph unicode="l" horiz-adv-x="569" d="M4 119q0 57 71.5 316t145.5 520.5t74 299.5q0 37 -29.5 48.5t-77.5 11.5h-22v55q115 10 204 23.5t224 38.5l-297 -1072q-18 -66 -27 -102q-18 -78 -18 -102q0 -16 14 -25q4 -2 17 -6q37 0 102 84q30 39 57 80l45 -29q-92 -141 -143 -190q-90 -88 -201 -88q-88 0 -120 57 q-18 33 -19 80z" />
<glyph unicode="m" horiz-adv-x="1593" d="M-29 0q41 147 148 524q61 215 61 256q0 31 -23.5 42.5t-86.5 11.5v55q174 14 243.5 23.5t165.5 31.5l-123 -381l6 -4q90 139 142 203q147 184 293 184q59 0 97 -33.5t38 -103.5q0 -53 -17 -111q-8 -29 -30 -86q104 160 174 228q109 106 221 106q80 0 121 -45t41 -117 q0 -76 -91 -339t-91 -293q0 -31 34 -31q29 0 88 82q31 43 52 73l45 -26q-70 -119 -123 -174q-92 -94 -199 -94q-53 0 -84 16q-59 31 -59 117q0 74 58 258t122 377q0 47 -49 47q-55 0 -133 -97q-51 -63 -94 -141q-51 -88 -91.5 -198.5t-115.5 -360.5h-246q225 729 225 748 q0 49 -39 49q-29 0 -76 -39q-82 -66 -161 -219q-111 -209 -195 -539h-248z" />
<glyph unicode="n" horiz-adv-x="1138" d="M-12 0q39 147 143 518q66 233 66 262q0 35 -27 44.5t-84 9.5v55q57 0 173 14.5t237 40.5l-123 -381l6 -4q141 207 207 275q110 112 227 112h2q84 0 120 -40t36 -122q0 -66 -56 -239q-61 -195 -122 -387q0 -37 30 -37q31 0 82 69q31 43 60 86l45 -26q-70 -119 -125 -174 q-92 -94 -197 -94q-70 0 -106.5 32.5t-36.5 100.5q0 74 58.5 260t121.5 379q0 18 -15.5 31.5t-35.5 13.5q-41 0 -96 -51q-80 -72 -158 -230q-104 -209 -184 -518h-248z" />
<glyph unicode="o" d="M-6 279q0 246 172 452q180 215 416 215q68 0 135 -26q186 -74 186 -289q0 -240 -168 -443q-178 -215 -413 -215q-135 0 -228 78q-100 84 -100 228zM263.5 66.5q25.5 -33.5 80.5 -33.5q129 0 231 303q84 250 84 420q0 72 -25.5 101.5t-72.5 29.5q-143 0 -244 -305 q-79 -239 -79 -402q0 -80 25.5 -113.5z" />
<glyph unicode="p" d="M-246 -365q66 0 88 15q37 25 60 112q104 401 123 476q47 184 96 368q37 147 37 172q0 43 -31 49.5t-80 6.5v55q102 12 191.5 23.5t203.5 33.5l-69 -211l6 -6q74 113 154.5 165t152.5 52q102 0 160 -57q68 -66 67 -201q0 -246 -172 -475q-180 -240 -393 -240 q-35 0 -62.5 9.5t-78.5 35.5q-37 -137 -56.5 -214.5t-19.5 -98.5q0 -45 33 -57.5t100 -12.5v-55h-510v55zM231 125q0 -33 20.5 -56.5t61.5 -23.5q131 0 246 270q98 231 98 381q0 47 -22.5 76t-59.5 29q-55 0 -109 -52.5t-87 -121t-90.5 -266t-57.5 -236.5z" />
<glyph unicode="q" d="M2 266q0 203 178 436q186 244 373 244q88 0 123 -45q23 -29 33 -94l32 113h224q-43 -164 -119 -430.5t-147.5 -522.5t-71.5 -270q0 -41 28.5 -51.5t75.5 -10.5h29v-55h-547v55q68 0 94 9q59 18 90 120l123 418l-4 4q-55 -90 -115 -141q-84 -72 -184 -72q-137 0 -188 121 q-27 63 -27 172zM258 252q0 -57 10 -84q18 -47 74 -47q125 0 233 274q90 227 91 361q0 45 -16.5 73.5t-57.5 28.5q-113 0 -230 -246q-104 -221 -104 -360z" />
<glyph unicode="r" horiz-adv-x="796" d="M-43 0q78 262 102 350q41 141 74 271.5t33 156.5q0 43 -31 49.5t-80 6.5v55q178 16 185 16q113 12 225 41l-115 -364l10 -4q76 152 132 229q98 139 186 139q51 0 85 -33.5t34 -101.5t-35 -108.5t-86 -40.5q-41 0 -78 38.5t-45 38.5q-39 0 -109 -114q-57 -94 -100 -199 q-23 -57 -49 -143q-70 -221 -90 -283h-248z" />
<glyph unicode="s" horiz-adv-x="796" d="M-39 -27l45 340l55 -6q14 -135 68.5 -203.5t128.5 -68.5q55 0 86 34.5t31 77.5q0 37 -33 95.5t-82 115.5q-88 100 -121 164q-43 80 -43 168q0 129 86 197q74 59 189 59q55 0 110.5 -22.5t83.5 -22.5q23 0 32 7t26 36h59l-47 -313l-55 4q-20 133 -72 192q-43 51 -109 52 q-68 0 -94 -52q-14 -27 -14 -59q0 -29 190 -297q90 -127 90 -223q0 -135 -104 -211q-88 -63 -203 -64q-53 0 -131 27q-41 14 -57 14q-20 0 -36.5 -10t-23.5 -31h-55z" />
<glyph unicode="t" horiz-adv-x="569" d="M-23 119q0 55 61.5 272t127.5 443h-105v71q98 39 164 84q119 84 211 228h72l-80 -297h147v-86h-169q-25 -88 -76 -271q-37 -127 -70 -255t-33 -152q0 -16 15 -25q4 -2 16 -6q25 0 67 43t91 121l45 -29q-63 -98 -96 -139q-115 -139 -240 -139q-72 0 -110 37.5t-38 99.5z " />
<glyph unicode="u" horiz-adv-x="1138" d="M31 141q0 74 76.5 327t76.5 306q0 37 -27.5 48.5t-86.5 11.5v55q98 0 207.5 18.5t220.5 38.5l-193 -631q-18 -59 -24.5 -84.5t-6.5 -52.5q0 -23 8.5 -36t39.5 -13q53 0 137 102q57 72 96 142q51 92 89 189t114 358h241q-74 -244 -120 -408q-90 -311 -91 -352 q0 -39 31 -39q25 0 62 38.5t84 112.5l43 -26q-53 -96 -113 -158q-102 -106 -213 -106q-49 0 -80 14q-57 27 -57 100q0 57 14 119q6 29 31 100q-109 -145 -156 -198q-121 -135 -246 -135q-80 0 -118.5 36.5t-38.5 122.5z" />
<glyph unicode="v" horiz-adv-x="909" d="M33 834v55q143 20 153 22q72 12 164 35q37 -133 50.5 -268t13.5 -416q152 170 209 258q49 76 49 125q0 31 -45 82t-45 102q0 49 35.5 83t74.5 34q47 0 88 -39t41 -100q0 -145 -166 -371q-152 -207 -428 -463h-53l8 279v90q0 158 -5 223.5t-22.5 149.5t-39 101.5 t-82.5 17.5z" />
<glyph unicode="w" horiz-adv-x="1366" d="M33 834v55q84 12 133 20q127 27 184 37q35 -125 51.5 -249t16.5 -308q160 279 319 557h56l65 -680q98 115 148 183q96 131 96 184q0 35 -42 93t-42 99q0 45 31.5 83t83.5 38q45 0 79 -31q45 -39 45 -102q0 -125 -151.5 -350t-405.5 -490h-55l-47 578q-57 -102 -106 -189 q-92 -162 -125 -212l-117 -177h-55l4 174l-4 160q0 217 -39 414q-16 80 -36.5 96.5t-86.5 16.5z" />
<glyph unicode="x" d="M-94 96q0 41 30.5 77t81.5 36q43 0 78 -21.5t49 -21.5q31 0 58 29q16 16 39 55l90 143l-62 316q-16 90 -53 118q-23 18 -63 19l-70 -4v55l342 49q29 -41 47.5 -97t44.5 -185q115 162 183.5 222t146.5 60q47 0 80 -42t33 -85t-32 -74.5t-83 -31.5q-29 0 -63.5 20.5 t-57.5 20.5q-45 0 -109 -82q-61 -92 -75 -113l65 -319q12 -55 21 -72q18 -37 57 -37q29 0 61 33q23 22 74 88l43 -29q-72 -104 -121 -153q-96 -96 -184 -97q-76 0 -121 68q-53 78 -82 250l-63 -105q-74 -123 -129.5 -168t-128.5 -45q-72 0 -105 50q-23 33 -22 73z" />
<glyph unicode="y" horiz-adv-x="909" d="M-193 -297q0 51 34 82t75 31q20 0 54 -12.5t48.5 -22.5t42 -23.5t43.5 -13.5q47 0 113 78q74 86 74 166q0 68 -39 280q-23 127 -53 262q-49 223 -76.5 267.5t-93.5 44.5v55q180 16 305 49q25 -61 68.5 -253.5t66.5 -313.5l25 -148q92 172 124 242q53 117 54 168 q0 41 -56.5 81t-56.5 109q0 39 34 77t81 38q51 0 90 -37t39 -90q0 -152 -133 -426q-55 -113 -150 -270q-168 -276 -297 -402q-147 -141 -295 -141q-53 0 -87 39t-34 84z" />
<glyph unicode="z" horiz-adv-x="796" d="M-88 -2l598 725h-297q-43 0 -71.5 -24.5t-57.5 -100.5l-57 6l88 316h639v-21l-576 -686q131 -51 230 -238q40 -75 87 -75h1q18 0 30.5 10t12.5 20q0 12 -20.5 39t-20.5 62q0 37 28.5 69.5t71.5 32.5q37 0 68 -22q43 -33 43 -88q0 -63 -52 -117q-61 -66 -168 -66 q-113 0 -243.5 85t-173.5 85q-29 0 -47 -12q-2 -2 -62 -45z" />
<glyph unicode="{" horiz-adv-x="712" d="M10 510q135 29 194.5 81t86.5 157l94 366q45 176 176 240q104 51 332 51l-6 -25q-127 -23 -190.5 -82t-92.5 -172l-92 -350q-29 -117 -86 -172q-68 -66 -215 -92q104 -29 142 -62.5t38 -99.5q0 -55 -60.5 -272t-60.5 -273q0 -66 31 -102q39 -47 135 -61l-6 -25 q-211 0 -292 45t-81 148q0 66 62.5 291t62.5 255q0 63 -40 97t-132 57z" />
<glyph unicode="|" horiz-adv-x="450" d="M135 -37v1440h180v-1440h-180z" />
<glyph unicode="}" horiz-adv-x="712" d="M-264 -383l6 25q127 23 190.5 82t92.5 172l92 350q29 117 86 172q68 66 215 92q-104 29 -142 62.5t-38 99.5q0 55 60 272t60 273q0 66 -30 102q-39 47 -135 61l6 25q211 0 291.5 -45t80.5 -148q0 -66 -62.5 -291t-62.5 -255q0 -63 40 -97t132 -57q-135 -29 -194 -81 t-86 -157l-94 -366q-45 -176 -176 -240q-104 -51 -332 -51z" />
<glyph unicode="~" horiz-adv-x="1167" d="M111 498q41 80 92 120q68 55 164 56q51 0 110 -19q39 -12 117 -47q55 -25 114.5 -49t94.5 -24q53 0 102 47q33 30 78 100l74 -143q-63 -88 -103 -121q-68 -55 -153 -56q-66 0 -133 29q-18 8 -75.5 40t-107.5 48q-66 23 -129 23q-59 0 -106 -47q-37 -37 -66 -101z" />
<glyph unicode="&#xa0;" />
<glyph unicode="&#xa1;" horiz-adv-x="796" d="M39 -268q0 35 7 60.5t22 53.5q86 160 175 356.5t152 360.5l60 -16q-51 -266 -70 -375q-41 -248 -41 -395q0 -76 -37 -129q-45 -68 -129 -68q-47 0 -82 25q-57 41 -57 127zM356 864q0 57 43 100.5t111 43.5t108.5 -41t40.5 -103q0 -70 -45 -110.5t-102 -40.5 q-66 0 -111 45t-45 106z" />
<glyph unicode="&#xa2;" d="M86 289q0 242 183.5 449.5t392.5 207.5l65 -6l84 240h72l-92 -260q53 -27 80.5 -69t27.5 -93q0 -61 -39 -100.5t-90 -39.5q-49 0 -76 23l-188 -535q66 0 131 54q55 45 111 129l55 -37q-90 -125 -139 -172q-88 -82 -203 -100l-96 -273h-70l94 266q-111 0 -192 64 q-111 84 -111 252zM346 313q0 -61 14 -104q23 -69 78 -92l256 729q2 12 -9 22.5t-40 10.5q-113 0 -213 -232q-86 -199 -86 -334z" />
<glyph unicode="&#xa3;" d="M-66 150q0 88 54.5 135t134.5 47q43 0 70.5 -7.5t62.5 -21.5q18 166 39 332h-223l20 123h215q47 279 160 438q86 121 207 172q74 31 143 31q92 0 154 -43q74 -51 73 -146q0 -63 -38.5 -100t-85.5 -37q-37 0 -70 25q-39 31 -39 80q0 29 5 56.5l9 49.5q0 27 -18.5 36 t-28.5 9q-96 0 -125 -158l-80 -413h234l-21 -123h-235q-14 -76 -55 -184.5t-76 -161.5l-23 -35q76 -31 140.5 -48.5t101.5 -17.5q94 0 139 37q29 25 60 92h51q-29 -160 -103 -245q-82 -96 -217 -97q-66 0 -135 39q-51 29 -115 86q-35 -57 -65 -80q-55 -43 -141 -43 q-78 0 -128.5 50.5t-50.5 122.5zM-4 137q0 -49 36 -73.5t79 -24.5q51 0 84 47q27 39 36 98q-35 33 -67.5 47.5t-63.5 14.5q-55 0 -79.5 -30t-24.5 -79z" />
<glyph unicode="&#xa4;" d="M-53 188l200 201q-76 102 -75 248q0 76 19.5 136.5t55.5 111.5l-200 200l119 115l196 -196q106 72 248 71q80 0 139.5 -17.5t112.5 -53.5l196 196l119 -115l-200 -200q33 -49 54 -114.5t21 -133.5q0 -152 -75 -248l200 -201l-119 -118l-196 200q-49 -33 -115.5 -54 t-136.5 -21q-72 0 -133.5 19t-114.5 56l-196 -200zM252 637q0 -113 74.5 -194t183.5 -81q113 0 187.5 81t74.5 194q0 109 -74.5 189.5t-187.5 80.5q-111 0 -184.5 -79.5t-73.5 -190.5z" />
<glyph unicode="&#xa5;" d="M68 336l28 102h289l45 160h-291l29 102h256l-162 490q-33 80 -58.5 99.5t-109.5 29.5v51h574v-51q-92 0 -123 -17.5t-31 -56.5q0 -29 69.5 -240.5t106.5 -299.5l277 397q37 53 45 74.5t8 58.5q0 43 -29.5 63.5t-113.5 20.5v51h409v-51q-61 -10 -108 -49q-37 -31 -82 -92 l-340 -478h276l-26 -102h-308l-43 -160h312l-29 -102h-311q-20 -80 -29.5 -125t-9.5 -70q0 -57 39 -73.5t127 -16.5v-51h-660v51q106 0 146 23q51 29 77 125l39 137h-288z" />
<glyph unicode="&#xa6;" horiz-adv-x="450" d="M135 -37v531h180v-531h-180zM135 872v531h180v-531h-180z" />
<glyph unicode="&#xa7;" d="M74 -78q0 57 34.5 90t81.5 33q57 0 91 -33q27 -27 26 -71q0 -51 -35.5 -83t-35.5 -46q0 -31 71 -50q31 -8 64 -8q61 0 108 29q70 41 70 125q0 80 -170 287l-135 163q-45 55 -75 121t-30 125q0 127 74 203q63 63 141 63q23 0 49.5 -3t49.5 -9l4 6q-49 49 -81 123t-32 139 q0 123 87 200t220 77q141 0 221 -66q68 -55 68 -133q0 -66 -43 -100q-33 -27 -76 -27q-47 0 -79.5 33t-32.5 76t49 82q25 20 24 35q0 20 -34.5 37.5t-88.5 17.5q-82 0 -127 -45t-45 -107q0 -70 64 -157q10 -14 76 -93l141 -165q43 -49 76 -115q47 -92 47 -174 q0 -113 -73 -183.5t-167 -70.5q-16 0 -28.5 2t-32.5 6l-4 -8q55 -68 76 -107q45 -82 45 -159q0 -115 -98.5 -195t-233.5 -80q-131 0 -216 62.5t-85 152.5zM285 696q0 -66 65 -161q37 -53 72 -89q84 -92 120 -117.5t83 -25.5t80 29q41 35 40 98q0 90 -129 239.5t-213 149.5 q-53 0 -85.5 -32t-32.5 -91z" />
<glyph unicode="&#xa8;" horiz-adv-x="681" d="M113 1206q0 55 37.5 95t93.5 40q55 0 95 -39.5t40 -95.5q0 -59 -44 -95t-89 -36t-84 31q-49 39 -49 100zM547 1206q0 55 38 95t93 40t95 -39.5t40 -95.5q0 -59 -44 -95t-89 -36t-84 31q-49 39 -49 100z" />
<glyph unicode="&#xa9;" horiz-adv-x="1529" d="M61 682q0 301 204 511t501 210q295 0 499.5 -209t204.5 -512t-203.5 -511t-500.5 -208q-295 0 -500 209t-205 510zM186 682q0 -256 169 -440.5t411 -184.5t411 185.5t169 439.5t-170 440.5t-410 186.5q-242 0 -411 -185.5t-169 -441.5zM369 700q0 154 104 267 q125 135 348 135q78 0 127 -10q23 -4 86 -27q45 -14 45 -43v-145h-35q-12 78 -59 124q-59 59 -168 60q-135 0 -204.5 -95.5t-69.5 -254.5q0 -174 68.5 -275.5t215.5 -101.5q94 0 160 51q55 43 90 127h37l-35 -147q0 -16 -11 -22.5t-47 -19t-93.5 -24.5t-120.5 -12 q-197 0 -311 98q-127 109 -127 315z" />
<glyph unicode="&#xaa;" horiz-adv-x="544" d="M33 979q0 139 118.5 281.5t243.5 142.5q51 0 78 -31q16 -18 23 -53l24 65l156 9l-94 -287q-16 -53 -30.5 -102.5t-14.5 -79.5q0 -10 3 -12.5t5 -2.5q18 -2 45 23q4 4 51 59l27 -18q-39 -59 -86 -101q-61 -55 -115 -55q-29 0 -53 17q-35 23 -35 65q0 20 16 76l-6 2 q-33 -61 -74 -98q-63 -59 -135 -60q-86 0 -123 64q-25 43 -24 96zM193 977q0 -35 22 -53q7 -7 23 -13q76 0 147 156q61 135 61 223q0 31 -18 47q-6 4 -18 11q-70 0 -148 -156q-70 -141 -69 -215z" />
<glyph unicode="&#xab;" d="M25 444v19l370 270q82 72 111 94.5t45 22.5q29 0 29 -25q0 -53 -150 -215q-75 -79 -149 -159l81 -170q27 -53 41 -88q27 -63 27 -95q0 -33 -29 -32q-10 0 -16 4t-33 34q-66 70 -159 168q-82 84 -168 172zM403 444v19l371 270q82 72 110.5 94.5t45.5 22.5q29 0 28 -25 q0 -53 -149 -215q-76 -79 -150 -159l82 -170q27 -53 41 -88q27 -63 27 -95q0 -33 -29 -32q-10 0 -16 4t-33 34q-66 70 -160 168q-82 84 -168 172z" />
<glyph unicode="&#xac;" horiz-adv-x="1241" d="M104 637v180h1033v-596h-181v416h-852z" />
<glyph unicode="&#xad;" horiz-adv-x="1241" d="M104 428v180h1033v-180h-1033z" />
<glyph unicode="&#xae;" horiz-adv-x="1529" d="M61 682q0 301 204 511t501 210q295 0 499.5 -209t204.5 -512t-203.5 -511t-500.5 -208q-295 0 -500 209t-205 510zM186 682q0 -256 169 -440.5t411 -184.5t411 185.5t169 439.5t-170 440.5t-410 186.5q-242 0 -411 -185.5t-169 -441.5zM430 309v33q74 8 85 19.5t11 78.5 v510v29q0 41 -14 51.5t-82 16.5v32h375q104 0 171.5 -48t67.5 -144q0 -78 -44 -134.5t-121 -80.5l120 -168q90 -125 152 -172v-23h-143q-39 0 -101 101q-135 223 -145 239h-90v-209q0 -68 11 -79t87 -19v-33h-340zM672 690h84q70 0 104.5 51.5t34.5 137.5q0 84 -38 120.5 t-103 36.5h-82v-346z" />
<glyph unicode="&#xaf;" horiz-adv-x="681" d="M104 1133l35 143h666l-33 -143h-668z" />
<glyph unicode="&#xb0;" horiz-adv-x="819" d="M170 1106q0 123 85 208t208 85t208 -85t85 -208t-85 -208t-208 -85t-208 85t-85 208zM254 1106q0 -90 60.5 -154.5t148.5 -64.5q86 0 147.5 65.5t61.5 153.5q0 90 -60.5 154.5t-148.5 64.5q-86 0 -147.5 -65.5t-61.5 -153.5z" />
<glyph unicode="&#xb1;" horiz-adv-x="1167" d="M68 0v180h1032v-180h-1032zM68 555v180h426v301h180v-301h426v-180h-426v-293h-180v293h-426z" />
<glyph unicode="&#xb2;" horiz-adv-x="614" d="M4 561v33q78 74 182 174q70 68 121 123q90 102 117 151.5t27 90.5q0 70 -29 105.5t-92 35.5q-61 0 -113 -41q-47 -49 -55 -57l-37 22q39 78 96 127q86 74 203 74q98 0 157.5 -63.5t59.5 -141.5q0 -80 -61 -162q-49 -68 -127 -123l-252 -202l178 -5q80 0 113.5 18.5 t70.5 74.5h33l-104 -234h-488z" />
<glyph unicode="&#xb3;" horiz-adv-x="614" d="M35 637q0 92 76 92q29 0 54 -20.5t64 -75.5q16 -23 60 -23q57 0 99 54.5t42 128.5q0 192 -205 192l4 29q123 20 185.5 64t62.5 110q0 41 -22 69q-29 37 -86 37q-53 0 -97 -28q-27 -18 -61 -58l-29 27q49 76 105 113q74 51 172 51q74 0 136 -44t62 -124q0 -47 -26 -86 q-37 -51 -121 -90l-14 -8q53 -35 75 -68q31 -45 31 -117q0 -131 -116.5 -225t-272.5 -94q-84 0 -131 25.5t-47 68.5z" />
<glyph unicode="&#xb4;" horiz-adv-x="681" d="M285 1057l250 268q33 35 55 55q49 47 86 47t68.5 -24.5t31.5 -71.5q0 -31 -19.5 -52.5t-60.5 -43.5l-311 -178h-100z" />
<glyph unicode="&#xb5;" horiz-adv-x="1179" d="M-123 -299q0 72 41 172q94 233 111 279l227 768h276l-190 -639q-14 -51 -14 -84q0 -53 41 -54q61 0 161.5 140.5t145.5 300.5l104 336h277l-213 -689l-10 -51q0 -33 26 -33q33 0 88 72q31 43 39 55l43 -32q-102 -137 -143 -176q-96 -92 -201 -93q-59 0 -93 38t-34 89 q0 27 4 55.5t17 73.5q-57 -96 -105 -145q-78 -84 -149 -84q-37 0 -62.5 6t-75.5 43q-25 -74 -36 -148.5t-11 -150.5q0 -74 -48 -124t-111 -50q-49 0 -77 29.5t-28 95.5z" />
<glyph unicode="&#xb6;" d="M-117 -395l15 51q102 10 131.5 20.5t40.5 34.5q25 59 45 150l174 667q-162 0 -236 84q-61 70 -61 199q0 90 37 205q45 143 118 219q57 59 132 90q106 45 268 45h604l-12 -51q-106 -10 -136 -20.5t-41.5 -38t-23.5 -70.5t-20 -76l-326 -1253q-14 -61 -19 -82 q-12 -49 -14 -68q0 -33 64 -45q20 -4 86 -10l-15 -51h-350l444 1714h-112l-445 -1714h-348zM154 809q0 -78 40.5 -142t106.5 -87l193 739q-98 -23 -147.5 -56.5t-100.5 -117.5q-39 -61 -65.5 -158.5t-26.5 -177.5z" />
<glyph unicode="&#xb7;" horiz-adv-x="512" d="M104 678q0 61 43 106t109 45q63 0 107.5 -44t44.5 -107q0 -66 -43 -109t-109 -43q-68 0 -110 44t-42 108z" />
<glyph unicode="&#xb8;" horiz-adv-x="681" d="M-164 -395l45 67q37 -16 70 -25t72 -9q51 0 80.5 21.5t29.5 61.5q0 33 -22.5 53.5t-71.5 20.5q-20 0 -30.5 -1t-33.5 -7l-26 25l135 198h90l-92 -137l53 6q61 0 111 -26q74 -39 73 -121q0 -88 -86 -138q-74 -41 -170 -40q-68 0 -141 20q-35 10 -86 31z" />
<glyph unicode="&#xb9;" horiz-adv-x="614" d="M61 561v39q53 0 82 10q49 18 72 70q57 180 116.5 369.5t59.5 205.5q-4 33 -37 41q-4 0 -14 2l-90 -6l4 43q141 20 219 35q98 20 143 29l-204 -676q-8 -29 -10.5 -43t-2.5 -25q0 -37 26 -46t95 -9v-39h-459z" />
<glyph unicode="&#xba;" horiz-adv-x="614" d="M115 1001q0 150 114.5 276t270.5 126q68 0 125 -33q86 -50 86 -156q0 -143 -114 -269t-267 -126q-86 0 -150.5 49.5t-64.5 132.5zM281 940q0 -43 14 -61.5t45 -18.5q84 0 149 178q56 150 56 250q0 41 -15.5 57.5t-35.5 16.5q-94 0 -160 -180q-53 -145 -53 -242z" />
<glyph unicode="&#xbb;" d="M25 90q0 53 149 215q74 80 150 160l-82 170q-27 53 -41 88q-27 63 -27 94q0 33 29 33q10 0 16 -4t33 -35q66 -70 160 -168q82 -84 168 -172v-18l-371 -271q-82 -72 -110.5 -94t-45.5 -22q-29 0 -28 24zM403 90q0 53 150 215q73 80 149 160l-81 170q-27 53 -41 88 q-27 63 -27 94q0 33 29 33q10 0 16 -4t33 -35q66 -70 160 -168q82 -84 167 -172v-18l-370 -271q-82 -72 -110.5 -94t-45.5 -22q-29 0 -29 24z" />
<glyph unicode="&#xbc;" horiz-adv-x="1536" d="M14 561v39q53 0 82 10q49 18 72 70q57 180 116.5 369.5t59.5 205.5q-4 33 -37 41q-4 0 -14 2l-90 -6l4 43q141 20 219 35q98 20 143 29l-204 -676q-8 -29 -10.5 -43t-2.5 -25q0 -37 25.5 -46t95.5 -9v-39h-459zM279 -29l890 1428h119l-891 -1428h-118zM780 180l33 137 l569 523h95l-160 -535h92l-35 -125h-90l-57 -180h-176l55 180h-326zM870 305h271l104 340l-2 -4l-4 4z" />
<glyph unicode="&#xbd;" horiz-adv-x="1536" d="M-18 561v39q53 0 81 10q49 18 72 70q57 180 116.5 369.5t59.5 205.5q-4 33 -37 41q-4 0 -14 2l-90 -6l4 43q141 20 219 35q98 20 144 29l-205 -676q-8 -29 -10.5 -43t-2.5 -25q0 -37 26 -46t95 -9v-39h-458zM248 -29l891 1428h118l-890 -1428h-119zM844 0v33 q78 74 182 174q70 68 121 123q90 102 116.5 151t26.5 90q0 70 -28.5 106t-92.5 36q-61 0 -112 -41q-47 -49 -56 -58l-36 23q39 78 96 127q86 74 203 74q98 0 157.5 -63.5t59.5 -141.5q0 -80 -62 -162q-49 -68 -127 -123l-252 -203l179 -4q80 0 113.5 18.5t70.5 73.5h33 l-105 -233h-487z" />
<glyph unicode="&#xbe;" horiz-adv-x="1536" d="M14 637q0 92 76 92q29 0 54.5 -20.5t64.5 -75.5q16 -23 59 -23q57 0 99.5 54.5t42.5 128.5q0 192 -205 192l4 29q123 20 185.5 64t62.5 110q0 41 -23 69q-29 37 -86 37q-53 0 -96 -28q-27 -18 -62 -58l-28 27q49 76 104 113q74 51 172 51q74 0 136.5 -44t62.5 -124 q0 -47 -27 -86q-37 -51 -121 -90l-14 -8q53 -35 76 -68q31 -45 31 -117q0 -131 -117 -225t-272 -94q-84 0 -131.5 25.5t-47.5 68.5zM289 -29l891 1428h118l-890 -1428h-119zM791 180l32 137l570 523h94l-160 -535h92l-35 -125h-90l-57 -180h-176l55 180h-325zM881 305h270 l104 340l-2 -4l-4 4z" />
<glyph unicode="&#xbf;" d="M61 -125q0 109 78 201q59 70 180 149l136 88q61 39 98 97q27 41 70 145l59 -14q-6 -76 -27 -129q-33 -90 -118 -197l-84 -104q-61 -76 -93 -140q-39 -80 -38 -159q0 -92 47 -136q37 -33 96 -32q45 0 85 23.5t40 53.5q0 14 -30 56.5t-30 83.5q0 51 37 86t88 35 q55 0 90 -39t35 -97q0 -111 -92 -184q-100 -82 -262 -82q-203 0 -297 111q-68 80 -68 184zM559 856q0 61 43 106.5t109 45.5q63 0 107 -44t44 -108q0 -66 -43 -108.5t-108 -42.5q-68 0 -110 44t-42 107z" />
<glyph unicode="&#xc0;" horiz-adv-x="1366" d="M-137 0v51q55 14 78 31q39 29 92 113l762 1204h51l196 -1172q18 -119 48 -145q22 -21 124 -31v-51h-622v51q86 8 115 23q47 25 47 92q0 43 -2 61q-14 90 -29 199h-440l-121 -209q-8 -14 -19.5 -44t-11.5 -50q0 -35 32 -53.5t101 -18.5v-51h-401zM330 508h379l-76 498z M526 1759q0 35 26.5 63.5t65.5 28.5q37 0 70 -24q18 -14 45 -45l227 -301h-92l-272 182q-35 25 -52.5 50.5t-17.5 45.5z" />
<glyph unicode="&#xc1;" horiz-adv-x="1366" d="M-137 0v51q55 14 78 31q39 29 92 113l762 1204h51l196 -1172q18 -119 48 -145q22 -21 124 -31v-51h-622v51q86 8 115 23q47 25 47 92q0 43 -2 61q-14 90 -29 199h-440l-121 -209q-8 -14 -19.5 -44t-11.5 -50q0 -35 32 -53.5t101 -18.5v-51h-401zM330 508h379l-76 498z M637 1481l250 268q33 35 55 55q49 47 86 47t68.5 -24.5t31.5 -71.5q0 -31 -19.5 -52.5t-60.5 -43.5l-311 -178h-100z" />
<glyph unicode="&#xc2;" horiz-adv-x="1366" d="M-137 0v51q55 14 78 31q39 29 92 113l762 1204h51l196 -1172q18 -119 48 -145q22 -21 124 -31v-51h-622v51q86 8 115 23q47 25 47 92q0 43 -2 61q-14 90 -29 199h-440l-121 -209q-8 -14 -19.5 -44t-11.5 -50q0 -35 32 -53.5t101 -18.5v-51h-401zM330 508h379l-76 498z M465 1481l328 356h165l177 -356h-105l-180 194l-268 -194h-117z" />
<glyph unicode="&#xc3;" horiz-adv-x="1366" d="M-137 0v51q55 14 78 31q39 29 92 113l762 1204h51l196 -1172q18 -119 48 -145q22 -21 124 -31v-51h-622v51q86 8 115 23q47 25 47 92q0 43 -2 61q-14 90 -29 199h-440l-121 -209q-8 -14 -19.5 -44t-11.5 -50q0 -35 32 -53.5t101 -18.5v-51h-401zM330 508h379l-76 498z M440 1524q20 82 43 121q70 121 197 120q53 0 129 -26q168 -59 174 -60q47 0 74 29q15 16 35 57h84q-25 -98 -60 -147q-66 -96 -182 -96q-29 0 -56.5 7t-58.5 19l-121 47q-10 4 -30.5 10.5t-42.5 6.5q-45 0 -70 -29q-14 -16 -33 -59h-82z" />
<glyph unicode="&#xc4;" horiz-adv-x="1366" d="M-137 0v51q55 14 78 31q39 29 92 113l762 1204h51l196 -1172q18 -119 48 -145q22 -21 124 -31v-51h-622v51q86 8 115 23q47 25 47 92q0 43 -2 61q-14 90 -29 199h-440l-121 -209q-8 -14 -19.5 -44t-11.5 -50q0 -35 32 -53.5t101 -18.5v-51h-401zM330 508h379l-76 498z M455 1630q0 55 37.5 95t93.5 40q55 0 95 -39.5t40 -95.5q0 -59 -44 -95t-89 -36t-84 31q-49 39 -49 100zM889 1630q0 55 38 95t93 40t95 -39.5t40 -95.5q0 -59 -44 -95t-89 -36t-84 31q-49 39 -49 100z" />
<glyph unicode="&#xc5;" horiz-adv-x="1366" d="M-137 0v51q55 14 78 31q39 29 92 113l762 1204h51l196 -1172q18 -119 48 -145q22 -21 124 -31v-51h-622v51q86 8 115 23q47 25 47 92q0 43 -2 61q-14 90 -29 199h-440l-121 -209q-8 -14 -19.5 -44t-11.5 -50q0 -35 32 -53.5t101 -18.5v-51h-401zM330 508h379l-76 498z M582 1669q0 92 64.5 154.5t154.5 62.5t153.5 -63.5t63.5 -153.5t-62.5 -154.5t-154.5 -64.5q-88 0 -153.5 63.5t-65.5 155.5zM680 1669q0 -41 27 -76q35 -45 90 -45q53 0 88 35t35 84t-36 85t-87 36q-55 0 -86 -38t-31 -81z" />
<glyph unicode="&#xc6;" horiz-adv-x="1933" d="M-131 0v51q51 8 71.5 25.5t108.5 132.5l750 967q12 14 26.5 42.5t14.5 45.5q0 59 -166 59v47h1206l-92 -389l-49 10l-4 82q0 125 -103 184q-82 47 -223 48q-76 0 -96.5 -12.5t-30.5 -53.5l-133 -481q172 0 246 35q92 43 151 182l53 -8l-149 -559l-51 10l6 92 q0 109 -58.5 145.5t-213.5 36.5l-129 -493q-4 -20 -7.5 -33.5t-3.5 -24.5q0 -45 39 -63q27 -12 60 -12q227 0 354 75.5t242 266.5l53 -7l-121 -401h-1079v51q80 12 102 33q32 27 57 113l95 325h-394l-233 -321q-12 -16 -21.5 -39t-9.5 -39q0 -39 37 -55.5t94 -16.5v-51h-399 zM461 602h354l189 682h-25z" />
<glyph unicode="&#xc7;" horiz-adv-x="1366" d="M66 492q0 358 231 626q246 285 606 285q84 0 172 -19q84 -20 168 -41q31 0 46.5 13.5t35.5 46.5h61l-104 -479l-65 12l6 70q0 152 -71 238.5t-202 86.5q-231 0 -407 -309q-162 -285 -162 -584q0 -182 83 -274t212 -92t225 49q109 55 217 192l62 -45q-88 -131 -217 -211 q-154 -94 -340 -94q-223 0 -379 125q-178 143 -178 404zM178 -395l45 67q37 -16 70 -25t72 -9q51 0 80.5 21.5t29.5 61.5q0 33 -22.5 53.5t-71.5 20.5q-20 0 -30.5 -1t-33.5 -7l-26 25l135 198h90l-92 -137l53 6q61 0 111 -26q74 -39 73 -121q0 -88 -86 -138 q-74 -41 -170 -40q-68 0 -141 20q-35 10 -86 31z" />
<glyph unicode="&#xc8;" horiz-adv-x="1366" d="M-55 0v51q74 12 98 31q41 31 66 117l251 919l7 35q14 68 14 80q0 47 -24.5 60.5t-125.5 25.5v51h1106l-88 -389l-55 10q0 156 -47 213q-82 100 -340 101q-47 0 -73.5 -14.5t-45.5 -76.5l-125 -456q213 0 289 45q57 35 131 172l57 -8l-151 -559l-58 10l9 82 q0 113 -60.5 152.5t-234.5 39.5l-115 -428q-8 -35 -19.5 -76t-11.5 -49q0 -37 26 -55t107 -18q201 0 349 73q168 84 268 269l51 -11l-121 -397h-1134zM526 1759q0 35 26.5 63.5t65.5 28.5q37 0 70 -24q18 -14 45 -45l227 -301h-92l-272 182q-35 25 -52.5 50.5t-17.5 45.5z " />
<glyph unicode="&#xc9;" horiz-adv-x="1366" d="M-55 0v51q74 12 98 31q41 31 66 117l251 919l7 35q14 68 14 80q0 47 -24.5 60.5t-125.5 25.5v51h1106l-88 -389l-55 10q0 156 -47 213q-82 100 -340 101q-47 0 -73.5 -14.5t-45.5 -76.5l-125 -456q213 0 289 45q57 35 131 172l57 -8l-151 -559l-58 10l9 82 q0 113 -60.5 152.5t-234.5 39.5l-115 -428q-8 -35 -19.5 -76t-11.5 -49q0 -37 26 -55t107 -18q201 0 349 73q168 84 268 269l51 -11l-121 -397h-1134zM637 1481l250 268q33 35 55 55q49 47 86 47t68.5 -24.5t31.5 -71.5q0 -31 -19.5 -52.5t-60.5 -43.5l-311 -178h-100z" />
<glyph unicode="&#xca;" horiz-adv-x="1366" d="M-55 0v51q74 12 98 31q41 31 66 117l251 919l7 35q14 68 14 80q0 47 -24.5 60.5t-125.5 25.5v51h1106l-88 -389l-55 10q0 156 -47 213q-82 100 -340 101q-47 0 -73.5 -14.5t-45.5 -76.5l-125 -456q213 0 289 45q57 35 131 172l57 -8l-151 -559l-58 10l9 82 q0 113 -60.5 152.5t-234.5 39.5l-115 -428q-8 -35 -19.5 -76t-11.5 -49q0 -37 26 -55t107 -18q201 0 349 73q168 84 268 269l51 -11l-121 -397h-1134zM465 1481l328 356h165l177 -356h-105l-180 194l-268 -194h-117z" />
<glyph unicode="&#xcb;" horiz-adv-x="1366" d="M-55 0v51q74 12 98 31q41 31 66 117l251 919l7 35q14 68 14 80q0 47 -24.5 60.5t-125.5 25.5v51h1106l-88 -389l-55 10q0 156 -47 213q-82 100 -340 101q-47 0 -73.5 -14.5t-45.5 -76.5l-125 -456q213 0 289 45q57 35 131 172l57 -8l-151 -559l-58 10l9 82 q0 113 -60.5 152.5t-234.5 39.5l-115 -428q-8 -35 -19.5 -76t-11.5 -49q0 -37 26 -55t107 -18q201 0 349 73q168 84 268 269l51 -11l-121 -397h-1134zM496 1630q0 55 37.5 95t93.5 40q55 0 95 -39.5t40 -95.5q0 -59 -44 -95t-89 -36t-84 31q-49 39 -49 100zM930 1630 q0 55 38 95t93 40t95 -39.5t40 -95.5q0 -59 -44 -95t-89 -36t-84 31q-49 39 -49 100z" />
<glyph unicode="&#xcc;" horiz-adv-x="796" d="M-66 0v51q74 10 103 33q37 29 61 115l252 919q8 31 10 47q10 51 11 68q0 47 -24.5 59.5t-125.5 26.5v51h610v-51q-88 -12 -118.5 -45t-48.5 -103l-234 -860q-6 -20 -21.5 -86.5t-15.5 -85.5q0 -51 33 -69.5t115 -18.5v-51h-607zM242 1759q0 35 26.5 63.5t65.5 28.5 q37 0 70 -24q18 -14 45 -45l227 -301h-92l-272 182q-35 25 -52.5 50.5t-17.5 45.5z" />
<glyph unicode="&#xcd;" horiz-adv-x="796" d="M-66 0v51q74 10 103 33q37 29 61 115l252 919q8 31 10 47q10 51 11 68q0 47 -24.5 59.5t-125.5 26.5v51h610v-51q-88 -12 -118.5 -45t-48.5 -103l-234 -860q-6 -20 -21.5 -86.5t-15.5 -85.5q0 -51 33 -69.5t115 -18.5v-51h-607zM353 1481l250 268q33 35 55 55 q49 47 86 47t68.5 -24.5t31.5 -71.5q0 -31 -19.5 -52.5t-60.5 -43.5l-311 -178h-100z" />
<glyph unicode="&#xce;" horiz-adv-x="796" d="M-66 0v51q74 10 103 33q37 29 61 115l252 919q8 31 10 47q10 51 11 68q0 47 -24.5 59.5t-125.5 26.5v51h610v-51q-88 -12 -118.5 -45t-48.5 -103l-234 -860q-6 -20 -21.5 -86.5t-15.5 -85.5q0 -51 33 -69.5t115 -18.5v-51h-607zM191 1481l328 356h165l177 -356h-105 l-180 194l-268 -194h-117z" />
<glyph unicode="&#xcf;" horiz-adv-x="796" d="M-66 0v51q74 10 103 33q37 29 61 115l252 919q8 31 10 47q10 51 11 68q0 47 -24.5 59.5t-125.5 26.5v51h610v-51q-88 -12 -118.5 -45t-48.5 -103l-234 -860q-6 -20 -21.5 -86.5t-15.5 -85.5q0 -51 33 -69.5t115 -18.5v-51h-607zM211 1630q0 55 37.5 95t93.5 40 q55 0 95 -39.5t40 -95.5q0 -59 -44 -95t-89 -36t-84 31q-49 39 -49 100zM645 1630q0 55 38 95t93 40t95 -39.5t40 -95.5q0 -59 -44 -95t-89 -36t-84 31q-49 39 -49 100z" />
<glyph unicode="&#xd0;" horiz-adv-x="1478" d="M-63 0v51q68 10 94 29q47 31 69 119l129 475h-209l25 90h209q66 246 96 362q23 88 23 103q0 49 -23.5 62.5t-126.5 27.5v51h594q291 0 454 -146.5t163 -422.5q0 -301 -211 -529q-254 -272 -701 -272h-585zM393 141q0 -47 34 -59t87 -12q240 0 395 176q121 137 181 366 q43 166 43 316q0 143 -41 225q-78 154 -291 154q-45 0 -62 -7q-43 -16 -57 -71l-125 -465h250l-25 -90h-250l-112 -416q-12 -39 -17 -57q-10 -39 -10 -60z" />
<glyph unicode="&#xd1;" horiz-adv-x="1478" d="M-55 0v51q84 20 110 58q37 51 97 256l245 841q-29 68 -57.5 86.5t-112.5 26.5v51h400l440 -952l164 588q12 43 24.5 101t12.5 87q0 74 -45 99.5t-119 25.5v51h428v-51q-88 -20 -115 -59q-37 -51 -94 -254l-293 -1037h-57l-527 1125l-202 -729q-12 -43 -24.5 -101.5 t-12.5 -87.5q0 -74 51 -102q39 -23 113 -23v-51h-426zM528 1524q20 82 43 121q70 121 197 120q53 0 129 -26q168 -59 174 -60q47 0 74 29q15 16 35 57h84q-25 -98 -60 -147q-66 -96 -182 -96q-29 0 -56.5 7t-58.5 19l-121 47q-10 4 -30.5 10.5t-42.5 6.5q-45 0 -70 -29 q-14 -16 -33 -59h-82z" />
<glyph unicode="&#xd2;" horiz-adv-x="1478" d="M55 424q0 377 264.5 678t600.5 301q195 0 331 -113q164 -135 164 -381q0 -326 -244 -620q-268 -326 -628 -326q-233 0 -371 156q-117 133 -117 305zM350 307q0 -143 62 -213q55 -61 151 -61q166 0 305 217q115 178 189 450q63 233 63 377q0 121 -53 188.5t-162 67.5 q-170 0 -311 -223q-106 -170 -182 -453q-61 -231 -62 -350zM584 1759q0 35 26.5 63.5t65.5 28.5q37 0 70 -24q18 -14 45 -45l227 -301h-92l-272 182q-35 25 -52.5 50.5t-17.5 45.5z" />
<glyph unicode="&#xd3;" horiz-adv-x="1478" d="M55 424q0 377 264.5 678t600.5 301q195 0 331 -113q164 -135 164 -381q0 -326 -244 -620q-268 -326 -628 -326q-233 0 -371 156q-117 133 -117 305zM350 307q0 -143 62 -213q55 -61 151 -61q166 0 305 217q115 178 189 450q63 233 63 377q0 121 -53 188.5t-162 67.5 q-170 0 -311 -223q-106 -170 -182 -453q-61 -231 -62 -350zM695 1481l250 268q33 35 55 55q49 47 86 47t68.5 -24.5t31.5 -71.5q0 -31 -19.5 -52.5t-60.5 -43.5l-311 -178h-100z" />
<glyph unicode="&#xd4;" horiz-adv-x="1478" d="M55 424q0 377 264.5 678t600.5 301q195 0 331 -113q164 -135 164 -381q0 -326 -244 -620q-268 -326 -628 -326q-233 0 -371 156q-117 133 -117 305zM350 307q0 -143 62 -213q55 -61 151 -61q166 0 305 217q115 178 189 450q63 233 63 377q0 121 -53 188.5t-162 67.5 q-170 0 -311 -223q-106 -170 -182 -453q-61 -231 -62 -350zM553 1481l328 356h165l177 -356h-105l-180 194l-268 -194h-117z" />
<glyph unicode="&#xd5;" horiz-adv-x="1478" d="M55 424q0 377 264.5 678t600.5 301q195 0 331 -113q164 -135 164 -381q0 -326 -244 -620q-268 -326 -628 -326q-233 0 -371 156q-117 133 -117 305zM350 307q0 -143 62 -213q55 -61 151 -61q166 0 305 217q115 178 189 450q63 233 63 377q0 121 -53 188.5t-162 67.5 q-170 0 -311 -223q-106 -170 -182 -453q-61 -231 -62 -350zM538 1524q20 82 43 121q70 121 197 120q53 0 129 -26q168 -59 174 -60q47 0 74 29q15 16 35 57h84q-25 -98 -60 -147q-66 -96 -182 -96q-29 0 -56.5 7t-58.5 19l-121 47q-10 4 -30.5 10.5t-42.5 6.5q-45 0 -70 -29 q-14 -16 -33 -59h-82z" />
<glyph unicode="&#xd6;" horiz-adv-x="1478" d="M55 424q0 377 264.5 678t600.5 301q195 0 331 -113q164 -135 164 -381q0 -326 -244 -620q-268 -326 -628 -326q-233 0 -371 156q-117 133 -117 305zM350 307q0 -143 62 -213q55 -61 151 -61q166 0 305 217q115 178 189 450q63 233 63 377q0 121 -53 188.5t-162 67.5 q-170 0 -311 -223q-106 -170 -182 -453q-61 -231 -62 -350zM553 1630q0 55 37.5 95t93.5 40q55 0 95 -39.5t40 -95.5q0 -59 -44 -95t-89 -36t-84 31q-49 39 -49 100zM987 1630q0 55 38 95t93 40t95 -39.5t40 -95.5q0 -59 -44 -95t-89 -36t-84 31q-49 39 -49 100z" />
<glyph unicode="&#xd7;" horiz-adv-x="1167" d="M98 160l359 358l-359 359l127 127l359 -361l358 361l127 -127l-360 -359l360 -358l-127 -127l-358 360l-359 -360z" />
<glyph unicode="&#xd8;" horiz-adv-x="1478" d="M55 424q0 377 264.5 678t600.5 301q88 0 167 -27l109 189h100l-129 -222q115 -59 176 -157q72 -115 72 -277q0 -326 -244 -620q-268 -326 -628 -326q-88 0 -168 27l-144 -246h-98l162 279q-117 61 -182 180q-57 104 -58 221zM350 307q0 -92 23 -149l663 1132 q-49 43 -133 43q-168 0 -307 -221q-111 -176 -184 -450q-61 -229 -62 -355zM426 78q29 -25 62.5 -35t74.5 -10q166 0 307 219q115 178 189 450q61 225 61 371q0 45 -7 77.5t-21 63.5z" />
<glyph unicode="&#xd9;" horiz-adv-x="1478" d="M137 315q0 74 56 295q6 25 102 381q55 205 55 242q0 47 -24.5 60.5t-124.5 25.5v51h637v-51q-86 0 -127 -27.5t-66 -120.5l-168 -614q-35 -125 -46 -176t-11 -102q0 -82 55 -136q68 -66 197 -65q193 0 303 168q66 100 129 332l119 428q2 6 16 67q23 94 23 129 q0 68 -60 96q-43 20 -104 21v51h426v-51q-84 -18 -113 -57q-37 -51 -96 -256l-135 -467q-55 -193 -95 -275q-68 -143 -172 -215q-127 -86 -327 -86q-182 0 -307 84q-141 96 -142 268zM584 1759q0 35 26.5 63.5t65.5 28.5q37 0 70 -24q18 -14 45 -45l227 -301h-92l-272 182 q-35 25 -52.5 50.5t-17.5 45.5z" />
<glyph unicode="&#xda;" horiz-adv-x="1478" d="M137 315q0 74 56 295q6 25 102 381q55 205 55 242q0 47 -24.5 60.5t-124.5 25.5v51h637v-51q-86 0 -127 -27.5t-66 -120.5l-168 -614q-35 -125 -46 -176t-11 -102q0 -82 55 -136q68 -66 197 -65q193 0 303 168q66 100 129 332l119 428q2 6 16 67q23 94 23 129 q0 68 -60 96q-43 20 -104 21v51h426v-51q-84 -18 -113 -57q-37 -51 -96 -256l-135 -467q-55 -193 -95 -275q-68 -143 -172 -215q-127 -86 -327 -86q-182 0 -307 84q-141 96 -142 268zM715 1481l250 268q33 35 55 55q49 47 86 47t68.5 -24.5t31.5 -71.5q0 -31 -19.5 -52.5 t-60.5 -43.5l-311 -178h-100z" />
<glyph unicode="&#xdb;" horiz-adv-x="1478" d="M137 315q0 74 56 295q6 25 102 381q55 205 55 242q0 47 -24.5 60.5t-124.5 25.5v51h637v-51q-86 0 -127 -27.5t-66 -120.5l-168 -614q-35 -125 -46 -176t-11 -102q0 -82 55 -136q68 -66 197 -65q193 0 303 168q66 100 129 332l119 428q2 6 16 67q23 94 23 129 q0 68 -60 96q-43 20 -104 21v51h426v-51q-84 -18 -113 -57q-37 -51 -96 -256l-135 -467q-55 -193 -95 -275q-68 -143 -172 -215q-127 -86 -327 -86q-182 0 -307 84q-141 96 -142 268zM553 1481l328 356h165l177 -356h-105l-180 194l-268 -194h-117z" />
<glyph unicode="&#xdc;" horiz-adv-x="1478" d="M137 315q0 74 56 295q6 25 102 381q55 205 55 242q0 47 -24.5 60.5t-124.5 25.5v51h637v-51q-86 0 -127 -27.5t-66 -120.5l-168 -614q-35 -125 -46 -176t-11 -102q0 -82 55 -136q68 -66 197 -65q193 0 303 168q66 100 129 332l119 428q2 6 16 67q23 94 23 129 q0 68 -60 96q-43 20 -104 21v51h426v-51q-84 -18 -113 -57q-37 -51 -96 -256l-135 -467q-55 -193 -95 -275q-68 -143 -172 -215q-127 -86 -327 -86q-182 0 -307 84q-141 96 -142 268zM584 1630q0 55 37.5 95t93.5 40q55 0 95 -39.5t40 -95.5q0 -59 -44 -95t-89 -36t-84 31 q-49 39 -49 100zM1018 1630q0 55 38 95t93 40t95 -39.5t40 -95.5q0 -59 -44 -95t-89 -36t-84 31q-49 39 -49 100z" />
<glyph unicode="&#xdd;" horiz-adv-x="1251" d="M150 0v51q102 8 133 27q47 29 73 121l123 442l-180 549q-27 80 -50.5 99.5t-98.5 29.5v51h579v-51q-86 0 -114.5 -17.5t-28.5 -56.5q0 -47 47 -190q55 -168 110 -334l265 381q37 53 45 74.5t8 58.5q0 43 -28.5 63.5t-108.5 20.5v51h426v-51q-49 -8 -88 -33.5t-99 -107.5 l-389 -547l-106 -391q-16 -51 -17 -99q0 -57 38 -73.5t120 -16.5v-51h-659zM600 1481l250 268q33 35 55 55q49 47 86 47t68.5 -24.5t31.5 -71.5q0 -31 -19.5 -52.5t-60.5 -43.5l-311 -178h-100z" />
<glyph unicode="&#xde;" horiz-adv-x="1251" d="M-55 0v51q74 12 98 31q41 31 66 117l251 919l7 35q14 68 14 80q0 47 -25 60.5t-125 25.5v51h603l-3 -51q-74 -10 -100 -31q-41 -31 -65 -117l-27 -77h98q190 0 299 -64q137 -80 138 -258q0 -186 -164 -297q-152 -102 -371 -102h-29h-22q-68 0 -139 10l-29 -131 q-2 -8 -11.5 -57.5t-9.5 -55.5q0 -51 33 -69.5t115 -18.5v-51h-602zM469 449l78 -5q104 0 164 29q39 18 73 64q45 55 67.5 146t22.5 148q0 74 -20 115q-41 82 -154 82q-53 0 -72.5 -24.5t-27.5 -65.5z" />
<glyph unicode="&#xdf;" d="M-410 -256q0 27 4 41q20 72 107 72q31 0 55 -17q37 -25 37 -73q0 -41 -17.5 -60.5t-17.5 -30.5q0 -23 31 -22q31 0 53.5 10t42 44t43 101.5t39.5 149.5l189 866q59 268 161 418q139 201 355 201q129 0 213 -76t84 -190q0 -145 -135 -246q-76 -55 -232 -113 q137 -27 205 -88q84 -76 84 -213q0 -199 -134 -365.5t-313 -166.5q-61 0 -100 14q-18 6 -53 31l41 71l8 -10q29 -37 88 -37q100 0 166 236q51 182 51 309q0 111 -43 150q-28 26 -108 36l14 76l33 -2q98 0 155 150q45 119 45 245q0 53 -12 80q-23 47 -86 47q-70 0 -117 -80.5 t-88 -259.5l-186 -833q-68 -299 -172 -449q-119 -170 -293 -170q-92 0 -144.5 46.5t-52.5 107.5z" />
<glyph unicode="&#xe0;" d="M-43 240q0 229 184.5 467.5t370.5 238.5q80 0 119 -49q27 -33 35 -90l39 113l227 14l-146 -483q-29 -98 -45 -160q-25 -96 -24 -144q0 -31 26 -30q29 0 86 67q31 37 60 76l43 -31q-66 -102 -133 -168q-94 -90 -176 -90q-43 0 -82 27q-55 39 -56 108q0 27 11 68 q4 18 16 62q-72 -115 -123 -166q-96 -96 -209 -97q-131 0 -186 107q-37 70 -37 160zM209 236q0 -63 33 -95q24 -22 57 -22q119 0 227 262q94 227 95 379q0 45 -20.5 72.5t-55.5 27.5q-115 0 -232 -262q-104 -233 -104 -362zM326 1335q0 35 26.5 63.5t65.5 28.5q37 0 70 -24 q18 -14 45 -45l227 -301h-92l-272 182q-35 25 -52.5 50.5t-17.5 45.5z" />
<glyph unicode="&#xe1;" d="M-43 240q0 229 184.5 467.5t370.5 238.5q80 0 119 -49q27 -33 35 -90l39 113l227 14l-146 -483q-29 -98 -45 -160q-25 -96 -24 -144q0 -31 26 -30q29 0 86 67q31 37 60 76l43 -31q-66 -102 -133 -168q-94 -90 -176 -90q-43 0 -82 27q-55 39 -56 108q0 27 11 68 q4 18 16 62q-72 -115 -123 -166q-96 -96 -209 -97q-131 0 -186 107q-37 70 -37 160zM209 236q0 -63 33 -95q24 -22 57 -22q119 0 227 262q94 227 95 379q0 45 -20.5 72.5t-55.5 27.5q-115 0 -232 -262q-104 -233 -104 -362zM457 1057l250 268q33 35 55 55q49 47 86 47 t68.5 -24.5t31.5 -71.5q0 -31 -19.5 -52.5t-60.5 -43.5l-311 -178h-100z" />
<glyph unicode="&#xe2;" d="M-43 240q0 229 184.5 467.5t370.5 238.5q80 0 119 -49q27 -33 35 -90l39 113l227 14l-146 -483q-29 -98 -45 -160q-25 -96 -24 -144q0 -31 26 -30q29 0 86 67q31 37 60 76l43 -31q-66 -102 -133 -168q-94 -90 -176 -90q-43 0 -82 27q-55 39 -56 108q0 27 11 68 q4 18 16 62q-72 -115 -123 -166q-96 -96 -209 -97q-131 0 -186 107q-37 70 -37 160zM209 236q0 -63 33 -95q24 -22 57 -22q119 0 227 262q94 227 95 379q0 45 -20.5 72.5t-55.5 27.5q-115 0 -232 -262q-104 -233 -104 -362zM254 1057l328 356h165l177 -356h-105l-180 194 l-268 -194h-117z" />
<glyph unicode="&#xe3;" d="M-43 240q0 229 184.5 467.5t370.5 238.5q80 0 119 -49q27 -33 35 -90l39 113l227 14l-146 -483q-29 -98 -45 -160q-25 -96 -24 -144q0 -31 26 -30q29 0 86 67q31 37 60 76l43 -31q-66 -102 -133 -168q-94 -90 -176 -90q-43 0 -82 27q-55 39 -56 108q0 27 11 68 q4 18 16 62q-72 -115 -123 -166q-96 -96 -209 -97q-131 0 -186 107q-37 70 -37 160zM209 236q0 -63 33 -95q24 -22 57 -22q119 0 227 262q94 227 95 379q0 45 -20.5 72.5t-55.5 27.5q-115 0 -232 -262q-104 -233 -104 -362zM270 1100q20 82 43 121q70 121 197 120 q53 0 129 -26q168 -59 174 -60q47 0 74 29q15 16 35 57h84q-25 -98 -60 -147q-66 -96 -182 -96q-29 0 -56.5 7t-58.5 19l-121 47q-10 4 -30.5 10.5t-42.5 6.5q-45 0 -70 -29q-14 -16 -33 -59h-82z" />
<glyph unicode="&#xe4;" d="M-43 240q0 229 184.5 467.5t370.5 238.5q80 0 119 -49q27 -33 35 -90l39 113l227 14l-146 -483q-29 -98 -45 -160q-25 -96 -24 -144q0 -31 26 -30q29 0 86 67q31 37 60 76l43 -31q-66 -102 -133 -168q-94 -90 -176 -90q-43 0 -82 27q-55 39 -56 108q0 27 11 68 q4 18 16 62q-72 -115 -123 -166q-96 -96 -209 -97q-131 0 -186 107q-37 70 -37 160zM209 236q0 -63 33 -95q24 -22 57 -22q119 0 227 262q94 227 95 379q0 45 -20.5 72.5t-55.5 27.5q-115 0 -232 -262q-104 -233 -104 -362zM265 1206q0 55 37.5 95t93.5 40q55 0 95 -39.5 t40 -95.5q0 -59 -44 -95t-89 -36t-84 31q-49 39 -49 100zM699 1206q0 55 38 95t93 40t95 -39.5t40 -95.5q0 -59 -44 -95t-89 -36t-84 31q-49 39 -49 100z" />
<glyph unicode="&#xe5;" d="M-43 240q0 229 184.5 467.5t370.5 238.5q80 0 119 -49q27 -33 35 -90l39 113l227 14l-146 -483q-29 -98 -45 -160q-25 -96 -24 -144q0 -31 26 -30q29 0 86 67q31 37 60 76l43 -31q-66 -102 -133 -168q-94 -90 -176 -90q-43 0 -82 27q-55 39 -56 108q0 27 11 68 q4 18 16 62q-72 -115 -123 -166q-96 -96 -209 -97q-131 0 -186 107q-37 70 -37 160zM209 236q0 -63 33 -95q24 -22 57 -22q119 0 227 262q94 227 95 379q0 45 -20.5 72.5t-55.5 27.5q-115 0 -232 -262q-104 -233 -104 -362zM432 1276q0 92 64.5 154.5t154.5 62.5 t153.5 -63.5t63.5 -153.5t-62.5 -154.5t-154.5 -64.5q-88 0 -153.5 63.5t-65.5 155.5zM530 1276q0 -41 27 -76q35 -45 90 -45q53 0 88 35t35 84t-36 85t-87 36q-55 0 -86 -38t-31 -81z" />
<glyph unicode="&#xe6;" horiz-adv-x="1478" d="M-10 244q0 221 185 461.5t372 240.5q84 0 125 -43q25 -25 45 -84l41 111l211 10l-37 -121l4 -4q57 74 116.5 99.5t123.5 25.5q90 0 146 -45t56 -135q0 -117 -108 -211q-123 -104 -359 -160l-80 -18q-10 -51 -10 -99q0 -63 23 -104q35 -66 114 -66q72 0 139.5 49.5 t112.5 133.5l58 -35q-51 -92 -92 -137q-127 -139 -295 -140q-166 0 -240 95q-41 53 -63 170q-74 -115 -125 -164q-104 -98 -232 -99q-94 0 -155 56q-76 70 -76 213zM248 242q0 -55 24.5 -89t77.5 -34q129 0 240 266q92 221 92 344q0 61 -24.5 95t-79.5 34q-109 0 -224 -235 q-106 -219 -106 -381zM846 438q78 0 194 84q154 111 154 271q0 35 -8 53q-14 33 -60 33q-98 0 -180 -160q-41 -80 -90 -246z" />
<glyph unicode="&#xe7;" horiz-adv-x="909" d="M-49 -395l45 67q37 -16 70 -25t72 -9q51 0 80.5 21.5t29.5 61.5q0 33 -22.5 53.5t-71.5 20.5q-20 0 -30.5 -1t-33.5 -7l-26 25l135 198h90l-92 -137l53 6q61 0 111 -26q74 -39 73 -121q0 -88 -86 -138q-74 -41 -170 -40q-68 0 -141 20q-35 10 -86 31zM-10 289 q0 238 183 447.5t394 209.5q115 0 175.5 -53t60.5 -127q0 -70 -35 -109t-94 -39q-45 0 -81 28t-36 79q0 33 21.5 72t21.5 47q0 16 -15.5 25.5t-31.5 9.5q-119 0 -217 -234q-84 -199 -84 -342q0 -111 51 -160q39 -39 98 -39q68 0 126 45.5t124 139.5l58 -37 q-94 -135 -160 -189q-109 -90 -254 -90q-119 0 -203 72q-102 86 -102 244z" />
<glyph unicode="&#xe8;" horiz-adv-x="909" d="M10 289q0 223 172 432q186 225 422 225q74 0 131 -37q80 -51 80 -147q0 -106 -115 -213q-147 -135 -411 -176q-12 -55 -13 -101q0 -82 33 -125t105 -43q74 0 139 64q39 37 96 123l60 -35q-76 -125 -136 -180q-111 -102 -256 -103q-117 0 -202 72q-104 88 -105 244z M268 1335q0 35 26.5 63.5t65.5 28.5q37 0 70 -24q18 -14 45 -45l227 -301h-92l-272 182q-35 25 -52.5 50.5t-17.5 45.5zM303 438q178 47 262 172q61 90 62 199q0 37 -14.5 53.5t-45.5 16.5q-86 0 -168 -164q-63 -125 -96 -277z" />
<glyph unicode="&#xe9;" horiz-adv-x="909" d="M10 289q0 223 172 432q186 225 422 225q74 0 131 -37q80 -51 80 -147q0 -106 -115 -213q-147 -135 -411 -176q-12 -55 -13 -101q0 -82 33 -125t105 -43q74 0 139 64q39 37 96 123l60 -35q-76 -125 -136 -180q-111 -102 -256 -103q-117 0 -202 72q-104 88 -105 244z M303 438q178 47 262 172q61 90 62 199q0 37 -14.5 53.5t-45.5 16.5q-86 0 -168 -164q-63 -125 -96 -277zM400 1057l250 268q33 35 55 55q49 47 86 47t68.5 -24.5t31.5 -71.5q0 -31 -19.5 -52.5t-60.5 -43.5l-311 -178h-100z" />
<glyph unicode="&#xea;" horiz-adv-x="909" d="M10 289q0 223 172 432q186 225 422 225q74 0 131 -37q80 -51 80 -147q0 -106 -115 -213q-147 -135 -411 -176q-12 -55 -13 -101q0 -82 33 -125t105 -43q74 0 139 64q39 37 96 123l60 -35q-76 -125 -136 -180q-111 -102 -256 -103q-117 0 -202 72q-104 88 -105 244z M197 1057l328 356h165l177 -356h-105l-180 194l-268 -194h-117zM303 438q178 47 262 172q61 90 62 199q0 37 -14.5 53.5t-45.5 16.5q-86 0 -168 -164q-63 -125 -96 -277z" />
<glyph unicode="&#xeb;" horiz-adv-x="909" d="M10 289q0 223 172 432q186 225 422 225q74 0 131 -37q80 -51 80 -147q0 -106 -115 -213q-147 -135 -411 -176q-12 -55 -13 -101q0 -82 33 -125t105 -43q74 0 139 64q39 37 96 123l60 -35q-76 -125 -136 -180q-111 -102 -256 -103q-117 0 -202 72q-104 88 -105 244z M207 1206q0 55 37.5 95t93.5 40q55 0 95 -39.5t40 -95.5q0 -59 -44 -95t-89 -36t-84 31q-49 39 -49 100zM303 438q178 47 262 172q61 90 62 199q0 37 -14.5 53.5t-45.5 16.5q-86 0 -168 -164q-63 -125 -96 -277zM641 1206q0 55 38 95t93 40t95 -39.5t40 -95.5q0 -59 -44 -95 t-89 -36t-84 31q-49 39 -49 100z" />
<glyph unicode="&#xec;" horiz-adv-x="569" d="M4 119q0 45 52.5 242.5t107.5 406.5q0 45 -30 55.5t-91 10.5v55q63 0 188 17.5t226 39.5q-66 -240 -131 -479q-74 -272 -74 -311q0 -31 31 -31q37 0 102 84q30 39 57 80l45 -29q-92 -141 -153 -199q-86 -80 -189 -79q-78 0 -114 49q-27 37 -27 88zM98 1335 q0 35 26.5 63.5t65.5 28.5q37 0 70 -24q18 -14 45 -45l227 -301h-92l-272 182q-35 25 -52.5 50.5t-17.5 45.5z" />
<glyph unicode="&#xed;" horiz-adv-x="569" d="M4 119q0 45 52.5 242.5t107.5 406.5q0 45 -30 55.5t-91 10.5v55q63 0 188 17.5t226 39.5q-66 -240 -131 -479q-74 -272 -74 -311q0 -31 31 -31q37 0 102 84q30 39 57 80l45 -29q-92 -141 -153 -199q-86 -80 -189 -79q-78 0 -114 49q-27 37 -27 88zM230 1057l250 268 q33 35 55 55q49 47 86 47t68.5 -24.5t31.5 -71.5q0 -31 -19.5 -52.5t-60.5 -43.5l-311 -178h-100z" />
<glyph unicode="&#xee;" horiz-adv-x="569" d="M-4 1057l328 356h165l177 -356h-105l-180 194l-268 -194h-117zM4 119q0 45 52.5 242.5t107.5 406.5q0 45 -30 55.5t-91 10.5v55q63 0 188 17.5t226 39.5q-66 -240 -131 -479q-74 -272 -74 -311q0 -31 31 -31q37 0 102 84q30 39 57 80l45 -29q-92 -141 -153 -199 q-86 -80 -189 -79q-78 0 -114 49q-27 37 -27 88z" />
<glyph unicode="&#xef;" horiz-adv-x="569" d="M4 119q0 45 52.5 242.5t107.5 406.5q0 45 -30 55.5t-91 10.5v55q63 0 188 17.5t226 39.5q-66 -240 -131 -479q-74 -272 -74 -311q0 -31 31 -31q37 0 102 84q30 39 57 80l45 -29q-92 -141 -153 -199q-86 -80 -189 -79q-78 0 -114 49q-27 37 -27 88zM37 1206q0 55 37.5 95 t93.5 40q55 0 95 -39.5t40 -95.5q0 -59 -44 -95t-89 -36t-84 31q-49 39 -49 100zM471 1206q0 55 38 95t93 40t95 -39.5t40 -95.5q0 -59 -44 -95t-89 -36t-84 31q-49 39 -49 100z" />
<glyph unicode="&#xf0;" d="M-6 279q0 244 172 455.5t395 211.5q43 0 79 -20.5t62 -65.5l5 8q0 76 -35 156t-92 152l-244 -127l-68 63l250 131q-117 115 -237 133l90 56q72 -8 139.5 -40t130.5 -83l219 116l70 -65l-219 -115q88 -94 140 -217t52 -250q0 -330 -172 -567.5t-409 -237.5q-135 0 -228 78 q-100 84 -100 228zM238 176q0 -76 25.5 -109.5t80.5 -33.5q129 0 231 303q84 250 84 420q0 72 -25.5 101.5t-72.5 29.5q-143 0 -244 -305q-79 -242 -79 -406z" />
<glyph unicode="&#xf1;" horiz-adv-x="1138" d="M-12 0q39 147 143 518q66 233 66 262q0 35 -27 44.5t-84 9.5v55q57 0 173 14.5t237 40.5l-123 -381l6 -4q141 207 207 275q111 113 229 112q84 0 120 -40t36 -122q0 -66 -56 -239q-61 -195 -122 -387q0 -37 30 -37q31 0 82 69q31 43 60 86l45 -26q-70 -119 -125 -174 q-92 -94 -197 -94q-70 0 -106.5 32.5t-36.5 100.5q0 74 58.5 260t121.5 379q0 18 -15.5 31.5t-35.5 13.5q-41 0 -96 -51q-80 -72 -158 -230q-104 -209 -184 -518h-248zM297 1100q20 82 43 121q70 121 197 120q53 0 129 -26q168 -59 174 -60q47 0 74 29q15 16 35 57h84 q-25 -98 -60 -147q-66 -96 -182 -96q-29 0 -56.5 7t-58.5 19l-121 47q-10 4 -30.5 10.5t-42.5 6.5q-45 0 -70 -29q-14 -16 -33 -59h-82z" />
<glyph unicode="&#xf2;" d="M-6 279q0 246 172 452q180 215 416 215q68 0 135 -26q186 -74 186 -289q0 -240 -168 -443q-178 -215 -413 -215q-135 0 -228 78q-100 84 -100 228zM238 176q0 -76 25.5 -109.5t80.5 -33.5q129 0 231 303q84 250 84 420q0 72 -25.5 101.5t-72.5 29.5q-143 0 -244 -305 q-80 -242 -79 -406zM326 1335q0 35 26.5 63.5t65.5 28.5q37 0 70 -24q18 -14 45 -45l227 -301h-92l-272 182q-35 25 -52.5 50.5t-17.5 45.5z" />
<glyph unicode="&#xf3;" d="M-6 279q0 246 172 452q180 215 416 215q68 0 135 -26q186 -74 186 -289q0 -240 -168 -443q-178 -215 -413 -215q-135 0 -228 78q-100 84 -100 228zM238 176q0 -76 25.5 -109.5t80.5 -33.5q129 0 231 303q84 250 84 420q0 72 -25.5 101.5t-72.5 29.5q-143 0 -244 -305 q-80 -242 -79 -406zM457 1057l250 268q33 35 55 55q49 47 86 47t68.5 -24.5t31.5 -71.5q0 -31 -19.5 -52.5t-60.5 -43.5l-311 -178h-100z" />
<glyph unicode="&#xf4;" d="M-6 279q0 246 172 452q180 215 416 215q68 0 135 -26q186 -74 186 -289q0 -240 -168 -443q-178 -215 -413 -215q-135 0 -228 78q-100 84 -100 228zM238 176q0 -76 25.5 -109.5t80.5 -33.5q129 0 231 303q84 250 84 420q0 72 -25.5 101.5t-72.5 29.5q-143 0 -244 -305 q-80 -242 -79 -406zM254 1057l328 356h165l177 -356h-105l-180 194l-268 -194h-117z" />
<glyph unicode="&#xf5;" d="M-6 279q0 246 172 452q180 215 416 215q68 0 135 -26q186 -74 186 -289q0 -240 -168 -443q-178 -215 -413 -215q-135 0 -228 78q-100 84 -100 228zM238 176q0 -76 25.5 -109.5t80.5 -33.5q129 0 231 303q84 250 84 420q0 72 -25.5 101.5t-72.5 29.5q-143 0 -244 -305 q-80 -242 -79 -406zM270 1100q20 82 43 121q70 121 197 120q53 0 129 -26q168 -59 174 -60q47 0 74 29q15 16 35 57h84q-25 -98 -60 -147q-66 -96 -182 -96q-29 0 -56.5 7t-58.5 19l-121 47q-10 4 -30.5 10.5t-42.5 6.5q-45 0 -70 -29q-14 -16 -33 -59h-82z" />
<glyph unicode="&#xf6;" d="M-6 279q0 246 172 452q180 215 416 215q68 0 135 -26q186 -74 186 -289q0 -240 -168 -443q-178 -215 -413 -215q-135 0 -228 78q-100 84 -100 228zM238 176q0 -76 25.5 -109.5t80.5 -33.5q129 0 231 303q84 250 84 420q0 72 -25.5 101.5t-72.5 29.5q-143 0 -244 -305 q-80 -242 -79 -406zM254 1206q0 55 37.5 95t93.5 40q55 0 95 -39.5t40 -95.5q0 -59 -44 -95t-89 -36t-84 31q-49 39 -49 100zM688 1206q0 55 38 95t93 40t95 -39.5t40 -95.5q0 -59 -44 -95t-89 -36t-84 31q-49 39 -49 100z" />
<glyph unicode="&#xf7;" horiz-adv-x="1167" d="M68 428v180h1032v-180h-1032zM432 92q0 61 43 106.5t109 45.5q63 0 107 -44t44 -108q0 -66 -43 -108.5t-108 -42.5q-68 0 -110 44t-42 107zM432 944q0 61 43 106.5t109 45.5q63 0 107 -44t44 -108q0 -66 -43 -108.5t-108 -42.5q-68 0 -110 44t-42 107z" />
<glyph unicode="&#xf8;" d="M-6 279q0 246 172 452q180 215 416 215q20 0 41.5 -2t48.5 -10l121 213h75l-133 -238q72 -31 115 -92q53 -76 53 -186q0 -240 -168 -443q-178 -215 -413 -215q-51 0 -105 17l-131 -234h-82l148 258q-72 37 -115 105.5t-43 159.5zM238 168l391 690q-27 29 -68 29 q-143 0 -244 -305q-80 -242 -79 -406v-8zM262 70q27 -37 82 -37q129 0 231 303q84 250 84 420l-2 16z" />
<glyph unicode="&#xf9;" horiz-adv-x="1138" d="M31 141q0 74 76.5 327t76.5 306q0 37 -27.5 48.5t-86.5 11.5v55q98 0 207.5 18.5t220.5 38.5l-193 -631q-18 -59 -24.5 -84.5t-6.5 -52.5q0 -23 8.5 -36t39.5 -13q53 0 137 102q57 72 96 142q51 92 89 189t114 358h241q-74 -244 -120 -408q-90 -311 -91 -352 q0 -39 31 -39q25 0 62 38.5t84 112.5l43 -26q-53 -96 -113 -158q-102 -106 -213 -106q-49 0 -80 14q-57 27 -57 100q0 57 14 119q6 29 31 100q-109 -145 -156 -198q-121 -135 -246 -135q-80 0 -118.5 36.5t-38.5 122.5zM381 1335q0 35 26.5 63.5t65.5 28.5q37 0 70 -24 q18 -14 45 -45l227 -301h-92l-272 182q-35 25 -52.5 50.5t-17.5 45.5z" />
<glyph unicode="&#xfa;" horiz-adv-x="1138" d="M31 141q0 74 76.5 327t76.5 306q0 37 -27.5 48.5t-86.5 11.5v55q98 0 207.5 18.5t220.5 38.5l-193 -631q-18 -59 -24.5 -84.5t-6.5 -52.5q0 -23 8.5 -36t39.5 -13q53 0 137 102q57 72 96 142q51 92 89 189t114 358h241q-74 -244 -120 -408q-90 -311 -91 -352 q0 -39 31 -39q25 0 62 38.5t84 112.5l43 -26q-53 -96 -113 -158q-102 -106 -213 -106q-49 0 -80 14q-57 27 -57 100q0 57 14 119q6 29 31 100q-109 -145 -156 -198q-121 -135 -246 -135q-80 0 -118.5 36.5t-38.5 122.5zM512 1057l250 268q33 35 55 55q49 47 86 47 t68.5 -24.5t31.5 -71.5q0 -31 -19.5 -52.5t-60.5 -43.5l-311 -178h-100z" />
<glyph unicode="&#xfb;" horiz-adv-x="1138" d="M31 141q0 74 76.5 327t76.5 306q0 37 -27.5 48.5t-86.5 11.5v55q98 0 207.5 18.5t220.5 38.5l-193 -631q-18 -59 -24.5 -84.5t-6.5 -52.5q0 -23 8.5 -36t39.5 -13q53 0 137 102q57 72 96 142q51 92 89 189t114 358h241q-74 -244 -120 -408q-90 -311 -91 -352 q0 -39 31 -39q25 0 62 38.5t84 112.5l43 -26q-53 -96 -113 -158q-102 -106 -213 -106q-49 0 -80 14q-57 27 -57 100q0 57 14 119q6 29 31 100q-109 -145 -156 -198q-121 -135 -246 -135q-80 0 -118.5 36.5t-38.5 122.5zM309 1057l328 356h165l177 -356h-105l-180 194 l-268 -194h-117z" />
<glyph unicode="&#xfc;" horiz-adv-x="1138" d="M31 141q0 74 76.5 327t76.5 306q0 37 -27.5 48.5t-86.5 11.5v55q98 0 207.5 18.5t220.5 38.5l-193 -631q-18 -59 -24.5 -84.5t-6.5 -52.5q0 -23 8.5 -36t39.5 -13q53 0 137 102q57 72 96 142q51 92 89 189t114 358h241q-74 -244 -120 -408q-90 -311 -91 -352 q0 -39 31 -39q25 0 62 38.5t84 112.5l43 -26q-53 -96 -113 -158q-102 -106 -213 -106q-49 0 -80 14q-57 27 -57 100q0 57 14 119q6 29 31 100q-109 -145 -156 -198q-121 -135 -246 -135q-80 0 -118.5 36.5t-38.5 122.5zM310 1206q0 55 37.5 95t93.5 40q55 0 95 -39.5 t40 -95.5q0 -59 -44 -95t-89 -36t-84 31q-49 39 -49 100zM744 1206q0 55 38 95t93 40t95 -39.5t40 -95.5q0 -59 -44 -95t-89 -36t-84 31q-49 39 -49 100z" />
<glyph unicode="&#xfd;" horiz-adv-x="909" d="M-193 -297q0 51 34 82t75 31q20 0 54 -12.5t48.5 -22.5t42 -23.5t43.5 -13.5q47 0 113 78q74 86 74 166q0 68 -39 280q-23 127 -53 262q-49 223 -76.5 267.5t-93.5 44.5v55q180 16 305 49q25 -61 68.5 -253.5t66.5 -313.5l25 -148q92 172 124 242q53 117 54 168 q0 41 -56.5 81t-56.5 109q0 39 34 77t81 38q51 0 90 -37t39 -90q0 -152 -133 -426q-55 -113 -150 -270q-168 -276 -297 -402q-147 -141 -295 -141q-53 0 -87 39t-34 84zM400 1057l250 268q33 35 55 55q49 47 86 47t68.5 -24.5t31.5 -71.5q0 -31 -19.5 -52.5t-60.5 -43.5 l-311 -178h-100z" />
<glyph unicode="&#xfe;" d="M-246 -365q66 0 88 15q37 25 60 112q78 299 155 600q100 387 154 599q70 274 70 286q0 47 -31 57.5t-98 10.5v55q211 23 241.5 28t179.5 34l-194 -697l6 -6q70 113 148.5 165t152.5 52q102 0 160 -57q68 -66 67 -201q0 -246 -172 -475q-180 -240 -393 -240 q-35 0 -62.5 9.5t-78.5 35.5q-37 -137 -56.5 -214.5t-19.5 -98.5q0 -45 32.5 -57.5t100.5 -12.5v-55h-510v55zM231 125q0 -33 20.5 -56.5t61.5 -23.5q131 0 246 270q98 231 98 381q0 47 -22.5 76t-59.5 29q-55 0 -109 -52.5t-87 -121t-90.5 -266t-57.5 -236.5z" />
<glyph unicode="&#xff;" horiz-adv-x="909" d="M-193 -297q0 51 34 82t75 31q20 0 54 -12.5t48.5 -22.5t42 -23.5t43.5 -13.5q47 0 113 78q74 86 74 166q0 68 -39 280q-23 127 -53 262q-49 223 -76.5 267.5t-93.5 44.5v55q180 16 305 49q25 -61 68.5 -253.5t66.5 -313.5l25 -148q92 172 124 242q53 117 54 168 q0 41 -56.5 81t-56.5 109q0 39 34 77t81 38q51 0 90 -37t39 -90q0 -152 -133 -426q-55 -113 -150 -270q-168 -276 -297 -402q-147 -141 -295 -141q-53 0 -87 39t-34 84zM197 1206q0 55 37.5 95t93.5 40q55 0 95 -39.5t40 -95.5q0 -59 -44 -95t-89 -36t-84 31q-49 39 -49 100 zM631 1206q0 55 38 95t93 40t95 -39.5t40 -95.5q0 -59 -44 -95t-89 -36t-84 31q-49 39 -49 100z" />
<glyph unicode="&#x152;" horiz-adv-x="1933" d="M47 461q0 190 80 368.5t205 303.5q172 168 346 221q106 33 297 32l123 -8l153 -8h686l-94 -391l-51 12q0 147 -35 203q-72 111 -305 111q-51 0 -68.5 -19.5t-33.5 -77.5l-125 -450q190 0 280 63q57 41 107 148l55 -6l-147 -557l-56 10l9 110q0 92 -70 125q-49 23 -197 37 l-131 -502q-8 -33 -8 -49q0 -45 40 -58t146 -13q176 0 316 116q100 86 174 226l55 -11l-123 -397h-606l-151 -2l-316 -14q-223 0 -334 59q-125 66 -180 201q-41 98 -41 217zM336 326q0 -92 39 -162q63 -115 213 -115q94 0 143 53q43 46 72 150l221 801q8 37 16.5 79t8.5 58 q0 66 -39 98.5t-117 32.5q-176 0 -315 -201q-111 -162 -183 -424q-59 -219 -59 -370z" />
<glyph unicode="&#x153;" horiz-adv-x="1478" d="M12 322q0 195 160 393q186 231 440 231q98 0 162 -43q39 -27 78 -84q74 57 123 84q84 43 172 43q100 0 160 -39q74 -49 73 -153q0 -72 -50 -137.5t-128 -114.5t-151 -74q-49 -16 -203 -51q-6 -29 -8 -41q-8 -41 -9 -74q0 -84 41 -125q35 -35 93 -35q84 0 143 52 q39 35 102 131l58 -31q-68 -137 -163 -209t-231 -72q-57 0 -106 21q-68 29 -125 96q-61 -63 -158 -94q-72 -23 -147 -23q-147 0 -236.5 89.5t-89.5 259.5zM254 209q0 -70 14 -107q27 -70 101 -69q133 0 237 309q84 246 84 393q0 80 -28.5 116t-88.5 36q-78 0 -139 -99 q-29 -45 -55 -106q-33 -86 -64 -170q-61 -188 -61 -303zM862 446q211 49 295 205q27 51 43 148q0 86 -70 86q-55 0 -96 -54q-78 -98 -172 -385z" />
<glyph unicode="&#x178;" horiz-adv-x="1251" d="M150 0v51q102 8 133 27q47 29 73 121l123 442l-180 549q-27 80 -50.5 99.5t-98.5 29.5v51h579v-51q-86 0 -114.5 -17.5t-28.5 -56.5q0 -47 47 -190q55 -168 110 -334l265 381q37 53 45 74.5t8 58.5q0 43 -28.5 63.5t-108.5 20.5v51h426v-51q-49 -8 -88 -33.5t-99 -107.5 l-389 -547l-106 -391q-16 -51 -17 -99q0 -57 38 -73.5t120 -16.5v-51h-659zM459 1630q0 55 37.5 95t93.5 40q55 0 95 -39.5t40 -95.5q0 -59 -44 -95t-89 -36t-84 31q-49 39 -49 100zM893 1630q0 55 38 95t93 40t95 -39.5t40 -95.5q0 -59 -44 -95t-89 -36t-84 31 q-49 39 -49 100z" />
<glyph unicode="&#x2c6;" horiz-adv-x="681" d="M82 1057l328 356h165l177 -356h-105l-180 194l-268 -194h-117z" />
<glyph unicode="&#x2dc;" horiz-adv-x="681" d="M98 1100q20 82 43 121q70 121 197 120q53 0 129 -26q168 -59 174 -60q47 0 74 29q15 16 35 57h84q-25 -98 -60 -147q-66 -96 -182 -96q-29 0 -56.5 7t-58.5 19l-121 47q-10 4 -30.5 10.5t-42.5 6.5q-45 0 -70 -29q-14 -16 -33 -59h-82z" />
<glyph unicode="&#x2000;" horiz-adv-x="943" />
<glyph unicode="&#x2001;" horiz-adv-x="1886" />
<glyph unicode="&#x2002;" horiz-adv-x="943" />
<glyph unicode="&#x2003;" horiz-adv-x="1886" />
<glyph unicode="&#x2004;" horiz-adv-x="628" />
<glyph unicode="&#x2005;" horiz-adv-x="471" />
<glyph unicode="&#x2006;" horiz-adv-x="314" />
<glyph unicode="&#x2007;" horiz-adv-x="314" />
<glyph unicode="&#x2008;" horiz-adv-x="235" />
<glyph unicode="&#x2009;" horiz-adv-x="377" />
<glyph unicode="&#x200a;" horiz-adv-x="104" />
<glyph unicode="&#x2010;" horiz-adv-x="681" d="M4 340l49 238h502l-47 -238h-504z" />
<glyph unicode="&#x2011;" horiz-adv-x="681" d="M4 340l49 238h502l-47 -238h-504z" />
<glyph unicode="&#x2012;" horiz-adv-x="681" d="M4 340l49 238h502l-47 -238h-504z" />
<glyph unicode="&#x2013;" d="M-82 365l35 186h1024l-35 -186h-1024z" />
<glyph unicode="&#x2014;" horiz-adv-x="2048" d="M-82 365l35 186h2048l-35 -186h-2048z" />
<glyph unicode="&#x2018;" horiz-adv-x="681" d="M262 952q0 135 115 260q141 156 276 191l27 -49q-111 -59 -176.5 -122t-65.5 -118q0 -37 45 -67q98 -70 99 -140q0 -66 -39 -108.5t-105 -42.5q-61 0 -108 37q-68 51 -68 159z" />
<glyph unicode="&#x2019;" horiz-adv-x="681" d="M201 805q111 59 176 121.5t65 117.5q0 37 -45 68q-98 70 -98 139q0 66 39 109t104 43q61 0 109 -37q68 -51 67 -160q0 -135 -114 -260q-142 -155 -277 -190z" />
<glyph unicode="&#x201a;" horiz-adv-x="681" d="M-10 -324q111 59 176 122t65 118q0 37 -45 68q-98 70 -98 139q0 66 39 108.5t104 42.5q61 0 109 -36q68 -51 68 -160q0 -135 -115 -260q-142 -156 -277 -191z" />
<glyph unicode="&#x201c;" d="M109 952q0 135 114 260q142 156 277 191l26 -49q-111 -59 -176 -122t-65 -118q0 -37 45 -67q98 -70 98 -140q0 -66 -39 -108.5t-104 -42.5q-61 0 -109 37q-68 51 -67 159zM633 952q0 135 115 260q141 156 276 191l27 -49q-111 -59 -176.5 -122t-65.5 -118q0 -37 45 -67 q98 -70 98 -140q0 -66 -39 -108.5t-104 -42.5q-61 0 -109 37q-68 51 -67 159z" />
<glyph unicode="&#x201d;" d="M109 805q111 59 176 121.5t65 117.5q0 37 -45 68q-98 70 -98 139q0 66 39 109t104 43q61 0 109 -37q68 -51 67 -160q0 -135 -114 -260q-142 -155 -277 -190zM633 805q111 59 176 121.5t65 117.5q0 37 -45 68q-98 70 -98 139q0 66 39 109t104 43q61 0 109 -37 q68 -51 68 -160q0 -135 -115 -260q-142 -155 -277 -190z" />
<glyph unicode="&#x201e;" d="M-117 -324q111 59 176.5 122t65.5 118q0 37 -45 68q-98 70 -98 139q0 66 38.5 108.5t104.5 42.5q61 0 108 -36q68 -51 68 -160q0 -135 -115 -260q-141 -156 -276 -191zM408 -324q111 59 176 122t65 118q0 37 -45 68q-98 70 -98 139q0 66 39 108.5t104 42.5q61 0 109 -36 q68 -51 67 -160q0 -135 -114 -260q-142 -156 -277 -191z" />
<glyph unicode="&#x2022;" horiz-adv-x="716" d="M0 717q0 152 103.5 255t254.5 103q150 0 254.5 -104t104.5 -254t-104.5 -254.5t-254.5 -104.5q-152 0 -255 103.5t-103 255.5z" />
<glyph unicode="&#x2026;" horiz-adv-x="2048" d="M82 125q0 61 42.5 106t108.5 45q63 0 107.5 -44t44.5 -107q0 -66 -43 -109t-109 -43q-68 0 -109.5 44t-41.5 108zM762 125q0 61 42.5 106t108.5 45q63 0 107.5 -44t44.5 -107q0 -66 -43 -109t-109 -43q-68 0 -109.5 44t-41.5 108zM1442 125q0 61 42.5 106t108.5 45 q63 0 107.5 -44t44.5 -107q0 -66 -43 -109t-109 -43q-68 0 -109.5 44t-41.5 108z" />
<glyph unicode="&#x202f;" horiz-adv-x="377" />
<glyph unicode="&#x2039;" horiz-adv-x="681" d="M66 444v19l370 270q82 72 110.5 94.5t45.5 22.5q29 0 29 -25q0 -53 -150 -215q-75 -79 -149 -159l81 -170q27 -53 41 -88q27 -63 27 -95q0 -33 -29 -32q-10 0 -16 4t-33 34q-66 70 -160 168q-82 84 -167 172z" />
<glyph unicode="&#x203a;" horiz-adv-x="681" d="M20 90q0 53 150 215q73 80 149 160l-81 170q-27 53 -41 88q-27 63 -27 94q0 33 29 33q10 0 16 -4t33 -35q66 -70 160 -168q82 -84 167 -172v-18l-370 -271q-82 -72 -110.5 -94t-45.5 -22q-29 0 -29 24z" />
<glyph unicode="&#x205f;" horiz-adv-x="471" />
<glyph unicode="&#x2122;" horiz-adv-x="2048" d="M66 1190v180h716v-180h-43q-14 59 -43 94q-37 41 -92 41h-100v-633q0 -72 12 -85t90 -21v-43h-364v43q78 8 90 20t12 86v633h-100q-57 0 -89 -36t-46 -99h-43zM870 1329v41h260l308 -618l321 618h223v-41q-66 0 -90 -26.5t-24 -83.5v-527q0 -72 12 -85t90 -21v-43h-364 v43q78 8 90 21.5t12 84.5v469l-313 -622h-23l-299 618l-4 -434q0 -74 20.5 -102.5t86.5 -34.5v-43h-269v43q68 6 87.5 33.5t19.5 103.5v500q-45 106 -144 106z" />
<glyph unicode="&#x25fc;" horiz-adv-x="942" d="M0 0v942h942v-942h-942z" />
</font>
</defs>
</svg>
